<svg width="1152" height="17" viewBox="0 0 1152 17" fill="none" xmlns="http://www.w3.org/2000/svg">
<path d="M544 1.43994L541.719 6.04932L536.641 6.78369L540.312 10.3774L539.453 15.4399L544 13.0493L548.547 15.4399L547.688 10.3774L551.359 6.78369L546.281 6.04932L544 1.43994Z" fill="#0E0E0F"/>
<path d="M560 1.43994L557.719 6.04932L552.641 6.78369L556.312 10.3774L555.453 15.4399L560 13.0493L564.547 15.4399L563.688 10.3774L567.359 6.78369L562.281 6.04932L560 1.43994Z" fill="#0E0E0F"/>
<path d="M576 1.43994L573.719 6.04932L568.641 6.78369L572.312 10.3774L571.453 15.4399L576 13.0493L580.547 15.4399L579.688 10.3774L583.359 6.78369L578.281 6.04932L576 1.43994Z" fill="#0E0E0F"/>
<path d="M592 1.43994L589.719 6.04932L584.641 6.78369L588.312 10.3774L587.453 15.4399L592 13.0493L596.547 15.4399L595.688 10.3774L599.359 6.78369L594.281 6.04932L592 1.43994Z" fill="#0E0E0F"/>
<path d="M608 1.43994L605.719 6.04932L600.641 6.78369L604.312 10.3774L603.453 15.4399L608 13.0493L612.547 15.4399L611.688 10.3774L615.359 6.78369L610.281 6.04932L608 1.43994Z" fill="#0E0E0F"/>
</svg>
