<svg width="130" height="43" viewBox="0 0 130 43" fill="none" xmlns="http://www.w3.org/2000/svg">
<g clip-path="url(#clip0_15_6351)">
<g clip-path="url(#clip1_15_6351)">
<g clip-path="url(#clip2_15_6351)">
<path d="M32.58 18.7329L23.927 10.0829C23.7874 9.95208 23.6033 9.87927 23.412 9.87927C23.2207 9.87927 23.0366 9.95208 22.897 10.0829L21.197 11.7829L28.149 18.7339C28.2171 18.8014 28.2711 18.8817 28.308 18.9702C28.3448 19.0587 28.3638 19.1536 28.3638 19.2494C28.3638 19.3453 28.3448 19.4402 28.308 19.5287C28.2711 19.6171 28.2171 19.6974 28.149 19.7649L21.001 26.9129L22.701 28.6129C22.8405 28.744 23.0246 28.8169 23.216 28.8169C23.4074 28.8169 23.5916 28.744 23.731 28.6129L32.581 19.7649C32.7118 19.6254 32.7847 19.4412 32.7847 19.2499C32.7847 19.0586 32.7118 18.8745 32.581 18.7349V18.7329H32.58Z" fill="#009C9C"/>
<path d="M17.84 10.708L17.21 10.08C17.0705 9.94916 16.8863 9.87634 16.695 9.87634C16.5037 9.87634 16.3196 9.94916 16.18 10.08L14.48 11.78L15.607 12.91L17.823 15.126L20.036 12.909L17.838 10.709H17.84V10.708ZM17.628 23.564L15.417 25.781L14.287 26.909L15.987 28.609C16.1265 28.7403 16.3109 28.8135 16.5025 28.8135C16.6941 28.8135 16.8785 28.7403 17.018 28.609L17.643 27.981L19.858 25.765L17.628 23.564Z" fill="#40E3E3"/>
<path d="M21.432 18.7329C21.5629 18.8725 21.6357 19.0566 21.6357 19.248C21.6357 19.4393 21.5629 19.6234 21.432 19.7629L17.628 23.5629L19.845 25.78L25.865 19.7599C25.9328 19.6924 25.9866 19.6121 26.0233 19.5238C26.06 19.4354 26.0789 19.3406 26.0789 19.245C26.0789 19.1493 26.06 19.0545 26.0233 18.9661C25.9866 18.8778 25.9328 18.7975 25.865 18.73L20.055 12.924L17.84 15.1399L21.432 18.7329Z" fill="#1ABAB8"/>
<path d="M7.32003 18.94L13.34 12.92L11.124 10.704L10.492 10.081C10.3526 9.94992 10.1684 9.87695 9.97703 9.87695C9.78565 9.87695 9.60148 9.94992 9.46203 10.081L0.605026 18.94C0.536997 19.0074 0.482998 19.0876 0.446146 19.176C0.409294 19.2644 0.39032 19.3592 0.39032 19.455C0.39032 19.5507 0.409294 19.6456 0.446146 19.734C0.482998 19.8224 0.536997 19.9026 0.605026 19.97L9.25803 28.623C9.39759 28.7538 9.58172 28.8266 9.77303 28.8266C9.96433 28.8266 10.1485 28.7538 10.288 28.623L10.925 27.995L13.142 25.779L7.32103 19.971C7.25309 19.9034 7.19917 19.8231 7.16238 19.7346C7.12559 19.6462 7.10665 19.5513 7.10665 19.4555C7.10665 19.3597 7.12559 19.2648 7.16238 19.1763C7.19917 19.0879 7.25309 19.0075 7.32103 18.94H7.32003Z" fill="#87F0F0"/>
<path d="M14.035 18.9399L16.695 16.2839L14.479 14.0679L13.349 12.9399L7.33102 18.9599C7.26311 19.0274 7.20921 19.1077 7.17244 19.196C7.13566 19.2844 7.11673 19.3792 7.11673 19.4749C7.11673 19.5707 7.13566 19.6655 7.17244 19.7538C7.20921 19.8422 7.26311 19.9225 7.33102 19.9899L13.129 25.7799L14.257 24.6519L16.474 22.4349L14.02 19.9869C13.8889 19.8473 13.8159 19.663 13.8159 19.4714C13.8159 19.2799 13.8889 19.0956 14.02 18.9559" fill="#40E3E3"/>
<path d="M14.036 19.97L16.489 22.42L19.146 19.764C19.2141 19.6965 19.2681 19.6162 19.305 19.5277C19.3418 19.4392 19.3608 19.3443 19.3608 19.2485C19.3608 19.1526 19.3418 19.0577 19.305 18.9692C19.2681 18.8808 19.2141 18.8005 19.146 18.733L16.696 16.283L14.036 18.94C13.9052 19.0795 13.8324 19.2637 13.8324 19.455C13.8324 19.6463 13.9052 19.8304 14.036 19.97Z" fill="#17CFCF"/>
<path d="M39.519 16.8969C39.5442 15.9175 39.739 14.9498 40.095 14.0369C40.4285 13.1959 40.9422 12.4381 41.6 11.8169C42.3037 11.1756 43.1323 10.6867 44.034 10.3809C45.1264 10.0223 46.2715 9.85055 47.421 9.87295C48.7006 9.83241 49.9766 10.0315 51.183 10.4599C52.048 10.7799 52.846 11.2579 53.535 11.8699C54.062 12.3399 54.48 12.9199 54.761 13.5669C54.964 14.0399 55.098 14.5389 55.16 15.0509C55.1707 15.145 55.1585 15.2403 55.1244 15.3285C55.0902 15.4168 55.0352 15.4956 54.964 15.5579C54.824 15.6852 54.6412 15.7552 54.452 15.7539H52.338C52.1726 15.7618 52.0098 15.7111 51.878 15.6109C51.7765 15.5288 51.6934 15.4263 51.634 15.3099C51.5449 15.1551 51.4532 15.0018 51.359 14.8499C51.1653 14.5692 50.9264 14.3225 50.652 14.1199C50.2663 13.8334 49.8403 13.6053 49.388 13.4429C48.7585 13.2242 48.0942 13.1226 47.428 13.1429C46.2873 13.0862 45.1674 13.4639 44.294 14.1999C43.9005 14.5598 43.586 14.9974 43.3704 15.485C43.1547 15.9727 43.0425 16.4997 43.041 17.0329C43.003 17.7429 42.985 18.4529 42.988 19.1629C42.988 19.9179 42.988 20.6289 43.041 21.2919C43.09 22.7369 43.511 23.7859 44.294 24.4369C45.1866 25.1251 46.2955 25.4719 47.421 25.4149C48.0192 25.4194 48.6156 25.3486 49.196 25.2039C49.704 25.0795 50.1798 24.8488 50.592 24.5269C50.996 24.1969 51.311 23.7689 51.506 23.2859C51.74 22.6859 51.851 22.0459 51.834 21.4039V21.1819H48.647C48.5543 21.1835 48.4622 21.1657 48.3768 21.1295C48.2913 21.0933 48.2144 21.0397 48.151 20.9719C48.0846 20.9083 48.0318 20.8317 47.9961 20.7469C47.9603 20.6622 47.9423 20.571 47.943 20.4789V18.6229C47.9448 18.4365 48.0195 18.2582 48.151 18.1261C48.2826 17.994 48.4606 17.9185 48.647 17.9159H54.667C54.8535 17.9188 55.0315 17.9944 55.1631 18.1267C55.2946 18.259 55.3692 18.4374 55.371 18.6239V21.4939C55.3818 22.4781 55.2133 23.4561 54.874 24.3799C54.5479 25.2353 54.0335 26.0063 53.369 26.6359C52.6574 27.3079 51.811 27.821 50.886 28.1409C48.6332 28.8461 46.2188 28.8461 43.966 28.1409C43.0676 27.8433 42.2439 27.3556 41.551 26.7109C40.9011 26.0748 40.3977 25.3046 40.076 24.4539C39.7263 23.531 39.5353 22.5556 39.511 21.5689C39.511 21.2389 39.481 20.8729 39.474 20.4739C39.466 20.0759 39.474 19.6609 39.474 19.2439V18.0169C39.474 17.6149 39.496 17.2649 39.511 16.9189L39.519 16.8969ZM63.415 17.7099C62.9729 17.6974 62.5327 17.7728 62.12 17.9319C61.7863 18.0634 61.4808 18.2576 61.22 18.5039C60.984 18.7279 60.793 18.9939 60.656 19.2899C60.5355 19.5501 60.4533 19.8263 60.412 20.1099H66.312C66.2741 19.8308 66.2084 19.5561 66.116 19.2899C66.0183 18.9967 65.8575 18.7284 65.645 18.5039C65.4031 18.2529 65.1092 18.0576 64.784 17.9319C64.3464 17.7687 63.8808 17.6932 63.414 17.7099H63.415ZM57.018 21.6259C57.0113 20.6896 57.1614 19.7587 57.462 18.8719C57.7359 18.0427 58.1709 17.2757 58.742 16.6149C59.3038 15.9773 59.9934 15.4649 60.766 15.1109C61.5939 14.7408 62.4922 14.5545 63.399 14.5649C64.3047 14.5534 65.2024 14.7354 66.032 15.0989C66.8096 15.4377 67.5089 15.9334 68.086 16.5549C68.6522 17.1678 69.0922 17.8861 69.381 18.6689C69.687 19.4829 69.843 20.3459 69.84 21.2159V22.3909C69.8369 22.5776 69.7613 22.7556 69.6291 22.8874C69.4969 23.0192 69.3186 23.0944 69.132 23.0969H60.412C60.402 23.4639 60.486 23.8279 60.656 24.1549C60.823 24.4509 61.051 24.7069 61.326 24.9069C61.616 25.1219 61.942 25.2809 62.289 25.3769C62.657 25.4799 63.036 25.5309 63.419 25.5309C63.877 25.5439 64.334 25.4869 64.776 25.3609C65.085 25.2689 65.376 25.1239 65.636 24.9329C65.784 24.8209 65.941 24.7229 66.108 24.6429C66.2668 24.5839 66.4357 24.5567 66.605 24.5629H68.692C68.8836 24.5659 69.0668 24.6421 69.204 24.7759C69.2734 24.8374 69.3273 24.9143 69.3614 25.0005C69.3954 25.0867 69.4087 25.1797 69.4 25.2719C69.3414 25.6131 69.2022 25.9354 68.994 26.2119C68.6882 26.6534 68.3055 27.0362 67.864 27.3419C67.2858 27.744 66.6526 28.0606 65.984 28.2819C65.154 28.5519 64.284 28.6799 63.411 28.6569C62.507 28.6669 61.611 28.4949 60.777 28.1509C59.9988 27.8288 59.302 27.3376 58.737 26.7129C58.1672 26.06 57.7328 25.3002 57.459 24.4779C57.1527 23.556 57.0026 22.5894 57.015 21.6179L57.018 21.6259ZM76.094 23.5059C76.069 23.9759 76.224 24.4379 76.526 24.7979C76.812 25.1209 77.346 25.2829 78.133 25.2829H79.725C79.9111 25.2855 80.0889 25.3605 80.2207 25.4919C80.3525 25.6233 80.4279 25.8009 80.431 25.9869V27.7099C80.4282 27.8966 80.3528 28.0748 80.2208 28.2067C80.0888 28.3387 79.9106 28.4141 79.724 28.4169H77.79C76.15 28.4169 74.898 28.0209 74.027 27.2269C73.157 26.4369 72.717 25.2219 72.71 23.5859V17.9699H70.972C70.8798 17.971 70.7884 17.9528 70.7037 17.9165C70.619 17.8801 70.5428 17.8265 70.48 17.7589C70.4118 17.6965 70.3577 17.6202 70.3213 17.5352C70.2849 17.4502 70.2671 17.3584 70.269 17.2659V15.5399C70.2679 15.4477 70.286 15.3562 70.3222 15.2714C70.3583 15.1865 70.4117 15.1101 70.479 15.0469C70.5426 14.9802 70.6191 14.9272 70.7038 14.8911C70.7886 14.855 70.8799 14.8366 70.972 14.8369H72.699V10.5769C72.7021 10.3913 72.7773 10.2141 72.9087 10.0829C73.0401 9.95172 73.2174 9.87678 73.403 9.87395H75.39C75.5757 9.87678 75.7529 9.95172 75.8843 10.0829C76.0157 10.2141 76.0909 10.3913 76.094 10.5769V14.8359H79.48C79.6604 14.8465 79.8301 14.925 79.9549 15.0556C80.0798 15.1862 80.1505 15.3593 80.153 15.5399V17.2659C80.1504 17.4518 80.0756 17.6293 79.9444 17.7609C79.8132 17.8925 79.6358 17.9678 79.45 17.9709H76.063L76.093 23.5079V23.5069L76.094 23.5059ZM93.254 21.5999L90.38 14.1549L87.509 21.5999H93.254ZM91.817 10.1329C91.9315 10.1247 92.0464 10.1402 92.1546 10.1784C92.2629 10.2166 92.3621 10.2767 92.446 10.3549C92.614 10.5499 92.741 10.7749 92.821 11.0219L99.218 27.5299C99.2357 27.5883 99.2444 27.649 99.244 27.7099C99.2414 27.8967 99.1661 28.075 99.0341 28.207C98.9021 28.339 98.7237 28.4144 98.537 28.4169H96.656C96.5251 28.4308 96.3928 28.4183 96.2668 28.3804C96.1407 28.3424 96.0235 28.2797 95.922 28.1959C95.7988 28.0717 95.7016 27.9242 95.636 27.7619L94.506 24.8659H86.256L85.126 27.7619C85.062 27.9239 84.965 28.0719 84.841 28.1959C84.7397 28.2797 84.6227 28.3423 84.4968 28.3801C84.3709 28.4179 84.2387 28.4301 84.108 28.4159H82.226C82.0404 28.4116 81.8637 28.3357 81.7327 28.2042C81.6017 28.0726 81.5266 27.8956 81.523 27.7099C81.5218 27.6489 81.5309 27.588 81.55 27.5299L87.946 11.0219C88.0258 10.7768 88.1536 10.5501 88.322 10.3549C88.4057 10.2763 88.5048 10.2159 88.6131 10.1777C88.7214 10.1395 88.8365 10.1242 88.951 10.1329H91.817ZM110.415 22.3559C110.467 21.8707 110.467 21.3812 110.415 20.8959C110.313 19.7679 109.963 18.9479 109.372 18.4549C108.765 17.9506 107.995 17.6831 107.206 17.7019C106.419 17.6768 105.65 17.9451 105.05 18.4549C104.748 18.7317 104.503 19.0656 104.331 19.4373C104.158 19.8091 104.061 20.2114 104.045 20.6209C104.005 20.9509 103.987 21.2829 103.992 21.6149C103.987 21.9469 104.005 22.2789 104.045 22.6079C104.091 23.4249 104.451 24.1924 105.05 24.7499C105.643 25.2756 106.414 25.5553 107.206 25.5319C107.995 25.5506 108.765 25.2832 109.372 24.7789C109.963 24.2869 110.313 23.4709 110.415 22.3369V22.3559ZM107.996 28.6759C107.509 28.6813 107.022 28.6296 106.547 28.5219C106.159 28.4352 105.781 28.3092 105.418 28.1459C105.13 28.0012 104.858 27.8248 104.609 27.6199C104.414 27.4657 104.232 27.2958 104.064 27.1119V32.6719C104.061 32.8588 103.985 33.037 103.853 33.1692C103.721 33.3013 103.543 33.3769 103.356 33.3799H101.374C101.187 33.3776 101.008 33.3023 100.876 33.17C100.744 33.0377 100.668 32.859 100.666 32.6719V15.5399C100.67 15.3538 100.746 15.1763 100.878 15.045C101.01 14.9137 101.188 14.8388 101.374 14.8359H103.356C103.542 14.8385 103.72 14.9134 103.852 15.0447C103.985 15.1761 104.06 15.3537 104.064 15.5399V16.1419C104.449 15.7159 104.914 15.3699 105.433 15.1219C105.796 14.9599 106.174 14.8319 106.562 14.7459C107.037 14.6387 107.524 14.587 108.011 14.5919C108.827 14.5804 109.634 14.7541 110.373 15.0999C111.06 15.4249 111.673 15.8869 112.175 16.4579C112.679 17.0379 113.078 17.7009 113.353 18.4179C113.639 19.1559 113.801 19.9369 113.834 20.7279C113.853 20.9879 113.861 21.2919 113.861 21.6419C113.861 21.9919 113.861 22.2969 113.834 22.5559C113.801 23.3471 113.639 24.1275 113.353 24.8659C113.078 25.5831 112.679 26.2465 112.175 26.8259C111.673 27.3969 111.06 27.8593 110.373 28.1849C109.628 28.5274 108.815 28.6947 107.996 28.6759ZM125.178 22.3559C125.231 21.8707 125.231 21.3812 125.178 20.8959C125.073 19.7679 124.727 18.9479 124.132 18.4549C123.525 17.9494 122.755 17.6818 121.966 17.7019C121.179 17.6769 120.41 17.9452 119.81 18.4549C119.508 18.7317 119.263 19.0658 119.09 19.4378C118.918 19.8097 118.821 20.2122 118.805 20.6219C118.766 20.9519 118.749 21.2829 118.752 21.6149C118.749 21.9469 118.766 22.2789 118.805 22.6079C118.851 23.4249 119.211 24.1924 119.81 24.7499C120.403 25.2758 121.174 25.5555 121.966 25.5319C122.755 25.5519 123.525 25.2843 124.132 24.7789C124.727 24.2869 125.073 23.4709 125.178 22.3369V22.3559ZM122.748 28.6579C122.261 28.6631 121.775 28.6115 121.3 28.5039C120.912 28.4166 120.534 28.2903 120.171 28.1269C119.879 27.9881 119.604 27.8167 119.351 27.6159C119.154 27.4611 118.97 27.2905 118.801 27.1059V32.6719C118.802 32.7647 118.784 32.8567 118.747 32.9422C118.711 33.0277 118.658 33.1049 118.591 33.1689C118.527 33.2349 118.45 33.2875 118.366 33.3235C118.281 33.3596 118.19 33.3784 118.098 33.3789H116.111C115.925 33.3756 115.747 33.2999 115.616 33.1679C115.485 33.0359 115.41 32.858 115.408 32.6719V15.5399C115.409 15.3538 115.484 15.1757 115.615 15.0439C115.747 14.9122 115.925 14.8375 116.111 14.8359H118.098C118.283 14.8398 118.46 14.9152 118.591 15.0465C118.722 15.1777 118.797 15.3545 118.801 15.5399V16.1419C118.97 15.9581 119.154 15.7883 119.351 15.6339C119.604 15.4339 119.879 15.2619 120.171 15.1219C120.983 14.7642 121.861 14.5835 122.748 14.5919C123.565 14.5803 124.375 14.754 125.115 15.0999C125.801 15.427 126.413 15.8888 126.916 16.4579C127.42 17.0379 127.817 17.7009 128.091 18.4179C128.377 19.1559 128.539 19.9369 128.572 20.7279C128.591 20.9879 128.598 21.2919 128.598 21.6419C128.598 21.9919 128.598 22.2969 128.572 22.5559C128.539 23.3471 128.377 24.1275 128.091 24.8659C127.817 25.583 127.419 26.2464 126.916 26.8259C126.413 27.3953 125.801 27.8575 125.115 28.1849C124.374 28.5309 123.565 28.7049 122.748 28.6929" fill="#2A3037"/>
</g>
</g>
</g>
<defs>
<clipPath id="clip0_15_6351">
<rect width="129" height="42" fill="white" transform="translate(0.390015 0.439941)"/>
</clipPath>
<clipPath id="clip1_15_6351">
<rect width="129" height="42" fill="white" transform="translate(0.390015 0.439941)"/>
</clipPath>
<clipPath id="clip2_15_6351">
<rect width="129" height="42" fill="white" transform="translate(0.390015 0.439941)"/>
</clipPath>
</defs>
</svg>
