<svg width="32" height="43" viewBox="0 0 32 43" fill="none" xmlns="http://www.w3.org/2000/svg">
<g clip-path="url(#clip0_15_6346)">
<g clip-path="url(#clip1_15_6346)">
<path d="M22.001 10.2399C22.1762 9.77962 22.4866 9.3831 22.8914 9.10252C23.2962 8.82194 23.7765 8.67044 24.269 8.66794C25.059 8.66794 25.592 9.06694 25.592 9.66394C25.592 10.1339 25.386 10.5459 24.383 11.0859L23.821 11.3639C22.7782 11.8192 21.8842 12.5583 21.241 13.4969C20.7253 14.4333 20.4789 15.4941 20.529 16.5619V16.9599H27.853V14.8269H23.09C23.218 14.1939 23.616 13.7949 24.562 13.3119L25.436 12.8719C27.136 11.9889 27.869 11.0219 27.869 9.61394C27.8844 9.17655 27.7918 8.74211 27.5994 8.34899C27.407 7.95588 27.1208 7.61619 26.766 7.35994C26.0113 6.8194 25.0987 6.54438 24.171 6.57794C23.391 6.56935 22.6252 6.78677 21.966 7.20394C21.3347 7.58375 20.8282 8.13992 20.509 8.80394V8.84594L21.989 10.3259L22.001 10.2399ZM27.178 19.1289L27.164 19.0929H19.214L15.204 26.0629H23.146L27.121 32.9529L31.131 25.9909L27.178 19.1289Z" fill="#EC583C"/>
<path d="M21.874 28.2879C20.7688 29.2325 19.4517 29.896 18.0349 30.222C16.6181 30.5481 15.1434 30.527 13.7365 30.1607C12.3296 29.7943 11.032 29.0935 9.95415 28.1178C8.87631 27.1421 8.05014 25.9205 7.54593 24.5569C7.04172 23.1933 6.8744 21.728 7.05822 20.2859C7.24203 18.8437 7.77154 17.4673 8.60168 16.2737C9.43182 15.0802 10.538 14.1048 11.8261 13.4307C13.1142 12.7566 14.5462 12.4037 16 12.4019H16.043L19.235 5.76694H19.15C18.1135 5.5531 17.0583 5.44355 16 5.43994C11.7565 5.43994 7.68687 7.12565 4.68629 10.1262C1.68571 13.1268 0 17.1965 0 21.4399C0 25.6834 1.68571 29.7531 4.68629 32.7537C7.68687 35.7542 11.7565 37.4399 16 37.4399C19.3815 37.4492 22.6766 36.3723 25.4 34.3679H25.45L21.938 28.2309L21.874 28.2879Z" fill="#EC583C"/>
</g>
</g>
<defs>
<clipPath id="clip0_15_6346">
<rect width="32" height="42" fill="white" transform="translate(0 0.439941)"/>
</clipPath>
<clipPath id="clip1_15_6346">
<rect width="32" height="42" fill="white" transform="translate(0 0.439941)"/>
</clipPath>
</defs>
</svg>
