<svg width="161" height="43" viewBox="0 0 161 43" fill="none" xmlns="http://www.w3.org/2000/svg">
<g clip-path="url(#clip0_15_6361)">
<g clip-path="url(#clip1_15_6361)">
<g clip-path="url(#clip2_15_6361)">
<mask id="mask0_15_6361" style="mask-type:luminance" maskUnits="userSpaceOnUse" x="0" y="0" width="161" height="43">
<path d="M0.779999 0.439941H160.78V42.4399H0.779999V0.439941Z" fill="white"/>
</mask>
<g mask="url(#mask0_15_6361)">
<path d="M13.536 8.52102C13.656 8.56302 13.77 8.62302 13.871 8.70102L18.453 13.283C18.634 13.4661 18.7366 13.7125 18.739 13.97V35.096C18.7415 35.1387 18.7349 35.1814 18.7197 35.2213C18.7045 35.2613 18.681 35.2976 18.6508 35.3278C18.6205 35.358 18.5843 35.3815 18.5443 35.3967C18.5044 35.4119 18.4617 35.4185 18.419 35.416C18.3812 35.4172 18.3437 35.4104 18.3087 35.3961C18.2737 35.3818 18.2421 35.3603 18.216 35.333L13.87 31.02C13.689 30.8369 13.5864 30.5905 13.584 30.333V8.52002H13.534L13.536 8.52102Z" fill="url(#paint0_linear_15_6361)"/>
<path d="M26.143 8.734C26.227 8.647 26.323 8.576 26.43 8.521V30.334C26.4295 30.4624 26.403 30.5895 26.3524 30.7075C26.3017 30.8255 26.2278 30.9321 26.135 31.021L21.824 35.333C21.795 35.3636 21.7601 35.3879 21.7215 35.4045C21.6828 35.4212 21.6411 35.4297 21.599 35.4297C21.5569 35.4297 21.5152 35.4212 21.4765 35.4045C21.4379 35.3879 21.403 35.3636 21.374 35.333C21.3207 35.2749 21.2915 35.1988 21.292 35.12V13.995C21.2922 13.8713 21.3185 13.749 21.3692 13.6361C21.4198 13.5233 21.4937 13.4224 21.586 13.34L26.143 8.734Z" fill="url(#paint1_linear_15_6361)"/>
<path d="M34.448 25.515L34.128 25.196V20.713H29.768C29.7231 20.7119 29.6785 20.7209 29.6375 20.7392C29.5965 20.7575 29.5601 20.7848 29.531 20.819L26.405 23.944L36.412 33.96C36.503 34.0476 36.6108 34.1159 36.7288 34.1609C36.8469 34.2059 36.9728 34.2267 37.099 34.222H42.368C42.4098 34.223 42.4515 34.2154 42.4902 34.1995C42.5289 34.1837 42.564 34.16 42.5931 34.1299C42.6222 34.0998 42.6448 34.0641 42.6594 34.0248C42.674 33.9856 42.6804 33.9438 42.678 33.902C42.6787 33.825 42.6529 33.7502 42.605 33.69L34.448 25.515Z" fill="url(#paint2_linear_15_6361)"/>
<path d="M26.797 8.43994C26.549 8.44985 26.3146 8.55561 26.143 8.73494L21.528 13.3489C21.4596 13.433 21.3993 13.5234 21.348 13.6189H34.128V25.1719L34.448 25.4909L39.004 20.9579C39.0953 20.8684 39.1678 20.7615 39.217 20.6435C39.2663 20.5255 39.2915 20.3988 39.291 20.2709V13.9959C39.2783 13.7523 39.1761 13.5219 39.004 13.3489L34.424 8.73494C34.3348 8.64186 34.2276 8.56776 34.1091 8.51707C33.9905 8.46638 33.8629 8.44015 33.734 8.43994H26.797Z" fill="url(#paint3_linear_15_6361)"/>
<path d="M13.806 8.73399C13.7171 8.64127 13.6105 8.56738 13.4925 8.5167C13.3744 8.46602 13.2474 8.43959 13.119 8.43899H1.1C1.05724 8.4365 1.01444 8.44311 0.974427 8.45838C0.93441 8.47365 0.898085 8.49722 0.867847 8.52756C0.837609 8.55789 0.814145 8.59429 0.799003 8.63435C0.78386 8.67442 0.777384 8.71724 0.78 8.75999C0.779485 8.8048 0.788694 8.8492 0.806994 8.89012C0.825294 8.93103 0.852249 8.96749 0.886 8.99699L5.198 13.35C5.28694 13.4426 5.39359 13.5163 5.51162 13.5668C5.62964 13.6173 5.75662 13.6436 5.885 13.644H18.068C18.2357 13.6466 18.3956 13.7149 18.5134 13.8342C18.6312 13.9535 18.6975 14.1143 18.698 14.282V14.037C18.6956 13.7795 18.593 13.5331 18.412 13.35L13.805 8.73499V8.73399H13.806Z" fill="url(#paint4_linear_15_6361)"/>
<path d="M26.143 8.73494C26.3148 8.55537 26.5497 8.44959 26.798 8.43994H33.736C33.8646 8.44041 33.9918 8.46678 34.11 8.51746C34.2282 8.56814 34.335 8.64211 34.424 8.73494L39.004 13.3489C39.1858 13.5317 39.2891 13.7782 39.292 14.0359V14.2819C39.292 14.1141 39.2259 13.953 39.108 13.8336C38.99 13.7142 38.8298 13.646 38.662 13.6439H21.93C21.7615 13.6463 21.6006 13.7142 21.4814 13.8334C21.3623 13.9525 21.2943 14.1135 21.292 14.2819V14.0359C21.2925 13.9076 21.3188 13.7806 21.3693 13.6626C21.4198 13.5446 21.4935 13.4379 21.586 13.3489L26.143 8.73494Z" fill="url(#paint5_linear_15_6361)"/>
<path d="M39.292 20.033C39.2897 20.2001 39.2229 20.3599 39.1054 20.4788C38.988 20.5977 38.8291 20.6666 38.662 20.671H30.03C29.9893 20.6727 29.9508 20.6895 29.9219 20.7182C29.8931 20.7469 29.876 20.7853 29.874 20.826C29.8735 20.8465 29.8777 20.8668 29.8864 20.8854C29.895 20.9039 29.9079 20.9202 29.924 20.933L34.48 25.49L39.029 20.957C39.1227 20.8689 39.1971 20.7624 39.2477 20.6441C39.2983 20.5259 39.3239 20.3985 39.323 20.27V20.033H39.292Z" fill="url(#paint6_linear_15_6361)"/>
<path d="M159.605 25.695C159.605 23.527 158.361 22.709 155.317 21.939C153.485 21.489 153.01 21.121 153.01 20.483C153.01 19.845 153.591 19.428 154.785 19.428C156.1 19.4719 157.387 19.8247 158.541 20.458L158.917 18.128C157.61 17.5771 156.204 17.2981 154.785 17.308C152.028 17.308 150.416 18.708 150.416 20.671C150.416 22.791 151.611 23.584 154.507 24.296C156.495 24.77 157.052 25.114 157.052 25.932C157.052 26.75 156.283 27.176 154.933 27.176C153.363 27.1351 151.834 26.6715 150.506 25.834L150.138 28.19C151.572 28.8971 153.145 29.2747 154.744 29.295C157.935 29.295 159.605 27.945 159.605 25.695ZM148.78 29.058V17.44H145.974V25.303C145.235 26.1474 144.202 26.6772 143.085 26.784C141.948 26.784 141.449 26.097 141.449 25.066V17.44H138.643V25.802C138.643 27.946 139.829 29.247 142.104 29.247C143.634 29.1664 145.075 28.5013 146.129 27.389L146.53 29.026L148.78 29.058ZM136.974 29.058V17.44H134.192V29.06H136.974V29.058ZM135.591 12.383C136.024 12.3822 136.44 12.5536 136.747 12.8595C137.054 13.1653 137.227 13.5806 137.228 14.014C137.229 14.4474 137.057 14.8633 136.752 15.1703C136.446 15.4773 136.03 15.6502 135.597 15.651C135.382 15.6514 135.17 15.6095 134.971 15.5278C134.773 15.446 134.593 15.326 134.441 15.1745C134.289 15.0231 134.168 14.8432 134.086 14.6451C134.003 14.447 133.96 14.2346 133.96 14.02C133.96 13.8054 134.001 13.5929 134.083 13.3945C134.165 13.1961 134.285 13.0157 134.436 12.8637C134.588 12.7117 134.768 12.591 134.966 12.5085C135.164 12.4261 135.376 12.3834 135.591 12.383ZM129.741 25.196C129.424 25.6709 129.001 26.0657 128.505 26.3496C128.01 26.6334 127.455 26.7986 126.885 26.832C125.478 26.832 124.431 25.744 124.431 23.469C124.431 20.925 125.65 19.681 127.294 19.681C128.14 19.6545 128.981 19.8257 129.749 20.181L129.741 25.196ZM132.506 29.058V11.828L129.724 12.301V17.889C128.81 17.5899 127.855 17.438 126.894 17.439C124.087 17.439 121.6 19.346 121.6 23.633C121.6 27.495 123.637 29.295 126.182 29.295C126.9 29.2863 127.608 29.118 128.253 28.8024C128.898 28.4868 129.465 28.0317 129.913 27.47L130.15 29.058H132.506ZM117.656 25.883C116.864 26.6689 115.808 27.1326 114.694 27.184C113.737 27.184 113.132 26.652 113.132 25.834C113.132 24.721 114.007 23.739 117.681 23.314V25.884L117.656 25.883ZM120.438 29.058V21.17C120.438 18.446 118.957 17.333 115.881 17.333C114.271 17.337 112.676 17.651 111.184 18.258L111.528 20.483C112.808 19.9233 114.182 19.6099 115.578 19.559C116.904 19.559 117.697 20.033 117.697 21.277V21.645C112.788 22.128 110.391 23.281 110.391 26.095C110.391 28.085 111.774 29.27 113.835 29.27C114.591 29.2693 115.339 29.1168 116.034 28.8217C116.73 28.5266 117.359 28.0948 117.885 27.552L118.147 29.033H120.454L120.438 29.058ZM109.9 28.64L105.506 22.578C106.464 22.342 107.312 21.7841 107.908 20.9977C108.503 20.2113 108.811 19.2441 108.779 18.258C108.779 15.296 106.635 13.602 103.052 13.602H98.142V29.058H101.031V23.078H102.43L106.774 29.188L109.9 28.64ZM105.924 18.421C105.924 20.058 104.704 20.876 102.741 20.876H101.104V15.966H102.904C104.884 16.008 105.924 16.883 105.924 18.421ZM96.76 29.058L96.416 26.758C96.084 26.811 95.747 26.838 95.41 26.84C94.273 26.84 93.823 26.333 93.823 25.384V19.714H96.76L96.285 17.44H93.831V13.44L91.081 13.922V17.442H89.201V19.692H91.082V25.812C91.082 28.405 92.612 29.199 94.919 29.199C95.5361 29.2297 96.1546 29.1817 96.76 29.058ZM88.578 25.695C88.578 23.527 87.334 22.709 84.291 21.939C82.458 21.489 81.984 21.121 81.984 20.483C81.984 19.845 82.564 19.428 83.759 19.428C85.0741 19.4721 86.3605 19.8249 87.514 20.458L87.915 18.128C86.6082 17.5775 85.203 17.2985 83.785 17.308C81.035 17.308 79.415 18.708 79.415 20.671C79.415 22.791 80.609 23.584 83.465 24.296C85.453 24.77 86.009 25.114 86.009 25.932C86.009 26.75 85.239 27.176 83.889 27.176C82.3563 27.1266 80.866 26.6598 79.579 25.826L79.177 28.182C80.6189 28.8913 82.2012 29.2689 83.808 29.287C86.942 29.295 88.611 27.945 88.611 25.695H88.578ZM77.942 29.058V17.44H75.135V25.303C74.3976 26.1484 73.3639 26.6786 72.247 26.784C71.11 26.784 70.611 26.097 70.611 25.066V17.44H67.87V25.802C67.87 27.946 69.065 29.247 71.34 29.247C72.869 29.1627 74.3082 28.4981 75.364 27.389L75.757 29.026L77.943 29.059L77.942 29.058ZM66.487 20.058L65.857 17.333C65.0961 17.4568 64.3732 17.7516 63.7427 18.1952C63.1122 18.6388 62.5906 19.2196 62.217 19.894L61.685 17.44H59.598V29.06H62.323V22.44C62.788 21.7447 63.407 21.1659 64.1319 20.7487C64.8568 20.3314 65.6682 20.0868 66.503 20.034L66.487 20.058Z" fill="url(#paint7_linear_15_6361)"/>
<path d="M61.342 16.1709L60.712 13.6019H47.024V16.1719H52.186V29.0579H55.076V16.1699H61.342V16.1709Z" fill="url(#paint8_linear_15_6361)"/>
</g>
</g>
</g>
</g>
<defs>
<linearGradient id="paint0_linear_15_6361" x1="16.109" y1="35.641" x2="16.109" y2="8.47902" gradientUnits="userSpaceOnUse">
<stop offset="0.71" stop-color="#116BF2"/>
<stop offset="1" stop-color="#1E50E5"/>
</linearGradient>
<linearGradient id="paint1_linear_15_6361" x1="211.818" y1="-94014.5" x2="211.818" y2="-94899.5" gradientUnits="userSpaceOnUse">
<stop offset="0.71" stop-color="#116BF2"/>
<stop offset="1" stop-color="#1E50E5"/>
</linearGradient>
<linearGradient id="paint2_linear_15_6361" x1="29.181" y1="23.362" x2="39.774" y2="33.962" gradientUnits="userSpaceOnUse">
<stop offset="0.41" stop-color="#116BF2"/>
<stop offset="1" stop-color="#185DEC"/>
</linearGradient>
<linearGradient id="paint3_linear_15_6361" x1="30.352" y1="25.0439" x2="30.352" y2="7.82194" gradientUnits="userSpaceOnUse">
<stop offset="0.58" stop-color="#116BF2"/>
<stop offset="1" stop-color="#1E50E5"/>
</linearGradient>
<linearGradient id="paint4_linear_15_6361" x1="12.981" y1="10.602" x2="10.429" y2="13.417" gradientUnits="userSpaceOnUse">
<stop offset="0.03" stop-color="#59C5FF"/>
<stop offset="0.99" stop-color="#21B1FF"/>
</linearGradient>
<linearGradient id="paint5_linear_15_6361" x1="25.628" y1="10.7769" x2="28.597" y2="13.6359" gradientUnits="userSpaceOnUse">
<stop offset="0.04" stop-color="#59C5FF"/>
<stop offset="0.99" stop-color="#21B1FF"/>
</linearGradient>
<linearGradient id="paint6_linear_15_6361" x1="37.086" y1="23.235" x2="34.524" y2="20.635" gradientUnits="userSpaceOnUse">
<stop offset="0.04" stop-color="#57C4FF"/>
<stop offset="0.99" stop-color="#21B1FF"/>
</linearGradient>
<linearGradient id="paint7_linear_15_6361" x1="31253.8" y1="-38727.5" x2="43477.6" y2="-38727.5" gradientUnits="userSpaceOnUse">
<stop offset="0.71" stop-color="#116BF2"/>
<stop offset="1" stop-color="#1E50E5"/>
</linearGradient>
<linearGradient id="paint8_linear_15_6361" x1="1302.85" y1="-30026.2" x2="1553.42" y2="-30026.2" gradientUnits="userSpaceOnUse">
<stop offset="0.71" stop-color="#116BF2"/>
<stop offset="1" stop-color="#1E50E5"/>
</linearGradient>
<clipPath id="clip0_15_6361">
<rect width="160" height="42" fill="white" transform="translate(0.779999 0.439941)"/>
</clipPath>
<clipPath id="clip1_15_6361">
<rect width="160" height="42" fill="white" transform="translate(0.779999 0.439941)"/>
</clipPath>
<clipPath id="clip2_15_6361">
<rect width="160" height="42" fill="white" transform="translate(0.779999 0.439941)"/>
</clipPath>
</defs>
</svg>
