<svg width="133" height="43" viewBox="0 0 133 43" fill="none" xmlns="http://www.w3.org/2000/svg">
<g clip-path="url(#clip0_15_6387)">
<g clip-path="url(#clip1_15_6387)">
<g clip-path="url(#clip2_15_6387)">
<mask id="mask0_15_6387" style="mask-type:luminance" maskUnits="userSpaceOnUse" x="0" y="0" width="133" height="43">
<path d="M0.950012 0.439941H132.95V42.4399H0.950012V0.439941Z" fill="white"/>
</mask>
<g mask="url(#mask0_15_6387)">
<path d="M1.19601 18.091H20.53V10.851L1.19601 18.091Z" fill="#FF9D28"/>
<path d="M20.53 10.8499V36.4399L29.67 7.43994L20.53 10.8499Z" fill="#68C5ED"/>
<path d="M13.227 18.09L20.529 36.422V18.09H13.227Z" fill="#044D80"/>
<path d="M1.19601 18.09L15.107 22.792L13.227 18.09H1.19601Z" fill="#E54747"/>
<path d="M128.994 24.3849H128.624C128.501 24.3763 128.378 24.3763 128.255 24.3849C127.816 24.3849 127.377 24.4729 126.937 24.5429C126.532 24.5989 126.14 24.7229 125.777 24.9119C125.457 25.0839 125.176 25.3199 124.951 25.6059C124.72 25.9245 124.602 26.3115 124.617 26.7049C124.6 27.1639 124.75 27.6129 125.039 27.9699C125.224 28.161 125.449 28.3077 125.699 28.399C125.949 28.4903 126.216 28.5238 126.48 28.4969C126.813 28.4939 127.144 28.4439 127.464 28.3479C127.749 28.2709 128.022 28.1519 128.273 27.9959C128.476 27.8709 128.659 27.7169 128.818 27.5399C128.929 27.4119 128.997 27.2519 129.011 27.0829L128.994 24.3849ZM132.403 27.4689C132.325 28.5252 132.538 29.5828 133.018 30.5269C132.736 30.6481 132.442 30.7367 132.14 30.7909C131.85 30.8432 131.556 30.8726 131.261 30.8789C130.75 30.9109 130.242 30.7784 129.811 30.5009C129.471 30.2409 129.245 29.8609 129.178 29.4379C128.737 29.8894 128.208 30.2455 127.623 30.4839C126.881 30.7819 126.084 30.9222 125.285 30.8959C124.798 30.8969 124.313 30.832 123.844 30.7029C123.367 30.575 122.921 30.3507 122.534 30.0439C122.127 29.719 121.797 29.3077 121.568 28.8399C121.31 28.2629 121.184 27.6357 121.199 27.0039C121.172 26.2299 121.397 25.4681 121.84 24.8329C122.276 24.2654 122.839 23.8079 123.484 23.4969C124.157 23.1722 124.873 22.9446 125.61 22.8209C126.303 22.7054 127.001 22.626 127.702 22.5829C127.915 22.5699 128.13 22.5699 128.343 22.5829H128.906V22.0999C128.934 21.8312 128.899 21.5597 128.804 21.3067C128.71 21.0536 128.558 20.8258 128.361 20.6409C127.838 20.3079 127.221 20.1536 126.603 20.2009C125.906 20.1917 125.214 20.3174 124.564 20.5709C123.961 20.8269 123.374 21.1209 122.807 21.4499C122.559 21.1491 122.36 20.8109 122.218 20.4479C122.095 20.1943 122.02 19.9199 121.998 19.6389C122.008 19.4956 122.051 19.3565 122.122 19.2318C122.194 19.1072 122.293 19.0003 122.411 18.9189C122.757 18.6476 123.142 18.431 123.554 18.2769C124.093 18.0758 124.649 17.9229 125.215 17.8199C125.865 17.7049 126.523 17.6459 127.183 17.6439C128.001 17.6219 128.819 17.7196 129.609 17.9339C130.21 18.0939 130.765 18.3949 131.226 18.8139C131.644 19.2399 131.946 19.7659 132.104 20.3419C132.291 21.0419 132.38 21.7629 132.368 22.4869L132.403 27.4689ZM115.109 19.1989C115.235 19.0148 115.373 18.839 115.522 18.6729C115.714 18.4659 115.937 18.2879 116.181 18.1449C116.461 17.9889 116.755 17.8589 117.06 17.7589C117.381 17.6459 117.72 17.5919 118.061 17.5999C118.281 17.5999 118.501 17.5999 118.747 17.6439C118.971 17.6855 119.189 17.7533 119.397 17.8459C119.599 17.9229 119.773 18.0579 119.898 18.2329C120.032 18.4097 120.103 18.6261 120.1 18.8479C120.091 19.3078 119.992 19.7616 119.81 20.1839C119.646 20.6286 119.449 21.0604 119.221 21.4759C118.953 21.2506 118.658 21.0589 118.343 20.9049C118.003 20.7663 117.638 20.7002 117.271 20.7109C116.77 20.6909 116.28 20.8609 115.9 21.1859C115.723 21.3232 115.579 21.499 115.48 21.7C115.381 21.9009 115.329 22.1218 115.328 22.3459V30.9839H111.646V17.9519C111.752 17.9219 111.861 17.9069 111.971 17.9079H112.85C113.364 17.8938 113.874 18.0053 114.335 18.2329C114.527 18.3417 114.694 18.4893 114.826 18.6663C114.958 18.8433 115.051 19.0458 115.1 19.2609L115.109 19.1989ZM104.809 19.1989C104.936 19.0159 105.074 18.8389 105.222 18.6729C105.415 18.4659 105.637 18.288 105.881 18.1449C106.161 17.9889 106.456 17.8589 106.76 17.7589C107.082 17.6456 107.421 17.5918 107.762 17.5999C107.982 17.5999 108.201 17.5999 108.439 17.6439C108.666 17.6839 108.887 17.7519 109.098 17.8459C109.296 17.9279 109.469 18.0619 109.599 18.2329C109.733 18.4097 109.804 18.6261 109.801 18.8479C109.791 19.3079 109.693 19.7609 109.511 20.1839C109.347 20.6286 109.15 21.0604 108.922 21.4759C108.652 21.2524 108.357 21.0609 108.043 20.9049C107.703 20.7677 107.338 20.7016 106.971 20.7109C106.468 20.6927 105.976 20.862 105.591 21.1859C105.417 21.3253 105.276 21.5018 105.179 21.7025C105.082 21.9031 105.031 22.1229 105.029 22.3459V30.9839H101.4V17.9519C101.505 17.9219 101.615 17.9059 101.725 17.9079H102.595C103.112 17.8939 103.625 18.0054 104.089 18.2329C104.279 18.3437 104.445 18.492 104.576 18.6687C104.708 18.8453 104.802 19.0468 104.853 19.2609L104.809 19.1989ZM95.231 22.8909C95.261 22.1652 95.0841 21.4459 94.721 20.8169C94.5262 20.5382 94.2606 20.3163 93.9517 20.1741C93.6427 20.032 93.3015 19.9746 92.963 20.0079C92.6314 19.9942 92.3009 20.0559 91.9966 20.1884C91.6922 20.3209 91.4219 20.5208 91.206 20.7729C90.7324 21.3734 90.4974 22.1277 90.546 22.8909H95.231ZM94.001 28.2949C94.401 28.3029 94.801 28.2529 95.187 28.1449C95.4891 28.0534 95.7828 27.9363 96.065 27.7949C96.313 27.6649 96.549 27.5119 96.768 27.3369L97.296 26.8719C97.546 27.1969 97.772 27.5409 97.972 27.8999C98.172 28.2089 98.292 28.5619 98.324 28.9279C98.3091 29.1467 98.2413 29.3586 98.1263 29.5453C98.0113 29.7321 97.8527 29.8881 97.664 29.9999C97.1789 30.3412 96.6372 30.5941 96.064 30.7469C95.2827 30.9596 94.4757 31.0632 93.666 31.0549C92.8289 31.0536 91.9956 30.9413 91.188 30.7209C90.3596 30.5093 89.5932 30.1042 88.9518 29.5389C88.3103 28.9735 87.8121 28.2641 87.498 27.4689C87.0715 26.3905 86.8707 25.236 86.908 24.0769C86.8811 23.0878 87.0578 22.1038 87.427 21.1859C87.7415 20.4262 88.2116 19.7409 88.807 19.1739C89.3771 18.6528 90.0464 18.2521 90.775 17.9959C91.4945 17.7543 92.248 17.6294 93.007 17.6259C93.8761 17.6027 94.7407 17.7586 95.547 18.0839C96.197 18.3619 96.771 18.7899 97.225 19.3319C97.658 19.8449 97.978 20.4439 98.165 21.0889C98.365 21.7769 98.463 22.4909 98.455 23.2069V23.5849C98.468 23.7369 98.468 23.8899 98.455 24.0419V24.4989C98.469 24.6159 98.469 24.7339 98.455 24.8499H90.555C90.569 25.7529 90.878 26.6259 91.435 27.3369C91.757 27.6772 92.1519 27.9402 92.5901 28.1061C93.0283 28.272 93.4983 28.3366 93.965 28.2949H94.001ZM77.751 28.6469C77.6258 28.2862 77.5462 27.9113 77.514 27.5309C77.4923 27.1385 77.4923 26.7453 77.514 26.3529V13.9969C77.646 13.9839 77.778 13.9839 77.91 13.9969H78.718C79.013 13.9939 79.308 14.0239 79.597 14.0849C79.876 14.1249 80.139 14.2369 80.361 14.4099C80.601 14.5799 80.798 14.8069 80.933 15.0699C81.047 15.3809 81.098 15.7129 81.082 16.0449V17.9429H84.817V20.6409H81.1V26.3269C81.1 27.5749 81.6 28.1809 82.61 28.1809C82.846 28.1779 83.08 28.1429 83.305 28.0759C83.508 27.9959 83.707 27.9079 83.903 27.8119C84.085 27.7219 84.253 27.6059 84.403 27.4689L84.685 27.2319C84.915 27.5499 85.12 27.8849 85.3 28.2339C85.432 28.4839 85.507 28.7599 85.52 29.0419C85.5187 29.1683 85.4924 29.2932 85.4427 29.4094C85.3929 29.5256 85.3206 29.6308 85.23 29.7189C85.007 29.9689 84.743 30.1759 84.448 30.3339C84.064 30.5499 83.648 30.7039 83.218 30.7909C82.702 30.9109 82.174 30.9709 81.644 30.9669C80.7424 31.0138 79.847 30.7936 79.07 30.3339C78.4955 29.8944 78.0541 29.3042 77.795 28.6289L77.751 28.6469ZM71.221 24.0509C71.2238 23.5529 71.18 23.0557 71.09 22.5659C71.0079 22.1438 70.8594 21.7374 70.65 21.3619C70.4469 21.0314 70.1589 20.7613 69.816 20.5799C69.4278 20.3711 68.9904 20.2709 68.55 20.2899C67.998 20.24 67.4464 20.3893 66.995 20.7109C66.8629 20.8298 66.7565 20.9746 66.6826 21.1363C66.6086 21.298 66.5686 21.4731 66.565 21.6509V27.3109C66.785 27.5239 67.045 27.6939 67.329 27.8119C67.719 28.0159 68.155 28.1149 68.594 28.1019C68.992 28.1255 69.3887 28.0377 69.7395 27.8484C70.0903 27.659 70.3814 27.3756 70.58 27.0299C71.0564 26.1121 71.2771 25.0834 71.221 24.0509ZM66.406 19.1299C66.7807 18.7187 67.2197 18.3711 67.706 18.1009C68.4073 17.7339 69.192 17.5554 69.983 17.5829C70.624 17.5786 71.2607 17.6887 71.863 17.9079C72.463 18.1399 73.001 18.5069 73.437 18.9799C73.939 19.5499 74.311 20.2209 74.527 20.9489C74.837 21.9189 74.984 22.9349 74.957 23.9539C74.9914 25.1184 74.8277 26.2802 74.473 27.3899C74.2231 28.1755 73.8066 28.898 73.252 29.5079C72.7867 30.009 72.2083 30.3917 71.565 30.6239C70.9676 30.8408 70.3375 30.9537 69.702 30.9579C69.2537 30.9601 68.8072 30.9009 68.375 30.7819C68.0393 30.6858 67.715 30.5534 67.408 30.3869C67.1873 30.2743 66.9808 30.1356 66.793 29.9739C66.6971 29.8874 66.6115 29.7901 66.538 29.6839V36.2569H62.9V17.9699C63.01 17.9579 63.123 17.9579 63.234 17.9699C63.339 17.9699 63.471 17.9699 63.603 17.9259H64.103C64.6215 17.9065 65.1379 18.0021 65.615 18.2059C65.8093 18.3007 65.9793 18.4388 66.1119 18.6096C66.2445 18.7803 66.3362 18.9792 66.38 19.1909L66.406 19.1299ZM56.37 24.4019H56C55.8745 24.3931 55.7485 24.3931 55.623 24.4019C55.183 24.4019 54.745 24.4899 54.313 24.5609C53.9076 24.6144 53.5148 24.7393 53.153 24.9299C52.831 25.0999 52.546 25.3369 52.319 25.6239C52.0959 25.9456 51.982 26.3305 51.994 26.7219C51.978 27.1799 52.124 27.6279 52.407 27.9879C52.5927 28.1802 52.8199 28.3276 53.0711 28.419C53.3224 28.5103 53.5912 28.5431 53.857 28.5149C54.174 28.5019 54.487 28.4449 54.789 28.3479C55.0752 28.2738 55.3479 28.155 55.597 27.9959C55.803 27.8759 55.987 27.7209 56.142 27.5399C56.2554 27.4124 56.3261 27.2526 56.344 27.0829L56.37 24.4019ZM59.798 27.4689C59.7153 28.5255 59.9283 29.5844 60.413 30.5269C60.131 30.6469 59.836 30.7359 59.533 30.7909C59.243 30.8429 58.95 30.8719 58.655 30.8789C58.1288 30.9225 57.6031 30.7895 57.161 30.5009C56.8221 30.2405 56.5959 29.8601 56.529 29.4379C56.0873 29.8892 55.5577 30.2452 54.973 30.4839C54.2307 30.7808 53.4351 30.9211 52.636 30.8959C52.1488 30.8972 51.6637 30.8323 51.194 30.7029C50.7151 30.5733 50.267 30.3493 49.876 30.0439C49.4717 29.7182 49.1445 29.307 48.918 28.8399C48.6536 28.2647 48.5243 27.6367 48.54 27.0039C48.5114 26.2284 48.74 25.4651 49.19 24.8329C49.627 24.2659 50.19 23.8079 50.834 23.4969C51.5039 23.1709 52.2172 22.9433 52.952 22.8209C53.6474 22.7054 54.3484 22.626 55.052 22.5829C55.262 22.5699 55.474 22.5699 55.685 22.5829H56.283V22.0999C56.3104 21.8312 56.2755 21.5598 56.181 21.3067C56.0865 21.0537 55.9349 20.8258 55.738 20.6409C55.2138 20.3107 54.5979 20.1566 53.98 20.2009C53.2858 20.1924 52.5966 20.3181 51.95 20.5709C51.345 20.8239 50.758 21.1169 50.193 21.4499C49.9393 21.1515 49.7372 20.8128 49.595 20.4479C49.4549 20.1706 49.3684 19.8693 49.34 19.5599C49.3509 19.4157 49.3946 19.2759 49.4677 19.1511C49.5409 19.0263 49.6415 18.9199 49.762 18.8399C50.1033 18.5667 50.4861 18.3499 50.896 18.1979C51.4351 17.9978 51.9905 17.8449 52.556 17.7409C53.206 17.6259 53.866 17.5679 54.526 17.5649C55.3442 17.5419 56.1613 17.6396 56.951 17.8549C57.5542 18.0167 58.1109 18.3181 58.576 18.7349C58.994 19.1609 59.296 19.6869 59.456 20.2629C59.642 20.9629 59.73 21.6829 59.719 22.4069L59.798 27.4689ZM46.106 29.4989C45.9438 29.6479 45.7673 29.7805 45.579 29.8949C45.275 30.0849 44.954 30.2449 44.621 30.3779C44.145 30.5579 43.654 30.6959 43.153 30.7909C42.503 30.9099 41.845 30.9689 41.185 30.9669C39.9138 30.9849 38.6513 30.7549 37.468 30.2899C36.4661 29.8545 35.5809 29.1892 34.884 28.3479C34.2068 27.4943 33.7132 26.5101 33.434 25.4569C33.0997 24.2524 32.9371 23.0068 32.951 21.7569C32.9392 20.4985 33.1168 19.2454 33.478 18.0399C33.792 16.9606 34.3213 15.9561 35.034 15.0869C35.7317 14.2449 36.6161 13.5772 37.617 13.1369C38.7706 12.6525 40.0131 12.4157 41.264 12.4419C41.8807 12.4397 42.496 12.4986 43.101 12.6179C43.597 12.7269 44.084 12.8709 44.56 13.0479C44.919 13.1889 45.263 13.3659 45.588 13.5759C45.807 13.7119 46.013 13.8679 46.203 14.0409C46.373 14.1769 46.515 14.3479 46.616 14.5419C46.73 14.7339 46.791 14.9519 46.792 15.1749C46.777 15.5569 46.638 15.9249 46.396 16.2209C46.1366 16.5771 45.8425 16.9067 45.518 17.2049C45.298 16.9849 45.061 16.7749 44.797 16.5549C44.5238 16.3275 44.2291 16.1272 43.917 15.9569C43.5596 15.7836 43.1861 15.6453 42.802 15.5439C42.3456 15.4269 41.8762 15.3678 41.405 15.3679C40.6624 15.3345 39.9242 15.4992 39.2663 15.8452C38.6084 16.1912 38.0543 16.7061 37.661 17.3369C37.2815 17.9498 37.014 18.6253 36.871 19.3319C36.7153 20.0864 36.6356 20.8545 36.633 21.6249C36.633 22.4249 36.713 23.2229 36.87 24.0069C37.027 24.7289 37.326 25.4129 37.749 26.0189C38.1125 26.6149 38.6166 27.1128 39.217 27.4689C39.9399 27.8358 40.7438 28.0144 41.554 27.9879C42.014 27.9919 42.472 27.9319 42.916 27.8119C43.286 27.6819 43.643 27.5139 43.98 27.3119C44.286 27.1519 44.58 26.9699 44.858 26.7659L45.448 26.2659C45.553 26.3969 45.667 26.5459 45.816 26.7219C45.966 26.8909 46.098 27.0729 46.212 27.2669C46.344 27.4689 46.432 27.6629 46.537 27.8559C46.593 28.0139 46.62 28.1809 46.616 28.3479C46.6212 28.5521 46.5759 28.7544 46.484 28.9369C46.366 29.1269 46.227 29.3039 46.071 29.4639L46.106 29.4989Z" fill="#044D80"/>
</g>
</g>
</g>
</g>
<defs>
<clipPath id="clip0_15_6387">
<rect width="132" height="42" fill="white" transform="translate(0.950012 0.439941)"/>
</clipPath>
<clipPath id="clip1_15_6387">
<rect width="132" height="42" fill="white" transform="translate(0.950012 0.439941)"/>
</clipPath>
<clipPath id="clip2_15_6387">
<rect width="132" height="42" fill="white" transform="translate(0.950012 0.439941)"/>
</clipPath>
</defs>
</svg>
