<svg width="88" height="43" viewBox="0 0 88 43" fill="none" xmlns="http://www.w3.org/2000/svg">
<g clip-path="url(#clip0_15_6377)">
<g clip-path="url(#clip1_15_6377)">
<g clip-path="url(#clip2_15_6377)">
<path d="M86.595 18.0529L86.345 21.0449H85.125C83.175 21.0449 82.16 22.6079 82.16 24.1069V30.8629H78.703V18.0529H81.977L82.051 19.6529C82.738 18.5559 83.941 18.0529 85.423 18.0529H86.595ZM62.63 30.8629H59.17V24.0899C59.17 22.6719 59.047 20.8869 57.053 20.8869C55.133 20.8869 54.366 22.2729 54.366 23.8869V30.8609H50.908V18.0539H54.114L54.188 19.6919C54.875 18.5959 56.155 17.7419 58.043 17.7419C61.529 17.7419 62.63 20.2319 62.63 22.8219V30.8629ZM49.4 27.8699L49.157 30.7849C48.327 31.0069 47.591 31.0869 46.7 31.0869C43.44 31.0869 42.494 29.5919 42.494 26.5869V14.4419H45.954V18.0549H49.396L49.157 21.0449H45.954V26.3289C45.954 27.5339 46.284 28.1859 47.521 28.1859C48.059 28.1859 48.658 28.1199 49.4 27.8699ZM41.36 18.0529L41.09 21.0449H40.15C38.204 21.0449 37.236 22.6059 37.236 24.1069V30.8629H33.776V18.0529H37.052L37.12 19.6529C37.81 18.5559 39.013 18.0529 40.497 18.0529H41.36ZM18.163 29.4429C15.817 30.6989 13.473 31.4229 10.377 31.3329C4.63699 31.1579 0.496986 27.5929 0.496986 21.5739C0.496986 15.5809 4.67699 11.7509 10.38 11.6609C13.27 11.6169 15.857 12.3509 17.878 14.1349L15.443 16.5979C14.193 15.5319 12.351 14.9079 10.153 15.0079C6.56299 15.1749 4.40099 17.7829 4.35299 21.3679C4.30599 25.2529 6.68799 27.9309 10.413 28.0279C12.164 28.0719 13.42 27.8379 14.506 27.3489V23.3789H10.636L10.896 20.1209H18.163V29.4429ZM77.159 25.6749H67.674C67.944 27.3119 69.23 28.2969 70.834 28.3409C72.39 28.3839 73.262 27.9129 74.401 26.7589L76.659 28.4809C75.054 30.4559 73.129 31.1759 70.936 31.1759C67.079 31.1759 64.189 28.4779 64.189 24.4579C64.189 20.4409 67.065 17.7409 70.792 17.7409C74.9 17.7409 77.159 20.2309 77.159 24.6479V25.6749ZM73.693 22.9969C73.587 21.3789 72.374 20.3569 70.705 20.4209C69.025 20.4849 67.905 21.5789 67.675 22.9969H73.693ZM31.598 22.4749V30.8619H28.548L28.47 29.5999C27.534 30.7599 26.015 31.1769 24.45 31.1769C22.095 31.1769 19.87 30.0149 19.823 27.3099C19.753 23.0579 24.608 22.7559 27.658 22.7559H28.268V22.5879C28.268 21.1819 27.338 20.4219 25.585 20.4219C24.3149 20.431 23.0948 20.9184 22.168 21.7869L20.172 19.7589C21.984 18.2899 23.87 17.7419 25.879 17.7419C29.846 17.7419 31.596 19.5759 31.596 22.4759L31.598 22.4749ZM28.269 25.2769H27.789C26.15 25.2799 23.273 25.3609 23.284 27.0729C23.3 29.4859 28.269 28.7189 28.269 25.8089V25.2769Z" fill="#182954"/>
</g>
</g>
</g>
<defs>
<clipPath id="clip0_15_6377">
<rect width="87" height="42" fill="white" transform="translate(0.169983 0.439941)"/>
</clipPath>
<clipPath id="clip1_15_6377">
<rect width="87" height="42" fill="white" transform="translate(0.169983 0.439941)"/>
</clipPath>
<clipPath id="clip2_15_6377">
<rect width="87" height="42" fill="white" transform="translate(0.169983 0.439941)"/>
</clipPath>
</defs>
</svg>
