<svg width="139" height="43" viewBox="0 0 139 43" fill="none" xmlns="http://www.w3.org/2000/svg">
<g clip-path="url(#clip0_15_6381)">
<g clip-path="url(#clip1_15_6381)">
<g clip-path="url(#clip2_15_6381)">
<path d="M36.705 16.4099H50.63V19.0099H45.155V33.6139H42.144V19.0099H36.693V16.4099H36.705ZM50.035 21.1579H52.609V23.5619H52.658C52.743 23.2219 52.9 22.8939 53.131 22.5779C53.361 22.2619 53.641 21.9589 53.969 21.7039C54.301 21.4389 54.669 21.2219 55.062 21.0609C55.462 20.9029 55.875 20.8179 56.288 20.8179C56.603 20.8179 56.834 20.8299 56.955 20.8419C57.077 20.8539 57.198 20.8779 57.332 20.8919V23.5369C57.1347 23.5018 56.9362 23.4735 56.737 23.4519C56.5395 23.4282 56.3409 23.4162 56.142 23.4159C55.681 23.4159 55.244 23.5129 54.831 23.6959C54.4178 23.8831 54.0521 24.161 53.761 24.5089C53.439 24.9049 53.191 25.3579 53.034 25.8439C52.852 26.3779 52.767 26.9849 52.767 27.6769V33.6019H50.023V21.1579H50.035ZM69.945 33.6139H67.25V31.8779H67.2C66.86 32.5089 66.363 33.0079 65.696 33.3829C65.028 33.7599 64.348 33.9529 63.656 33.9529C62.016 33.9529 60.826 33.5529 60.099 32.7399C59.369 31.9259 59.006 30.6999 59.006 29.0609V21.1579H61.75V28.7939C61.75 29.8869 61.956 30.6639 62.38 31.1139C62.794 31.5639 63.389 31.7939 64.14 31.7939C64.724 31.7939 65.198 31.7079 65.586 31.5259C65.975 31.3439 66.291 31.1129 66.521 30.8089C66.764 30.5189 66.934 30.1539 67.043 29.7409C67.153 29.3279 67.201 28.8789 67.201 28.3929V21.1699H69.945V33.6139ZM74.62 29.6199C74.705 30.4199 75.008 30.9799 75.53 31.3069C76.065 31.6229 76.696 31.7929 77.437 31.7929C77.692 31.7929 77.983 31.7679 78.311 31.7329C78.639 31.6959 78.954 31.6109 79.233 31.5009C79.525 31.3919 79.755 31.2219 79.95 31.0039C80.132 30.7849 80.217 30.5059 80.205 30.1539C80.2034 29.991 80.1679 29.8303 80.1008 29.6818C80.0336 29.5334 79.9363 29.4006 79.815 29.2919C79.573 29.0619 79.27 28.8919 78.894 28.7449C78.474 28.5968 78.0439 28.4792 77.607 28.3929C77.121 28.2959 76.635 28.1869 76.137 28.0779C75.627 27.9679 75.13 27.8229 74.657 27.6649C74.1998 27.5155 73.7694 27.2941 73.382 27.0089C73.002 26.7388 72.6931 26.3806 72.482 25.9649C72.252 25.5399 72.142 25.0179 72.142 24.3869C72.142 23.7069 72.312 23.1489 72.641 22.6869C72.9701 22.2303 73.3972 21.8531 73.891 21.5829C74.4195 21.2984 74.9889 21.0977 75.579 20.9879C76.199 20.8779 76.793 20.8179 77.352 20.8179C77.995 20.8179 78.614 20.8909 79.197 21.0239C79.763 21.1479 80.302 21.3739 80.787 21.6919C81.261 21.9949 81.649 22.3959 81.965 22.8819C82.281 23.3669 82.475 23.9619 82.56 24.6539H79.695C79.561 23.9989 79.27 23.5489 78.795 23.3309C78.323 23.1009 77.775 22.9909 77.169 22.9909C76.975 22.9909 76.745 23.0029 76.478 23.0409C76.2213 23.0746 75.9689 23.1353 75.725 23.2219C75.495 23.3069 75.3 23.4399 75.13 23.6099C74.9647 23.7922 74.8774 24.032 74.887 24.2779C74.887 24.6179 75.007 24.8849 75.239 25.0909C75.469 25.2979 75.773 25.4679 76.149 25.6129C76.5692 25.7613 76.9997 25.8789 77.437 25.9649C77.922 26.0629 78.42 26.1719 78.93 26.2809C79.428 26.3909 79.913 26.5359 80.399 26.6939C80.885 26.8519 81.309 27.0699 81.686 27.3489C82.062 27.6289 82.366 27.9689 82.596 28.3809C82.826 28.7939 82.948 29.3159 82.948 29.9229C82.948 30.6629 82.778 31.2829 82.438 31.8049C82.098 32.3149 81.662 32.7399 81.128 33.0549C80.5698 33.3829 79.9633 33.6208 79.331 33.7599C78.6892 33.9037 78.0337 33.9768 77.376 33.9779C76.586 33.9779 75.858 33.8929 75.191 33.7109C74.5688 33.5502 73.9805 33.2793 73.454 32.9109C72.973 32.5538 72.5788 32.0927 72.301 31.5619C72.021 31.0279 71.876 30.3849 71.851 29.6439H74.62V29.6199ZM83.677 21.1579H85.753V17.4179H88.497V21.1579H90.973V23.2089H88.497V29.8629C88.497 30.1529 88.509 30.3969 88.533 30.6149C88.557 30.8219 88.618 31.0049 88.703 31.1489C88.7951 31.3006 88.9362 31.4163 89.103 31.4769C89.286 31.5499 89.516 31.5869 89.833 31.5869C90.026 31.5869 90.221 31.5869 90.415 31.5739C90.6115 31.5637 90.8067 31.5352 90.998 31.4889V33.6139C90.694 33.6499 90.391 33.6739 90.111 33.7109C89.817 33.7461 89.5211 33.7628 89.225 33.7609C88.497 33.7609 87.914 33.6869 87.477 33.5529C87.04 33.4199 86.687 33.2129 86.445 32.9459C86.19 32.6789 86.032 32.3509 85.935 31.9509C85.8402 31.4994 85.7873 31.0401 85.777 30.5789V23.2339H83.7V21.1579H83.677ZM92.916 21.1579H95.514V22.8449H95.563C95.951 22.1169 96.485 21.6069 97.177 21.2909C97.8824 20.9718 98.6488 20.8104 99.423 20.8179C100.407 20.8179 101.256 20.9879 101.985 21.3399C102.713 21.6799 103.32 22.1529 103.806 22.7599C104.292 23.3669 104.644 24.0709 104.886 24.8729C105.129 25.6739 105.251 26.5359 105.251 27.4459C105.251 28.2839 105.141 29.0979 104.923 29.8759C104.722 30.6244 104.389 31.3312 103.94 31.9629C103.5 32.5675 102.927 33.0621 102.264 33.4079C101.584 33.7719 100.795 33.9539 99.872 33.9539C99.472 33.9539 99.072 33.9169 98.671 33.8439C98.274 33.7715 97.8868 33.6534 97.517 33.4919C97.149 33.3357 96.8055 33.1272 96.497 32.8729C96.1903 32.6239 95.9239 32.3291 95.707 31.9989H95.66V38.2149H92.916V21.1579ZM102.507 27.3979C102.508 26.8442 102.434 26.293 102.288 25.7589C102.154 25.2546 101.933 24.7779 101.633 24.3509C101.35 23.9474 100.981 23.6114 100.553 23.3669C100.096 23.115 99.5811 22.9854 99.059 22.9909C97.906 22.9909 97.032 23.3909 96.449 24.1929C95.866 24.9939 95.575 26.0629 95.575 27.3979C95.575 28.0289 95.648 28.6119 95.805 29.1459C95.963 29.6799 96.182 30.1419 96.497 30.5299C96.801 30.9199 97.165 31.2219 97.59 31.4399C98.015 31.6709 98.513 31.7799 99.07 31.7799C99.702 31.7799 100.225 31.6469 100.662 31.3919C101.086 31.1419 101.451 30.8029 101.73 30.3969C102.009 29.9839 102.216 29.5219 102.337 29.0009C102.446 28.4779 102.507 27.9439 102.507 27.3979ZM107.351 16.4109H110.095V19.0089H107.351V16.4109ZM107.351 21.1579H110.095V33.6139H107.351V21.1579ZM112.547 16.4109H115.291V33.6139H112.547V16.4109ZM123.704 33.9539C122.709 33.9539 121.823 33.7839 121.046 33.4559C120.3 33.144 119.626 32.681 119.067 32.0959C118.52 31.4955 118.102 30.7888 117.84 30.0199C117.551 29.168 117.408 28.2735 117.416 27.3739C117.416 26.4269 117.561 25.5539 117.84 24.7509C118.102 23.982 118.52 23.2754 119.067 22.6749C119.601 22.0929 120.269 21.6429 121.046 21.3149C121.823 20.9879 122.709 20.8179 123.704 20.8179C124.7 20.8179 125.586 20.9879 126.363 21.3149C127.109 21.6273 127.783 22.0903 128.342 22.6749C128.889 23.2753 129.306 23.982 129.568 24.7509C129.847 25.5529 129.993 26.4269 129.993 27.3739C130.001 28.2739 129.857 29.1679 129.568 30.0199C129.306 30.7887 128.889 31.4954 128.342 32.0959C127.808 32.6789 127.14 33.1279 126.363 33.4559C125.586 33.7839 124.7 33.9539 123.704 33.9539ZM123.704 31.7809C124.311 31.7809 124.846 31.6469 125.295 31.3919C125.734 31.1419 126.111 30.7979 126.4 30.3839C126.691 29.9719 126.897 29.4979 127.043 28.9759C127.179 28.4527 127.248 27.9145 127.249 27.3739C127.247 26.8374 127.177 26.3033 127.043 25.7839C126.918 25.2781 126.7 24.7999 126.4 24.3739C126.11 23.9639 125.733 23.6239 125.295 23.3789C124.846 23.1239 124.311 22.9909 123.704 22.9909C123.097 22.9909 122.563 23.1239 122.114 23.3789C121.678 23.6275 121.301 23.9672 121.009 24.3749C120.713 24.8024 120.495 25.2792 120.366 25.7829C120.231 26.3023 120.162 26.8364 120.159 27.3729C120.159 27.9199 120.232 28.4539 120.366 28.9759C120.499 29.4979 120.718 29.9719 121.009 30.3859C121.298 30.799 121.676 31.1427 122.114 31.3919C122.563 31.6589 123.097 31.7809 123.704 31.7809ZM130.794 21.1579H132.871V17.4179H135.614V21.1579H138.091V23.2089H135.614V29.8629C135.614 30.1529 135.626 30.3969 135.651 30.6149C135.675 30.8219 135.736 31.0049 135.821 31.1489C135.913 31.3007 136.054 31.4165 136.221 31.4769C136.403 31.5499 136.634 31.5869 136.95 31.5869C137.144 31.5869 137.338 31.5869 137.532 31.5739C137.727 31.5619 137.921 31.5379 138.115 31.4889V33.6139C137.812 33.6499 137.508 33.6739 137.229 33.7109C136.935 33.7459 136.639 33.7619 136.343 33.7609C135.614 33.7609 135.032 33.6869 134.594 33.5529C134.157 33.4199 133.805 33.2129 133.563 32.9459C133.308 32.6789 133.15 32.3509 133.053 31.9509C132.958 31.4995 132.905 31.0402 132.895 30.5789V23.2339H130.819V21.1579H130.794Z" fill="#191919"/>
<path d="M33.497 16.4099H20.92L17.035 4.43994L13.138 16.4099L0.559998 16.3999L10.746 23.8049L6.849 35.7639L17.035 28.3699L27.209 35.7639L23.324 23.8049L33.497 16.4119V16.4099Z" fill="#00B67A"/>
<path d="M24.2 26.512L23.325 23.804L17.037 28.369L24.2 26.512Z" fill="#005128"/>
</g>
</g>
</g>
<defs>
<clipPath id="clip0_15_6381">
<rect width="138" height="42" fill="white" transform="translate(0.559998 0.439941)"/>
</clipPath>
<clipPath id="clip1_15_6381">
<rect width="138" height="42" fill="white" transform="translate(0.559998 0.439941)"/>
</clipPath>
<clipPath id="clip2_15_6381">
<rect width="138" height="42" fill="white" transform="translate(0.559998 0.439941)"/>
</clipPath>
</defs>
</svg>
