<svg width="92" height="92" viewBox="0 0 92 92" fill="none" xmlns="http://www.w3.org/2000/svg">
<g clip-path="url(#clip0_15_6184)">
<g clip-path="url(#clip1_15_6184)">
<g clip-path="url(#clip2_15_6184)">
<mask id="mask0_15_6184" style="mask-type:luminance" maskUnits="userSpaceOnUse" x="13" y="13" width="66" height="66">
<path d="M42.1921 13.4189L78.396 49.6228L49.5144 78.5044L13.3105 42.3005L42.1921 13.4189Z" fill="white"/>
</mask>
<g mask="url(#mask0_15_6184)">
<g style="mix-blend-mode:multiply">
<path d="M42.2329 19.8052L21.4057 48.9312L47.6431 75.6574L73.9619 52.9987L55.8605 52.2262L60.0909 34.6529L44.1444 39.5345L42.2329 19.8052Z" fill="#AFE8D9"/>
<path d="M42.2329 19.8052L21.4057 48.9312L47.6431 75.6574L73.9619 52.9987L55.8605 52.2262L60.0909 34.6529L44.1444 39.5345L42.2329 19.8052Z" stroke="#AFE8D9" stroke-width="0.512" stroke-miterlimit="10"/>
</g>
<path d="M20.1444 44.3347C23.1543 40.9175 26.1647 37.5813 28.8904 33.9614C31.6156 30.341 34.2191 26.5989 36.8226 22.8559C37.5273 21.8254 38.2464 20.7814 38.9786 19.7242C39.3447 19.1952 39.7108 18.6662 40.0765 18.0561C40.4023 17.6488 40.524 17.1207 40.8494 16.7139C40.5507 16.6867 40.2665 16.646 39.9955 16.5921C40.0769 16.8365 40.0362 17.3642 40.0362 17.6086C40.0905 17.9887 40.1579 18.382 40.2394 18.7884L40.6462 21.4733C40.9721 23.3442 41.3377 25.1752 41.6224 27.0863C41.9516 28.891 42.1959 30.7101 42.3546 32.5377C42.4365 33.3518 42.4768 34.2058 42.6397 35.0195C42.7207 35.4263 42.8836 35.8327 42.8433 36.1988C42.8026 36.5654 42.7207 36.8093 42.9646 37.1347C43.3312 37.7447 44.3073 37.1749 43.9417 36.5649C43.9009 36.5242 43.9824 36.1983 43.982 36.1173C43.982 35.9001 43.9684 35.6965 43.9417 35.5069C43.8598 35.1815 43.7376 34.8158 43.6973 34.4497C43.5348 33.5541 43.4941 32.7006 43.4126 31.8055C43.2909 29.9749 42.9651 28.1855 42.68 26.3545C42.3546 24.5647 42.0292 22.6934 41.6636 20.8633L41.2567 18.1783C41.2024 17.7982 41.1612 17.4049 41.135 16.9985C41.135 16.6727 41.1345 16.3473 40.9716 16.0224C40.768 15.7373 40.3208 15.616 40.0769 15.9405C39.7918 16.2256 39.5886 16.5917 39.4262 16.9985C39.1818 17.4873 38.8568 17.8937 38.5315 18.382C37.8802 19.3038 37.229 20.2528 36.5787 21.229C35.2772 23.0735 33.9888 24.9041 32.7144 26.7206C30.0697 30.5039 27.4259 34.2058 24.4563 37.6632C22.7887 39.6567 21.0803 41.6095 19.3715 43.5618C18.8836 44.1311 19.6566 44.904 20.1444 44.3347Z" fill="black"/>
<path d="M43.982 36.2803C43.7919 36.6333 43.7924 36.8229 43.982 36.8505L44.0634 36.769C44.1042 36.8097 44.2666 36.7278 44.3074 36.6871C44.4703 36.6328 44.6332 36.6056 44.7961 36.6056C45.4872 36.4025 46.1786 36.1988 46.8294 36.0359C48.4568 35.548 50.0837 35.1412 51.7106 34.7344C53.2565 34.328 54.8431 34.0429 56.3483 33.6772C57.081 33.5138 57.7313 33.3514 58.4635 33.107C58.7486 32.9848 59.4804 32.5789 59.8058 32.7413C59.7243 32.5513 59.6293 32.3476 59.5211 32.1308C59.1957 33.5143 58.7079 34.8158 58.3413 36.1581C57.8539 37.5415 57.5688 38.9652 57.243 40.3482C56.8773 41.6905 56.4293 43.0327 56.1039 44.4162C55.8864 45.1241 55.7099 45.8439 55.5754 46.5721C55.4536 47.1826 55.2907 47.7519 55.25 48.3619C55.25 49.0942 56.389 49.0937 56.389 48.3615C56.389 48.3072 56.4026 48.2393 56.4298 48.1578C56.4293 47.4261 55.3314 47.4668 55.2903 48.1588C55.2903 48.2131 55.2771 48.2805 55.25 48.3619L56.389 48.3615C56.4293 47.751 56.633 47.1419 56.7144 46.5717C56.8746 45.8762 57.0509 45.1845 57.243 44.4972C57.6096 43.1549 58.016 41.7719 58.3821 40.4292C58.6587 39.0987 58.998 37.782 59.3989 36.4835C59.8062 35.1005 60.2941 33.7989 60.6195 32.4155C60.7009 32.1711 60.6195 31.9277 60.3348 31.805C59.8062 31.4394 59.1953 31.643 58.5857 31.8462C57.8256 32.1176 57.0515 32.3484 56.2669 32.5377C54.3956 33.026 52.4836 33.3921 50.572 33.8392C48.5785 34.3682 46.6262 34.9376 44.6327 35.4666C43.9005 35.6295 42.3551 36.0363 43.1683 37.0939C43.6159 37.7044 44.4295 36.8908 43.982 36.2803Z" fill="black"/>
<path d="M55.5753 48.3615C56.8773 48.9312 58.2603 49.0127 59.6429 49.2566L64.1588 49.8671L68.5522 50.5178C69.2441 50.6405 69.9352 50.7622 70.5859 50.9251C70.8846 51.0066 71.1964 51.074 71.5218 51.1279C71.8476 51.1279 72.173 51.1283 72.4979 51.2913C72.4165 51.0469 72.3486 50.7889 72.2947 50.5178C71.6847 51.3723 70.8303 52.0638 70.0573 52.7552C69.2419 53.5161 68.4006 54.2488 67.5348 54.9519C65.8672 56.2946 64.1186 57.6369 62.4912 59.1013C60.8638 60.5658 59.2365 61.9488 57.4878 63.291C55.8197 64.5518 54.2738 66.0163 52.7279 67.4807C51.8735 68.3351 50.9788 69.1484 50.0027 69.881C49.5958 70.125 49.1483 70.4096 48.7414 70.735C48.5378 70.9386 48.3346 71.0604 48.0911 71.2233C47.8875 71.3455 47.7245 71.5899 47.5213 71.7116H48.0916C48.0322 71.6961 47.9767 71.6683 47.9286 71.6301C47.3589 71.2233 46.7891 72.1994 47.3589 72.6072C47.386 72.6343 47.4399 72.661 47.5213 72.6882C47.6435 72.8104 47.8879 72.8104 48.0504 72.7285C48.2947 72.5656 48.3758 72.4031 48.5789 72.1999L49.0677 71.9555C49.5148 71.6713 49.8809 71.3052 50.3285 71.0206C51.1531 70.4148 51.9535 69.7769 52.7279 69.1081C54.3145 67.6029 55.8605 66.057 57.5693 64.674C59.2776 63.2915 61.067 61.9085 62.7351 60.4033C64.3625 58.9389 66.0713 57.5559 67.8199 56.1322C68.7965 55.3185 69.8139 54.5455 70.7896 53.6504C71.6033 52.8367 72.5794 52.0235 73.2709 51.0876C73.4338 50.8432 73.3116 50.4767 73.0677 50.3142C72.5391 50.03 71.9282 50.0707 71.3589 49.9078C70.7077 49.8268 70.0166 49.6236 69.3251 49.5014C67.9014 49.2163 66.3555 49.0534 64.8508 48.8502C63.3859 48.6063 61.9214 48.4434 60.4574 48.1994C59.074 48.037 57.4471 47.9551 56.1048 47.4265C55.4943 47.1418 54.9246 48.118 55.5763 48.3624L55.5753 48.3615Z" fill="black"/>
<path d="M20.3069 45.3108C21.202 46.206 22.0153 47.1821 22.829 48.0773C23.7644 49.0127 24.7002 49.8671 25.6764 50.7618C27.5069 52.5109 29.256 54.3414 31.1273 56.0498C32.9991 57.6772 34.8699 59.3036 36.6602 61.0939C37.4734 61.9886 38.4907 62.6801 39.3452 63.5345C39.752 63.9414 40.1177 64.3885 40.4838 64.836C40.8911 65.3248 41.3382 65.7719 41.7857 66.2195C42.7212 67.2364 43.4529 68.3754 44.3888 69.3928C44.8767 69.8806 45.4057 70.3282 45.8125 70.8979C46.1782 71.4265 46.6258 71.8741 47.0733 72.3216C47.6019 72.8502 48.3753 72.0768 47.8467 71.5482C47.033 70.6531 46.1791 69.7177 45.2025 68.9855C44.1856 68.213 43.2497 67.44 42.3143 66.5046C41.907 66.0973 41.4599 65.6502 41.0938 65.2026C40.7684 64.7143 40.4023 64.2667 39.9547 63.9006C39.0193 63.0467 38.1649 62.1108 37.3109 61.2568L31.6564 55.6022C30.7617 54.7076 29.7851 53.8124 28.8904 52.8363C28.036 51.9819 27.3449 50.965 26.6127 50.0698C26.2054 49.5005 25.7176 49.0127 25.3515 48.4837C25.0261 47.9139 24.66 47.3849 24.2124 46.8567C23.358 45.758 22.1782 44.7411 21.1613 43.7242C20.6735 43.2364 19.8598 44.05 20.3476 44.5379C21.2835 45.4738 22.3004 46.4092 23.1951 47.3853C24.0087 48.199 24.4563 49.2973 25.1885 50.1925C26.0018 51.0872 26.6933 52.023 27.4255 52.9182C28.1984 53.9346 29.2158 54.789 30.1512 55.7244C32.0632 57.555 33.8938 59.467 35.765 61.3383L38.4496 64.0228C38.8569 64.4301 39.3854 64.7958 39.7515 65.2433C40.1177 65.6909 40.4426 66.1788 40.8494 66.6671C41.7853 67.6844 42.8022 68.7013 43.9005 69.4738C45.0803 70.3277 46.0564 71.3048 47.0733 72.3216L47.8467 71.5482C47.4399 71.1414 47.0326 70.735 46.7072 70.2467C46.3818 69.8399 46.0565 69.433 45.6496 69.0262C44.7549 68.1315 44.0634 67.1142 43.2502 66.138C42.4365 65.2429 41.5821 64.3885 40.8091 63.4535C39.9955 62.4769 38.9786 61.7859 38.0427 60.9315C37.148 60.0368 36.3344 59.1416 35.3985 58.2872C34.5038 57.474 33.5679 56.6196 32.5918 55.8063C30.7205 54.1785 28.9311 52.3892 27.1816 50.6396C26.1647 49.7042 25.0663 48.7688 24.1305 47.7514C23.0729 46.6938 22.1375 45.5955 21.121 44.4976C20.5916 43.9681 19.7774 44.7814 20.3069 45.3108Z" fill="black"/>
<path d="M72.1717 51.2094C72.297 51.132 72.4348 51.0769 72.579 51.0464L71.8875 50.3549C71.806 50.6808 71.4399 50.9654 71.1552 51.1686L70.0162 52.3077C69.2432 52.9992 68.3893 53.6902 67.6163 54.4632C65.989 55.9276 64.4023 57.5143 62.8161 59.019C59.6836 62.0701 56.4293 64.918 53.2972 67.9686C52.4428 68.823 51.6296 69.6362 50.6937 70.4092C50.2462 70.7753 49.7176 71.0604 49.3515 71.4265L48.4971 72.2809C48.3346 72.3891 48.3753 72.457 48.6192 72.4846C48.7822 72.5932 48.8636 72.5932 48.8636 72.4846C49.2709 71.9143 48.498 71.1414 48.0499 71.6709C47.6435 72.2402 47.4806 73.4603 48.4563 73.5417C48.8636 73.5417 49.108 73.2973 49.3922 73.0131C49.7995 72.5244 50.2873 72.118 50.7756 71.7112C52.8094 70.2467 54.4775 68.4166 56.2669 66.7078C58.1381 64.918 60.0094 63.2096 61.9215 61.4605C63.8335 59.7114 65.664 57.8808 67.5353 56.091C68.5115 55.1149 69.6093 54.179 70.6674 53.2024C71.1552 52.796 71.6028 52.3484 72.0911 51.8601C72.498 51.5347 72.8233 51.1279 72.9858 50.6396C73.1487 50.2323 72.7016 49.7852 72.2943 49.9481C72.0771 50.0024 71.8463 50.0974 71.6024 50.2328C70.9521 50.5581 71.5214 51.5347 72.1717 51.2094Z" fill="black"/>
<path d="M72.8228 50.0703C72.7007 50.1111 72.2531 49.9079 72.1314 49.8667C71.7648 49.8259 71.3987 49.7857 71.0738 49.7042L68.6332 49.2159C66.9655 48.9313 65.2567 48.6869 63.5483 48.3615C62.8156 48.199 62.0029 48.1176 61.2299 48.0768C60.4565 47.9551 59.7243 47.7107 58.9518 47.589C58.2187 47.4261 57.4059 47.4261 56.6737 47.2632C56.3478 47.2632 56.0632 47.2229 55.6971 47.1012C55.4124 46.9785 55.168 46.8971 54.8838 47.0192C54.4765 47.1822 54.2331 47.67 54.5996 47.9551C54.9246 48.28 55.2907 48.2398 55.6161 47.9144C56.1451 47.4668 55.3314 46.6531 54.8024 47.1007C54.8567 47.1007 54.8974 47.0871 54.9246 47.06C55.0875 47.1143 55.264 47.155 55.454 47.1822L55.4133 47.1414C55.3043 47.4668 55.2223 47.7922 55.1685 48.1176C55.2092 48.0768 55.3721 48.1583 55.4536 48.2398C55.6572 48.2805 55.8197 48.28 56.0233 48.3208C56.3895 48.362 56.7551 48.4841 57.1212 48.5244C57.9349 48.6059 58.7074 48.6462 59.4804 48.8498C61.0263 49.2562 62.6939 49.2974 64.2805 49.663C65.9894 49.9889 67.6977 50.1513 69.4061 50.4767C70.1565 50.6783 70.9167 50.8413 71.6838 50.965C72.254 51.0465 72.7826 51.3307 73.3926 51.0465C74.0031 50.7618 73.4741 49.7449 72.8233 50.0699L72.8228 50.0703Z" fill="black"/>
<path d="M59.2364 31.8462C58.8296 32.253 58.382 32.7006 58.1381 33.1889C57.8132 33.7582 57.7317 34.409 57.5688 35.0597C57.243 36.5242 56.9995 37.9886 56.5922 39.4531C56.2265 40.8768 55.7785 42.3005 55.4129 43.7242C55.2499 44.4574 55.0463 45.2294 54.8028 45.9616C54.6399 46.5318 54.3553 47.1414 54.396 47.7515C54.4367 47.9551 54.5992 48.2805 54.8431 48.28C55.2504 48.3615 55.5758 48.2805 55.8604 47.9144C56.308 47.3854 55.5346 46.5314 55.0875 47.1414C54.9246 47.25 54.9381 47.2636 55.1282 47.1822L55.5346 47.7515C55.4943 47.141 55.8192 46.5717 55.9414 46.0431C56.1494 45.3702 56.3394 44.6919 56.5112 44.0089C56.8769 42.6666 57.3249 41.3244 57.6498 39.9414C58.0159 38.5987 58.2603 37.2971 58.5449 35.9544C58.7074 35.3041 58.7481 34.6126 59.0328 34.0021C59.2364 33.4727 59.6428 33.0663 60.0497 32.6594C60.5782 32.1309 59.765 31.3176 59.2364 31.8462Z" fill="black"/>
<path d="M58.545 33.3513C58.3821 33.5142 58.2196 33.7582 58.1381 34.0025C58.0567 34.1655 58.0164 34.2872 57.9757 34.4094C57.9345 34.6126 57.9752 34.8162 58.0159 35.019C58.0567 35.2226 58.2196 35.3855 58.5047 35.4263C58.5857 35.453 58.6807 35.4394 58.7893 35.3851L58.8708 35.3036C58.9092 35.292 58.9441 35.2711 58.9724 35.2428C59.0008 35.2144 59.0217 35.1795 59.0333 35.1412C59.1555 35.019 59.1962 34.8153 59.2772 34.6529C59.3315 34.4899 59.3722 34.3134 59.3989 34.1238C59.396 33.973 59.3382 33.8284 59.2365 33.717C59.1143 33.5948 58.9518 33.5138 58.8296 33.5545C58.6667 33.5545 58.5038 33.636 58.4223 33.7174C58.3137 33.8261 58.2599 33.9614 58.2599 34.1243C58.2327 34.1514 58.2191 34.1922 58.2191 34.2465L58.2191 34.0836C58.2191 34.1922 58.2056 34.3144 58.1789 34.4497C58.1789 34.3954 58.1924 34.3546 58.2196 34.3275C58.1924 34.4089 58.1381 34.4904 58.0567 34.5719C58.3825 34.6262 58.735 34.68 59.1147 34.7339C59.0876 34.7067 59.074 34.666 59.0735 34.6121V34.775C59.1007 34.6936 59.1143 34.6257 59.1143 34.5714C59.0871 34.5986 59.0735 34.6393 59.0735 34.6936L59.155 34.4492C59.1279 34.4764 59.1143 34.5171 59.1143 34.5714C59.1957 34.3813 59.3043 34.1913 59.4397 34.0016L59.3175 34.1238C59.3718 34.0695 59.4125 34.0016 59.4397 33.9202C59.494 33.8659 59.5075 33.798 59.4808 33.717C59.5211 33.5953 59.4397 33.4323 59.3175 33.3101C59.2365 33.2291 59.0735 33.1477 58.9518 33.1889C58.8296 33.1481 58.626 33.1889 58.545 33.3513Z" fill="black"/>
<path d="M58.8296 32.0087C58.8296 31.8458 58.8704 31.8865 58.6667 32.0087C58.4631 32.1309 58.2594 32.1716 58.016 32.2531C57.5277 32.4155 56.9991 32.5377 56.4705 32.6599C55.4532 32.8626 54.4363 33.0667 53.4602 33.3107C51.5481 33.8397 49.7583 34.6529 47.8056 35.1412C46.2601 35.5481 44.7142 35.6295 43.4534 36.8089L44.2671 37.6225L44.9179 36.9718C45.4464 36.4432 44.6328 35.6295 44.1042 36.1581L43.4534 36.8089C42.9651 37.2972 43.7381 38.0701 44.2671 37.6225C45.4872 36.4025 47.4802 36.4432 49.0256 35.9549C50.9788 35.3041 52.8904 34.5312 54.9246 34.1243C55.8605 33.9207 56.7959 33.799 57.7313 33.5143C58.5043 33.3107 59.8873 32.9848 59.9687 32.0091C59.9687 31.276 58.8699 31.2362 58.8296 32.0087Z" fill="black"/>
<path d="M40.7684 17.69C40.8906 17.4864 41.0531 17.3239 41.1748 17.1207L40.1172 16.7139C39.9144 17.4868 40.0362 18.3408 40.1176 19.1545C40.1448 19.9967 40.199 20.8378 40.2801 21.6765C40.4838 23.4261 40.5648 25.1345 41.0123 26.8021C41.297 27.5755 41.5816 28.348 41.826 29.1617C42.0292 30.0156 42.1514 30.9515 42.2731 31.8055C42.3143 32.5789 42.3953 33.3921 42.5582 34.1243C42.68 34.7348 43.0461 35.4259 42.8429 36.0363C43.0601 35.9277 43.2909 35.8056 43.5348 35.6702C43.5077 35.6431 43.467 35.6295 43.4126 35.6295C43.5213 35.6838 43.6299 35.7653 43.738 35.8734C43.7109 35.8463 43.6973 35.8056 43.6973 35.7512C43.2905 35.1815 42.2736 35.7105 42.7207 36.3206C42.8836 36.5649 42.9651 36.6464 43.2502 36.7686C43.5348 36.8903 43.8195 36.6057 43.9005 36.3617C44.1444 35.7105 43.982 35.1417 43.8195 34.4904C43.5756 33.7578 43.5344 32.9853 43.4122 32.2123C43.3316 31.3986 43.2497 30.5854 43.0868 29.7717C42.9651 28.9169 42.6397 28.1036 42.3958 27.2904C41.826 25.582 41.6631 23.8732 41.5006 22.0834C41.4192 21.2697 41.2974 20.4157 41.2567 19.5613C41.2296 19.154 41.216 18.7341 41.216 18.3005C41.1752 17.8525 41.0938 17.3647 41.2155 16.9985C41.3789 16.3473 40.443 15.9817 40.1986 16.551C40.1172 16.6867 40.0357 16.7953 39.9543 16.8768C39.4664 17.4461 40.2398 18.2186 40.7684 17.69Z" fill="black"/>
<path d="M39.6294 16.7138C39.5072 17.1619 39.1415 17.609 38.8976 18.0158L38.002 19.3984C37.4055 20.375 36.7819 21.3516 36.1316 22.3277C34.8292 24.1985 33.5281 26.0698 32.1854 27.9004C30.8839 29.6907 29.6222 31.5208 28.3618 33.3513C27.1006 35.1819 25.88 36.9717 24.4966 38.6801C23.7377 39.6019 22.9919 40.565 22.2597 41.5687C21.8125 42.1787 21.2428 42.7485 20.6735 43.3178C20.1444 43.8468 20.9169 44.6193 21.446 44.0903L21.4867 44.0496C22.0153 43.521 21.2423 42.748 20.7138 43.2766L20.673 43.3174C20.144 43.8464 20.9169 44.6193 21.446 44.0903C21.8935 43.6427 22.3818 43.2359 22.7882 42.748C23.4797 41.8936 24.0902 40.9582 24.8224 40.0631C25.5139 39.2087 26.2864 38.3547 26.9372 37.4596C27.5884 36.5649 28.1582 35.5887 28.8089 34.6936C31.331 30.87 34.1377 27.2496 36.7412 23.426L38.8564 20.1713C39.2067 19.6052 39.573 19.0491 39.9548 18.5037C40.2394 17.9746 40.6055 17.5271 40.7277 16.9985C40.8902 16.2658 39.7923 15.9816 39.6294 16.7138Z" fill="black"/>
</g>
</g>
</g>
</g>
<defs>
<clipPath id="clip0_15_6184">
<rect width="64.0002" height="63.9932" fill="white" transform="translate(45.8101 0.75) rotate(45)"/>
</clipPath>
<clipPath id="clip1_15_6184">
<rect width="64.0002" height="63.9932" fill="white" transform="translate(45.8101 0.75) rotate(45)"/>
</clipPath>
<clipPath id="clip2_15_6184">
<rect width="64" height="64" fill="white" transform="translate(45.8125 0.747559) rotate(45)"/>
</clipPath>
</defs>
</svg>
