<svg width="41" height="41" viewBox="0 0 41 41" fill="none" xmlns="http://www.w3.org/2000/svg">
<g clip-path="url(#clip0_15_6131)">
<g clip-path="url(#clip1_15_6131)">
<g clip-path="url(#clip2_15_6131)">
<mask id="mask0_15_6131" style="mask-type:luminance" maskUnits="userSpaceOnUse" x="0" y="0" width="41" height="41">
<path d="M23.8896 0.470367L40.8602 17.4409L17.7409 40.5603L0.77033 23.5897L23.8896 0.470367Z" fill="white"/>
</mask>
<g mask="url(#mask0_15_6131)">
<path d="M25.1194 1.7985C25.5129 2.63473 25.3653 3.42177 25.2916 4.23341C25.0948 6.79129 24.8243 9.32458 24.6521 11.8579C24.5537 12.94 24.5783 13.9976 24.5783 15.0798C24.6029 15.5471 24.5783 15.9652 24.3324 16.3588C23.9142 17.0228 24.0372 17.7361 24.111 18.4001C24.8488 18.9412 25.5867 19.3839 26.2508 19.9496C27.997 21.3515 29.9892 22.0156 32.1536 22.4583L34.1212 22.8518C34.0228 23.3437 33.9736 23.7373 33.8998 24.1062C33.7768 24.7211 33.4325 24.967 32.8422 24.967C30.2352 24.8686 27.7019 25.1884 25.2178 25.8524C24.9964 25.9262 24.7997 26.0246 24.6029 26.123C24.0372 26.3935 23.5453 26.6887 22.9058 26.787C22.1926 26.91 21.6269 27.4757 21.1842 28.066C19.9298 29.6155 19.5117 31.5093 19.0198 33.3785C18.6509 34.7804 18.2574 36.2069 17.8639 37.6334C17.6671 38.2729 17.3474 38.7894 16.6341 39.06C16.6341 37.5843 16.6095 36.1331 16.6341 34.682C16.6587 33.2309 16.7817 31.7798 16.7571 30.3287C16.7571 29.2465 16.6341 28.189 16.5849 27.1068C16.5849 26.8116 16.5111 26.4919 16.5603 26.1968C16.6587 25.5573 16.5357 25.0408 15.8963 24.6965C15.5519 24.4997 15.2568 24.2046 14.9616 23.9094C13.9533 22.901 12.6497 22.4829 11.3954 21.9664C9.59993 21.2532 7.7799 20.6137 5.98447 19.9496C5.36959 19.7283 5.24661 19.3102 5.68932 18.8183C5.98447 18.4739 6.3288 18.3755 6.74691 18.4001C8.02585 18.4493 9.3048 18.4493 10.5837 18.4985C12.3054 18.5477 13.9533 18.2772 15.5765 17.6377C16.093 17.4163 16.7325 17.3671 17.2244 17.1212C18.9952 16.3342 20.1758 14.9076 21.135 13.309C21.4793 12.7187 21.8237 12.0792 22.1188 11.4397C22.5615 10.6035 22.955 9.7181 23.3977 8.83268C23.988 7.65211 24.111 6.34858 24.3815 5.09423C24.6275 4.15962 24.7505 3.20042 24.9472 2.26581C24.9718 2.09364 25.0702 1.94607 25.1194 1.7985Z" fill="#100F12"/>
</g>
</g>
</g>
</g>
<defs>
<clipPath id="clip0_15_6131">
<rect width="23.9992" height="33.036" fill="white" transform="translate(24.01 0.350006) rotate(45)"/>
</clipPath>
<clipPath id="clip1_15_6131">
<rect width="23.9992" height="33.036" fill="white" transform="translate(24.01 0.350006) rotate(45)"/>
</clipPath>
<clipPath id="clip2_15_6131">
<rect width="24" height="33.0435" fill="white" transform="translate(24.0126 0.347382) rotate(45)"/>
</clipPath>
</defs>
</svg>
