<svg width="92" height="92" viewBox="0 0 92 92" fill="none" xmlns="http://www.w3.org/2000/svg">
<g clip-path="url(#clip0_15_6206)">
<g clip-path="url(#clip1_15_6206)">
<g clip-path="url(#clip2_15_6206)">
<mask id="mask0_15_6206" style="mask-type:luminance" maskUnits="userSpaceOnUse" x="9" y="9" width="74" height="74">
<path d="M9.15607 45.545L45.3599 9.34112L82.0281 46.0093L45.8243 82.2132L9.15607 45.545Z" fill="white"/>
</mask>
<g mask="url(#mask0_15_6206)">
<g style="mix-blend-mode:multiply">
<path d="M65.597 60.7696L24.0553 51.8114L22.0134 34.4517L40.9042 14.4468L54.3177 19.5063L65.5979 60.7687L65.597 60.7696Z" fill="#AFE8D9"/>
<path d="M65.597 60.7696L24.0553 51.8114L22.0134 34.4517L40.9042 14.4468L54.3177 19.5063L65.5979 60.7687L65.597 60.7696Z" stroke="#AFE8D9" stroke-width="0.512" stroke-miterlimit="10"/>
</g>
<path d="M19.5996 39.9284C19.2285 40.2995 19.228 40.7643 19.1814 41.2752C19.212 41.9709 19.2276 42.6673 19.228 43.3637C19.1818 44.8019 19.3212 46.241 19.4606 47.6801C19.8317 50.2795 20.7137 52.9247 20.3883 55.5707C20.249 56.0812 20.7599 56.5921 21.317 56.3129C22.4307 55.6635 23.1738 54.5493 24.1015 53.6216C25.1849 52.5382 26.2832 51.4706 27.397 50.4185C29.6715 48.3304 31.9455 46.241 34.0811 43.9208C36.2624 41.5531 38.3047 39.1396 40.4865 36.8656C42.6678 34.591 44.9889 32.3632 47.2168 30.1353C48.4703 28.8817 49.6764 27.5824 50.9765 26.3755C52.0903 25.3541 53.4828 24.6115 54.3177 23.3122C54.5037 23.0339 54.3643 22.6157 54.0398 22.4768C52.3224 21.5015 50.2801 21.6875 48.516 20.8521C47.5728 20.4126 46.6128 20.01 45.6383 19.6452C45.0816 19.4596 44.5404 19.2587 44.0141 19.0419C43.5498 18.8564 43.1321 18.7166 42.8533 18.3455C42.761 18.6242 42.6836 18.9179 42.6216 19.227C42.9931 19.0419 44.1069 19.7846 44.4779 19.9701C45.4989 20.4344 46.4741 21.0377 47.4485 21.5486C48.3977 22.0701 49.3921 22.505 50.4195 22.8479C50.8367 22.9873 51.2544 23.1262 51.7187 23.2194C52.183 23.2194 52.6935 23.2656 53.0646 23.4511C52.9718 23.2968 52.8641 23.1266 52.7397 22.9406C52.7673 22.8535 52.8151 22.7742 52.8791 22.7089C52.1369 23.08 52.7863 24.1937 53.5294 23.8227C53.9005 23.6371 54.0706 23.343 54.0398 22.9411C54.0398 22.6623 53.9466 22.4768 53.7149 22.3374C52.8329 21.9197 51.7653 21.9663 50.8829 21.6414C49.584 21.1771 48.4233 20.5738 47.2629 19.9701L44.339 18.4382C43.5968 18.0671 42.8071 17.7427 42.0183 18.0671C41.693 18.2061 41.6002 18.6708 41.7862 18.9492C42.3428 19.8769 43.1787 20.0629 44.153 20.4806C45.2667 20.8521 46.3809 21.3164 47.4946 21.7803C48.4699 22.2912 49.3981 22.5696 50.5118 22.7546C51.4404 22.9411 52.508 23.08 53.4361 23.5439L53.1578 22.7089C52.4614 23.7765 51.1616 24.5187 50.1873 25.4007C49.0265 26.3759 48.0056 27.4892 46.8914 28.6034C44.7567 30.8313 42.4822 33.0126 40.3005 35.1943C35.9379 39.6501 32.1781 44.524 27.4902 48.6544C26.2388 49.7193 25.031 50.8344 23.8698 51.997L22.2451 53.6216C21.7808 54.1782 21.317 54.8277 20.6671 55.1996C20.9767 55.4467 21.3011 55.6789 21.6419 55.8957C21.9198 53.4818 21.317 51.1149 20.9454 48.7938C20.7133 47.4484 20.5277 46.0555 20.5277 44.6634C20.4812 43.9833 20.4812 43.3008 20.5277 42.6206C20.5269 42.2953 20.5113 41.9702 20.4811 41.6463C20.4816 41.5535 20.435 40.9503 20.5282 40.857C21.1314 40.2538 20.249 39.3713 19.5996 39.9284Z" fill="black"/>
<path d="M18.8103 40.0678L18.7175 40.0682C18.8379 40.431 18.9771 40.7872 19.1348 41.1353C23.0805 37.376 26.9797 33.4769 30.739 29.5311C32.5788 27.5059 34.4669 25.5251 36.4017 23.5905L40.672 19.3202C40.9969 18.9953 41.2752 18.5315 41.6929 18.2993C41.3559 18.0848 41.0306 17.8523 40.7186 17.6028C40.6258 17.9744 40.3471 18.1599 40.3471 18.531C40.3471 18.9021 40.5792 19.2275 40.858 19.413C41.4612 19.7384 42.2034 19.6452 42.8071 19.6913C42.6216 19.4442 42.4202 19.1813 42.2039 18.9025C42.2966 18.531 42.7605 18.5315 42.2966 18.531C42.1106 18.5315 41.9717 18.5156 41.8789 18.4844C41.7862 18.4848 41.4612 18.3455 41.4146 18.2988C41.6006 18.2993 41.3214 18.7632 41.2752 18.717C41.3219 18.7636 42.0179 18.9953 42.064 19.0415C42.3894 19.1813 42.6216 19.3202 42.9927 19.3202C43.6425 19.3202 43.8747 18.4382 43.2714 18.1138C42.8078 17.831 42.308 17.6122 41.7857 17.4634C41.0897 17.2317 40.672 18.2993 41.3219 18.6704C42.4822 19.3664 43.7353 19.9706 44.9422 20.62C46.1026 21.2237 47.3095 21.6875 48.4699 22.198C49.5374 22.7089 50.3728 23.5443 51.4865 24.0082C52.4618 24.4259 53.1116 24.2404 53.9932 23.7299C53.7083 23.5721 53.4137 23.4326 53.1112 23.3122C53.0804 23.2814 53.08 23.2502 53.1112 23.219C53.2967 23.0334 53.4981 22.8637 53.7144 22.7089L53.8072 22.7085C53.065 22.3374 52.4613 23.4977 53.1573 23.8227C53.3433 23.9154 53.5293 24.0082 53.714 24.0082C53.9932 24.0087 54.2254 23.7765 54.3643 23.5443C54.4109 23.3122 54.3643 23.1732 54.3647 22.9872C54.1788 22.6157 53.761 22.3836 53.3895 22.5695C53.065 22.8017 52.7863 22.9872 52.4152 22.9872C51.9509 22.894 51.5332 22.5695 51.1621 22.2908C50.2334 21.6409 49.3519 21.1304 48.2843 20.7127C46.1487 19.7846 43.9674 18.7166 41.9255 17.5101L41.4608 18.717C41.8789 18.8564 42.2966 18.9953 42.6211 19.2275C42.7731 18.8344 42.8973 18.4311 42.9927 18.0205C42.8999 18.021 42.5283 17.835 42.3433 17.7422C42.0179 17.6033 41.7396 17.4173 41.3685 17.4173C40.6258 17.3245 40.0687 17.9748 40.2077 18.7636C40.3932 19.7846 43.0859 20.4344 43.4565 19.2275C43.5964 18.8098 43.2248 18.4382 42.8076 18.3921C42.5288 18.3921 42.1106 18.4382 41.7857 18.3921L41.5074 18.2993C41.5382 18.6396 41.6002 18.7016 41.6929 18.4848C41.8789 18.3921 41.9717 18.1138 41.9717 17.9282C42.25 17.3711 41.5074 16.9996 41.0431 17.1851C40.3471 17.5101 39.8832 18.2527 39.3261 18.8098L37.0516 21.0843C35.5197 22.6162 33.9879 24.148 32.5026 25.7256C29.5633 28.8505 26.5615 31.9454 23.4982 35.0087C21.7347 36.7723 20.0638 38.5364 18.2532 40.2538C17.7427 40.671 18.1609 41.2747 18.6714 41.3209C18.9497 41.4137 19.1818 41.2747 19.4601 41.182C20.1562 40.857 19.5068 39.7433 18.8103 40.0678Z" fill="black"/>
<path d="M18.3465 40.5326L18.0215 40.8575C17.8672 41.0118 17.7278 41.182 17.6038 41.3675C17.5418 41.4295 17.5106 41.5223 17.5111 41.6458C17.4835 41.7203 17.4678 41.7986 17.4645 41.878C17.4645 41.8164 17.4798 41.7703 17.5111 41.7391L17.6966 41.5535C17.7278 41.5223 17.774 41.5069 17.8355 41.5069C17.898 41.5069 17.9442 41.4915 17.9749 41.4607C18.0369 41.4603 18.0835 41.4761 18.1143 41.5069L18.0677 41.4603C18.0989 41.4915 18.1451 41.5069 18.2071 41.5073C18.1759 41.4761 18.1297 41.4607 18.0677 41.4603C18.1605 41.4915 18.2225 41.5227 18.2532 41.5535L18.2071 41.5073C18.1451 41.4453 18.0831 41.4141 18.0215 41.4141C17.947 41.3866 17.8687 41.3709 17.7894 41.3675C17.6173 41.3712 17.4524 41.4373 17.3255 41.5535C17.1861 41.6929 17.1395 41.8318 17.1395 42.0174C17.0934 42.1568 17.1857 42.3423 17.2789 42.4355C17.4645 42.6211 17.6966 42.76 17.9749 42.7605C18.2537 42.7605 18.4854 42.6211 18.6252 42.3889C18.6789 42.2839 18.7252 42.1754 18.7637 42.064L18.7642 41.878C18.7329 41.9092 18.7176 41.9554 18.7176 42.0178C18.8565 41.7857 19.0425 41.5997 19.228 41.4141C19.3208 41.3214 19.414 41.1358 19.414 40.9503C19.414 40.857 19.3679 40.6253 19.2285 40.4859C19.1353 40.3927 18.9497 40.3004 18.8103 40.3466C18.6383 40.3502 18.4734 40.4163 18.3465 40.5326ZM53.0185 22.9406C53.3896 24.2404 53.6679 25.6329 53.9933 26.9792C54.2716 28.2785 54.7359 29.5782 55.1531 30.9241C56.0846 33.4699 56.9515 36.039 57.753 38.6287C58.5884 41.1358 59.3311 43.7348 59.7954 46.3342C60.3525 48.9332 60.3991 51.6716 60.9086 54.3172C61.1879 55.8029 61.6051 57.2411 61.9767 58.7268C62.1622 59.3767 62.2088 59.7944 62.0233 60.4442C61.9305 61.0013 62.2088 61.5584 62.0233 62.115L63.2293 62.0223C62.7193 60.9547 62.7197 59.7478 62.6727 58.5874C62.6408 57.3628 62.5635 56.1398 62.441 54.9209C62.255 52.3219 61.9296 49.6758 61.1879 47.0769C60.4914 44.6164 59.9809 42.064 59.1451 39.5573C58.7274 38.3042 58.2169 37.1439 57.892 35.8903C57.5204 34.5911 57.1959 33.2447 56.7782 31.9916C56.3605 30.553 55.9894 29.0677 55.5713 27.6286C55.3492 26.9561 55.0696 26.3039 54.7354 25.6795C54.597 25.3545 54.3643 25.0296 54.3186 24.6119C54.1788 24.2865 54.1792 24.0082 53.9933 23.7299C53.8539 23.405 53.4362 23.3583 53.1583 23.4516C52.6008 23.7294 52.508 24.2865 52.7397 24.7979C53.1574 25.4935 54.3182 24.8902 53.8543 24.1476L53.7611 24.6119C53.4723 24.5165 53.1779 24.4391 52.8795 24.3802C53.0189 24.6119 53.0185 24.8902 53.0651 25.1224C53.1578 25.4007 53.2506 25.679 53.3896 25.9112C53.765 26.5601 54.0762 27.2441 54.3186 27.9535C54.643 29.2265 54.9832 30.4954 55.3391 31.7599C55.7655 33.043 56.1372 34.3436 56.4533 35.6582C56.7782 36.9117 57.2887 38.0721 57.7064 39.3252C58.5884 41.7857 59.0523 44.3846 59.7949 46.8913C60.538 49.4898 60.8625 52.1359 61.1408 54.8281L61.4196 59.0051C61.4657 60.2587 61.559 61.4652 62.0694 62.6255C62.3482 63.1831 63.137 62.9509 63.2764 62.4404C63.4619 61.8838 63.3225 61.4656 63.323 60.9085C63.2764 60.3976 63.5085 59.9808 63.4619 59.4699C63.3692 58.263 62.9048 56.9632 62.6265 55.7563C61.8839 53.0641 61.8373 50.3257 61.3268 47.5869C60.4914 42.2034 58.635 37.0045 56.871 31.8988C56.3185 30.3502 55.8077 28.787 55.3391 27.2109C54.921 25.6795 54.6897 24.1476 54.272 22.6157C54.086 21.7808 52.8329 22.1052 53.0185 22.9406Z" fill="black"/>
<path d="M21.6419 56.8243C22.9416 56.9166 24.1485 57.2882 25.4478 57.4742C26.8847 57.6612 28.3237 57.8312 29.7647 57.9842C32.6078 58.355 35.4401 58.804 38.2585 59.3305C41.0897 59.841 43.9208 60.3515 46.799 60.7225C49.5836 61.0941 52.2292 61.6046 54.968 62.115C56.4386 62.4226 57.9266 62.6396 59.4238 62.7649C60.8629 62.9043 62.3015 63.2297 63.7872 63.2292C64.3905 63.2758 64.6688 62.3476 64.1117 62.0693C63.2763 61.605 62.3477 61.5118 61.4195 61.419C60.3986 61.2335 59.331 61.0945 58.2634 60.9547C55.8495 60.7692 53.4366 60.5836 50.9765 60.2587C45.9636 59.6084 40.9508 58.959 35.8908 58.5413C33.0135 58.2625 30.1824 58.0308 27.258 57.7059C26.4688 57.5665 26.4688 58.8662 27.3046 58.959C32.1781 59.5622 37.0516 59.8876 41.9251 60.3976C46.799 60.909 51.6721 61.7906 56.546 62.1155C57.8919 62.254 59.1921 62.3476 60.5379 62.5794C61.4657 62.7649 62.6265 62.7183 63.4619 63.1826C63.5594 62.7623 63.6678 62.3446 63.7868 61.9299C62.4875 61.9295 61.2806 61.6512 59.9809 61.558C58.6117 61.4332 57.2488 61.2475 55.8962 61.0013C53.1578 60.4904 50.4656 59.9333 47.6806 59.5622C42.0179 58.8196 36.4022 57.5665 30.6928 56.8705C29.1634 56.652 27.6316 56.4507 26.0977 56.2668C24.6124 56.0812 23.1271 55.6169 21.6419 55.5246C20.8065 55.4314 20.8065 56.7311 21.6419 56.8243Z" fill="black"/>
<path d="M21.6419 55.6169C21.4127 55.7533 21.2212 55.9448 21.0848 56.174C20.8988 56.5455 21.0386 56.87 21.3165 57.0556C22.013 57.5665 22.9411 57.5669 23.6842 57.6593C24.6124 57.752 25.4478 58.0308 26.3298 58.0774L26.1438 56.7772C25.4478 57.0098 24.5658 56.7777 23.8698 56.6383C23.1733 56.4061 22.4768 55.8952 21.688 55.9418C20.992 55.988 20.8065 57.0098 21.5487 57.1954C23.4055 57.7525 25.308 58.1697 27.2114 58.4947C27.8146 58.5413 28.3256 57.8448 27.8617 57.3809C27.1652 56.6845 26.0049 56.6383 25.0763 56.6383C24.6586 56.5917 24.2875 56.5917 23.8698 56.5451C23.2661 56.4989 22.7094 56.4989 22.1519 56.3134C22.0596 56.7152 21.951 57.1334 21.8274 57.5665C23.0805 57.7986 24.2875 58.077 25.4944 58.3553C26.4221 58.5408 27.5368 58.449 28.3722 58.9124L28.3722 57.7991C28.1866 57.8914 28.14 57.938 27.9079 57.7982C27.6757 57.7525 27.4435 57.6126 27.1652 57.5199C26.5158 57.2416 25.8189 57.1022 25.0767 56.9166C24.3547 56.6972 23.6272 56.4961 22.895 56.3134C22.6062 56.218 22.3118 56.1406 22.0134 56.0817C21.688 56.0351 21.4097 55.9423 21.2237 55.7563C21.0386 56.1278 20.8839 56.4989 20.7599 56.87C21.6419 56.9166 22.4773 57.3809 23.3127 57.6597C23.6372 57.7986 24.0092 57.5199 24.1019 57.2416C24.1947 56.87 23.9625 56.5455 23.6376 56.4061C22.6628 56.0812 21.7813 55.6631 20.7603 55.5707C20.1562 55.5241 19.9245 56.3134 20.2955 56.6845C20.8526 57.2416 21.5953 57.3343 22.3379 57.5203C23.2012 57.705 24.0536 57.9374 24.8912 58.2163C25.6334 58.4019 26.3755 58.5874 27.1191 58.8667C27.7223 59.1911 28.3717 59.3771 29.022 58.9124C29.3927 58.634 29.4859 58.0774 29.022 57.7991C28.0468 57.2882 26.9797 57.3343 25.9587 57.1488C24.7052 56.9171 23.4059 56.5455 22.1519 56.3134C21.3169 56.1274 21.0382 57.2416 21.8274 57.5665C22.3841 57.752 22.9882 57.7986 23.5448 57.7986L24.7513 57.8919C25.4017 57.8914 26.5158 57.8914 26.9335 58.3091C27.1186 57.9376 27.32 57.5823 27.5368 57.2416C25.6334 56.9166 23.7304 56.4989 21.874 55.9414L21.688 57.2416C22.013 57.1954 22.3845 57.3805 22.709 57.5203C23.081 57.7059 23.4679 57.8448 23.8698 57.938C24.659 58.1697 25.68 58.3553 26.4692 58.0303C27.1652 57.7986 27.1186 56.8243 26.3298 56.7777C25.541 56.7311 24.7052 56.4528 23.9164 56.4061C23.2665 56.3138 22.5239 56.3134 21.9668 55.9418C22.0591 56.2206 22.1365 56.5143 22.1985 56.8234L22.2913 56.7306C22.5701 56.5451 22.7094 56.2201 22.5234 55.8495C22.3379 55.5707 21.9202 55.4309 21.6419 55.6169ZM39.9294 20.5272C39.9294 20.5272 39.976 20.9449 39.9755 21.0377C40.0375 21.4092 40.0837 21.7649 40.1154 22.1052C40.2095 22.8304 40.2868 23.5577 40.3471 24.2865C40.4398 25.8646 40.4864 27.3964 40.5331 28.9283C40.6254 30.4136 40.6254 31.8988 40.4864 33.3375C40.3924 33.7485 40.3455 34.1689 40.3466 34.5906C40.3149 34.8214 40.2997 35.0541 40.3009 35.2871C40.2697 35.3798 40.2543 35.4577 40.2543 35.5192C40.2077 35.7514 40.1149 35.6586 40.2543 35.6125C40.4711 35.5812 40.6874 35.5812 40.9041 35.6125C40.0687 35.0549 39.1406 34.7766 38.2585 34.4512C37.284 34.0396 36.293 33.6682 35.288 33.3379C33.4778 32.7342 31.7138 32.0844 29.9036 31.3884C29.3931 31.1567 28.7433 30.8779 28.14 31.2024C27.3974 31.5739 27.6753 32.4093 27.8151 33.1058C28.3256 35.0083 29.0216 36.9117 29.5325 38.8147C29.8574 39.8818 30.043 41.0892 30.3675 42.1568C30.4884 42.6416 30.6279 43.1217 30.7856 43.5959C30.8403 43.8267 30.9345 44.0464 31.0639 44.2453C31.2033 44.3847 31.4816 44.5697 31.5282 44.7096C31.621 44.4928 31.7138 44.2453 31.8066 43.9669C30.8322 44.477 29.6253 44.1987 28.6039 44.2914C27.2118 44.3847 25.8655 44.6168 24.5196 44.4774C23.1271 44.3847 22.0596 43.6882 20.806 43.2709C20.296 43.0388 19.6923 42.9917 19.1352 42.7134C18.6709 42.5278 18.2536 42.4817 17.8355 42.7134C17.2322 42.9455 17.5106 43.6882 17.9749 43.8737C20.2023 44.6168 22.5701 44.9417 24.9839 45.1273C26.0511 45.1734 27.2118 45.2201 28.279 45.3594C28.7894 45.4988 29.2999 45.6382 29.8574 45.7305C30.2285 45.7305 30.6462 45.5916 31.0639 45.7305C31.0332 45.3287 30.9866 44.9417 30.9246 44.5702C30.043 44.8951 28.7433 44.4308 27.768 44.2919C26.4692 44.1063 25.1233 43.8737 23.8698 43.5488C22.6167 43.2243 21.3627 42.8066 20.11 42.3885C19.0891 42.1097 18.0677 41.7391 17.4182 42.8528C17.325 43.0383 17.2789 43.3633 17.4182 43.5026C17.9749 44.2457 18.9497 44.2919 19.8317 44.3385L23.591 44.4774C24.9835 44.5702 26.4226 44.8019 27.8146 44.9874C28.3097 45.0499 28.774 45.0807 29.2076 45.0807C29.4239 45.1114 29.6253 45.1273 29.8108 45.1273C29.9036 45.1268 29.9968 45.2201 30.043 45.1739C30.2751 45.1273 30.2285 45.3594 30.0891 45.0345L30.739 44.1991C29.4393 44.2914 28.0934 44.0597 26.7937 43.9665C25.68 43.8737 24.3802 44.338 23.3127 43.9203C23.2507 44.3534 23.2041 44.7711 23.1728 45.1734C25.4944 45.2667 27.8151 45.6378 30.0891 46.241C30.7856 46.4732 31.2033 45.4056 30.5996 45.0807C29.8108 44.7562 29.1144 44.6164 28.2785 44.5236C27.5825 44.4774 26.8865 44.338 26.1443 44.4313C25.6804 44.524 25.494 45.2662 25.8655 45.5445C26.5615 46.1482 27.444 46.1021 28.3717 46.1021C29.3465 46.1482 30.2747 46.0555 31.2033 45.8699C31.4816 45.7771 31.7138 45.545 31.7133 45.2667C31.7149 45.0953 31.6996 44.9241 31.6676 44.7557C31.6676 43.9203 30.3675 43.9199 30.4141 44.7096L30.4141 45.2662L30.8779 44.6168C30.1824 44.7557 29.5325 44.849 28.7899 44.8485C28.4496 44.8177 28.1246 44.8024 27.8151 44.8024C27.4902 44.7562 27.0263 44.849 26.7471 44.663L26.4683 45.6839C26.9797 45.6378 27.5368 45.7305 28.0934 45.8238C28.6971 45.8699 29.3465 45.9627 29.9498 46.1948L30.4145 44.9879C28.0468 44.3851 25.5867 43.967 23.1733 43.8742C22.3379 43.8742 22.3379 44.8951 22.9878 45.173C24.1481 45.5911 25.4012 45.1734 26.5615 45.2196C28.0006 45.2667 29.3465 45.5916 30.739 45.4988C31.1567 45.5454 31.4816 45.1273 31.3427 44.7096C31.1105 43.8276 29.9964 43.8276 29.2542 43.8276C28.0472 43.7348 26.8865 43.5026 25.68 43.4103C24.2409 43.1777 22.8022 43.2243 21.4097 43.1315C20.8526 43.1311 20.2955 43.0383 19.8321 43.0383C19.5529 43.0388 18.6247 43.0383 18.5315 42.8528L18.5315 43.5026C18.7175 43.1311 19.4606 43.5954 19.7851 43.642C20.4349 43.8276 21.0848 44.0131 21.6885 44.2457C22.8603 44.6778 24.0733 44.9888 25.3084 45.1739C26.4688 45.4056 27.5368 45.545 28.6505 45.731C29.6714 45.9165 30.6462 46.0559 31.5744 45.6844C32.1315 45.4061 31.8998 44.6168 31.3893 44.4774C30.9712 44.338 30.6001 44.4304 30.1358 44.4313C29.6714 44.4313 29.1144 44.2453 28.6039 44.1059C27.5363 43.9669 26.4688 43.9203 25.4017 43.8742C22.9878 43.6886 20.6205 43.3633 18.2998 42.6211C18.3292 43.0097 18.3757 43.3969 18.4392 43.7814C18.2532 43.8742 18.393 43.8276 18.532 43.8742C18.5781 43.9203 18.7175 43.9665 18.8564 44.0131C19.0732 44.1059 19.3054 44.1833 19.5529 44.2453C20.2028 44.4308 20.806 44.663 21.4559 44.9417C22.6628 45.4988 23.9159 45.8233 25.308 45.8233C26.6081 45.8238 27.9079 45.545 29.2071 45.5445C30.3213 45.5454 31.3889 45.6844 32.4103 45.1273C32.6886 45.0345 32.828 44.7096 32.7814 44.3851C32.5958 43.9208 32.2243 43.7348 32.0383 43.2709C31.8532 42.8062 31.7604 42.3423 31.6215 41.8314C31.2961 40.7638 31.1105 39.5573 30.7852 38.4898C30.5068 37.4693 30.1358 36.4474 29.8113 35.3798L29.3465 33.6163C29.2537 33.3995 29.1917 33.1827 29.161 32.9664C29.0682 32.7804 29.0682 32.4093 28.975 32.2238C28.9139 31.9762 28.836 32.0224 28.7433 32.3632C28.8365 32.3939 28.9139 32.4098 28.975 32.4093C29.1148 32.4559 29.2533 32.5021 29.3465 32.5021C29.8108 32.6876 30.2285 32.8275 30.6928 33.013C31.7138 33.3841 32.6415 33.8484 33.7095 34.1734C34.8699 34.5915 36.0307 34.916 37.1444 35.3798C38.2119 35.7975 39.2795 36.1229 40.2543 36.7257C40.4398 36.8189 40.7186 36.8189 40.9041 36.7257C41.7391 36.2619 41.6002 34.8232 41.6463 34.034C41.7396 32.4564 41.9246 30.8774 41.8323 29.2999C41.7857 27.4892 41.6925 25.7252 41.6002 23.962C41.5381 23.1542 41.4454 22.349 41.3223 21.5482C41.2752 20.8521 41.3219 20.1557 40.8575 19.599C40.3466 18.9026 39.4184 19.8307 39.9294 20.5272Z" fill="black"/>
<path d="M28.4184 31.6671C28.0934 31.3422 27.7219 31.1562 27.3046 31.0168C26.6548 30.8313 26.2832 31.6671 26.6543 32.1314C27.4897 32.9668 28.6971 33.3379 29.8104 33.709C31.111 34.1733 32.4103 34.6372 33.7562 35.0554C35.1021 35.3803 36.495 35.5658 37.887 35.7514C39.1863 35.9374 40.3937 36.494 41.693 36.6791C42.2967 36.7262 42.5284 35.9369 42.1573 35.5658C41.4147 34.8232 40.3937 34.9155 39.4189 34.6838C38.8615 34.5527 38.3286 34.3333 37.8404 34.034C37.3766 33.7556 37.0055 33.4769 36.4484 33.3841C35.6591 33.2447 35.3342 34.4983 36.1235 34.6377C36.5873 34.7304 36.9122 34.9621 37.2376 35.1943C37.7015 35.4726 38.1654 35.6586 38.6297 35.8442C39.3723 36.0301 40.6725 35.9374 41.2291 36.494C41.3727 36.1183 41.5274 35.7469 41.693 35.3803C41.0897 35.3337 40.5326 35.0554 40.0222 34.916C39.4289 34.736 38.8241 34.5963 38.212 34.4978C36.9127 34.3127 35.5664 34.1729 34.3133 33.8484C33.0597 33.5235 31.8998 33.1058 30.6924 32.6415C29.6253 32.2242 28.3722 32.0844 27.583 31.2028C27.4004 31.5688 27.199 31.9251 26.9797 32.2704C27.1648 32.3631 27.3508 32.4559 27.4902 32.5953C28.14 33.1519 29.0682 32.2238 28.4184 31.6671Z" fill="black"/>
<path d="M41.6002 36.7728C41.5256 36.7994 41.4475 36.815 41.3685 36.819L41.4612 36.9118C41.693 37.0512 41.9251 37.2833 42.0645 37.515C42.5288 37.9793 42.9465 38.5826 43.3181 39.1397C44.0141 40.2068 44.6173 41.3676 45.3138 42.4351C45.9632 43.3633 46.6597 44.2453 47.3557 45.1269C48.1933 46.275 49.0134 47.4358 49.8157 48.6088C51.5336 50.9756 53.39 53.2963 55.1997 55.5703C56.2843 56.9028 57.3519 58.2489 58.4024 59.6084L59.7949 61.5585C60.1203 62.1617 60.4914 62.8116 60.9557 63.2759C61.234 62.9351 61.4969 62.6106 61.7445 62.3006C61.3729 62.0223 60.9091 61.9295 60.4918 61.7902C59.6555 61.6046 59.331 62.8577 60.1664 63.0433C60.5375 63.1365 60.8158 63.2293 61.0946 63.4148C61.7445 63.7859 62.3477 62.9039 61.8834 62.3472C61.4195 61.8834 61.1412 61.3263 60.7697 60.7692C60.3524 60.0732 59.8881 59.4233 59.3776 58.8196C58.4798 57.6131 57.5674 56.4211 56.6388 55.2454C54.6426 52.7858 52.6469 50.3258 50.7905 47.7263C49.8931 46.4578 48.965 45.1893 48.0055 43.9204C47.4485 43.1778 46.8914 42.4351 46.3347 41.5997C45.5921 40.3928 44.8956 39.1397 44.0141 37.9793C43.5031 37.1905 42.2034 34.9622 40.9508 35.6582C40.2081 36.0298 40.8109 37.1901 41.6002 36.7728Z" fill="black"/>
<path d="M33.1063 46.2876C32.828 45.8237 32.3641 45.4522 31.8066 45.4522C31.2033 45.4988 30.8784 46.3804 31.4821 46.7053C33.4312 47.5412 35.5663 48.0978 37.6087 48.7481C39.7438 49.4903 41.8785 50.2329 43.9674 51.2077C48.0526 53.1568 52.0436 55.478 55.8962 57.8452C57.0103 58.4951 58.0313 59.145 59.0527 59.8876C59.8415 60.4908 60.8163 61.1869 61.4661 62.0223C61.6593 61.6379 61.8762 61.266 62.1155 60.9085C60.0732 60.0727 58.2634 58.8196 56.4066 57.7059C54.4571 56.5917 52.3681 55.6169 50.3728 54.457C48.4237 53.2501 46.5664 51.9503 44.5707 50.79C42.6555 49.6196 40.6716 48.5657 38.6296 47.6339C37.5155 47.1696 36.2628 46.8447 35.2419 46.1948C34.2205 45.6377 33.4312 44.9417 32.317 44.663C31.9459 44.5706 31.5282 44.8951 31.5282 45.2662C31.5282 46.3804 32.5496 46.7519 33.3384 47.2629C34.3128 47.8661 35.3346 48.4227 36.3551 48.9798C38.4907 50.0935 40.7186 51.1149 42.9927 52.1825C45.1744 53.1568 47.3557 54.2249 49.398 55.4318C51.487 56.5921 53.5293 57.8914 55.664 59.0051C56.8402 59.6862 58.0005 60.3822 59.145 61.0941C60.0732 61.6512 61.0018 62.301 62.1155 62.5793C62.9052 62.8115 63.1835 61.7901 62.626 61.419C62.3976 61.2412 62.1251 61.1289 61.8377 61.0941C61.0023 61.0009 60.6769 62.2549 61.5123 62.3472C61.7444 62.3938 61.7906 62.44 61.9766 62.5327C62.1314 62.1309 62.3011 61.7439 62.4871 61.3724C61.5589 61.0941 60.7697 60.5836 59.9809 60.0727C59.0531 59.5161 58.0933 58.959 57.1031 58.4023C55.2001 57.2415 53.2506 56.2206 51.3476 55.0598C47.4023 52.693 43.2253 50.9289 39.0939 48.9337C37.9859 48.3796 36.8873 47.8069 35.7985 47.2158C35.2462 46.9092 34.7043 46.584 34.1738 46.241C33.953 46.084 33.7203 45.9445 33.4778 45.8237C33.3384 45.6844 32.828 45.545 32.828 45.2662L31.9921 45.9165C32.9673 46.1487 33.71 46.7981 34.5915 47.3086C35.5197 47.8656 36.5873 48.191 37.5621 48.6083C39.6044 49.4441 41.6468 50.5579 43.504 51.672C45.4993 52.8319 47.3557 54.1316 49.3048 55.3386C51.2548 56.5455 53.3895 57.4737 55.3857 58.6345C57.5208 59.841 59.4699 61.2335 61.7911 62.1616C62.4409 62.4404 62.7192 61.5122 62.3943 61.0941C61.8838 60.3981 61.0484 59.8405 60.3986 59.2839C59.5632 58.634 58.5884 58.0303 57.7064 57.4271C55.7479 56.2149 53.7672 55.039 51.7653 53.8999C47.7734 51.5788 43.7353 49.4903 39.3723 48.0055C37.005 47.2158 34.4522 46.6125 32.1315 45.5916C32.005 45.9729 31.8968 46.3599 31.807 46.7515C31.8998 46.7519 31.9464 46.8909 31.9926 46.937C32.4564 47.5873 33.6168 46.9836 33.1063 46.2876ZM43.9213 37.8865C44.5245 37.2833 43.5964 36.3551 42.9931 36.9583C42.436 37.5154 43.3642 38.4436 43.9213 37.8865Z" fill="black"/>
<path d="M42.7144 35.3799L42.4822 35.1477C41.8789 34.5445 40.9503 35.4731 41.5536 36.0763C42.4822 37.005 43.4104 37.9331 44.2458 38.9541C45.0812 39.975 45.7777 41.0426 46.5203 42.064C47.9673 44.1261 49.3755 46.2152 50.7444 48.33C52.1364 50.3719 53.5289 52.3219 55.1074 54.1783C55.8962 55.0603 56.7316 55.988 57.3348 57.0556C57.8919 58.1702 58.4024 59.3305 59.2382 60.2587L60.1664 59.3305L59.7021 58.8662C59.7331 59.0817 59.7331 59.3006 59.7021 59.5161L59.8415 59.3767C60.3054 58.6341 59.1916 57.9847 58.7273 58.7268L58.5879 58.8662C58.5421 58.9684 58.5184 59.0791 58.5184 59.1912C58.5184 59.3032 58.5421 59.4139 58.5879 59.5161C58.7739 59.7944 59.0061 60.0266 59.2382 60.2587C59.8877 60.8158 60.7697 59.9338 60.1664 59.3305C59.2378 58.4019 58.8667 57.1022 58.1702 56.0346C57.6136 55.0137 56.8239 54.1317 56.0356 53.2501C54.3643 51.3933 52.9718 49.3509 51.6259 47.262C50.2334 45.1889 48.8102 43.1157 47.3552 41.0426C46.6131 40.0217 45.9632 39.0007 45.1744 38.0255C44.339 37.0045 43.4108 36.0763 42.4822 35.1477L41.5536 36.0763L41.7857 36.3085C42.389 36.9117 43.3176 35.9831 42.7144 35.3799ZM62.5803 63.8786L62.4875 63.7859C62.4871 63.6623 62.5025 63.5537 62.5337 63.4609C62.5337 63.3994 62.5491 63.3532 62.5803 63.322L63.508 63.322C63.4619 63.2759 63.4619 63.2759 63.4157 63.1365C63.3554 63.0219 63.3236 62.8944 63.323 62.7649C63.2589 62.5053 63.2123 62.2416 63.1836 61.9757C63.0442 61.2797 62.998 60.5836 62.951 59.8876C62.8586 59.2378 62.7193 58.5408 62.7654 57.8448C62.7654 57.1026 62.6726 56.36 62.6726 55.6169C62.626 54.8281 61.3729 54.7815 61.3729 55.6169C61.42 56.4062 61.4666 57.195 61.4661 57.9376C61.4191 58.7268 61.6051 59.4695 61.6517 60.2592C61.7445 61.0009 61.7445 61.744 61.9305 62.4866C62.0694 63.0899 62.1156 63.7859 62.626 64.204C62.8582 64.4362 63.2293 64.4362 63.5085 64.2502C63.8796 63.8791 63.88 63.322 63.4619 62.9971C62.9052 62.4404 61.9775 63.3682 62.5803 63.8786Z" fill="black"/>
<path d="M62.255 63.9252L62.3477 64.018C62.7654 64.5289 63.6475 64.018 63.4153 63.4148C62.5799 60.9086 62.3477 58.2625 62.3477 55.5708C62.3016 54.3172 62.3477 53.0636 62.1622 51.8571C62.0694 51.2077 61.93 50.6973 61.6517 50.1402C61.4196 49.7225 61.559 49.212 61.2806 48.8405L61.2806 49.4903C61.311 49.3975 61.3426 49.3351 61.373 49.3048C61.7907 48.6083 60.6769 47.9589 60.2592 48.6545C60.1972 48.7165 60.166 48.7785 60.1665 48.8405C60.0737 49.0265 60.0275 49.2582 60.1665 49.4903C60.3054 49.6292 60.2126 49.8152 60.2592 50.0474C60.3054 50.2791 60.3982 50.4651 60.4448 50.6973C60.7235 51.2539 60.862 51.7644 60.9553 52.4142C61.0951 53.6673 61.0014 54.9675 61.0485 56.2202C61.0946 58.7734 61.3268 61.3263 62.1622 63.7402C62.5467 63.5465 62.9188 63.3292 63.2764 63.0894L63.1836 62.9966C62.6265 62.3472 61.6979 63.2758 62.255 63.9252Z" fill="black"/>
<path d="M56.2211 55.9419C56.732 55.9885 57.1959 56.5456 57.567 56.9167C58.0475 57.4635 58.497 58.0369 58.9133 58.6341L60.213 60.3049L60.7697 61.1403C60.909 61.4652 61.0484 61.6978 61.2801 61.9295C61.8377 62.3939 62.7658 61.8368 62.3015 61.1869C62.0228 60.8158 61.8838 60.3981 61.6051 60.1194C61.2806 59.7016 60.909 59.4233 60.5375 59.0518C59.8881 58.4024 59.5165 57.5665 59.0061 56.8705C58.5418 56.1274 57.4285 56.7773 57.8453 57.4738C58.4024 58.2164 58.7739 59.0522 59.4238 59.7021C59.7021 60.0727 60.1198 60.3981 60.4447 60.723C60.7697 61.048 60.909 61.4652 61.1874 61.8368L62.2083 61.0014C61.9766 60.862 61.9304 60.5371 61.7444 60.2587C61.5127 59.9338 61.2806 59.6093 61.0018 59.3306C60.538 58.6812 60.027 57.9847 59.5632 57.3344C58.6811 56.1745 57.753 54.782 56.2211 54.6422C55.8962 54.596 55.6178 54.9675 55.5712 55.292C55.5712 55.6631 55.8962 55.8957 56.2211 55.9419Z" fill="black"/>
<path d="M52.6935 25.2152C54.3647 30.0425 56.1745 34.8237 57.2882 39.8357C57.8453 42.3423 58.2635 44.8024 58.7278 47.3086C58.9595 48.5622 59.2382 49.7686 59.517 51.0684C59.7026 52.1825 59.8881 53.389 60.2126 54.4566C60.5841 55.7568 60.6769 57.056 61.0018 58.3096C61.3734 59.6089 61.7911 60.862 62.4405 61.9757C62.6726 62.4866 63.5546 62.44 63.6013 61.8368C63.6013 61.7128 63.6316 61.5892 63.694 61.4652C63.7868 60.6303 62.5337 60.3049 62.4409 61.1407C62.4097 61.2335 62.3785 61.3571 62.3477 61.5118C62.75 61.4806 63.1528 61.4191 63.5551 61.3263C62.9514 60.3515 62.5799 59.2378 62.3015 58.1231C61.9766 57.056 61.93 55.8962 61.6517 54.7815C61.0018 52.4609 60.5841 50.0936 60.1203 47.6801C59.6559 45.2662 59.2378 42.8062 58.7278 40.3466C58.2173 37.8865 57.4742 35.4726 56.7316 33.0592C55.8496 30.3208 54.8752 27.5825 53.947 24.8903C53.7144 24.101 52.4613 24.4264 52.6935 25.2152Z" fill="black"/>
</g>
</g>
</g>
</g>
<defs>
<clipPath id="clip0_15_6206">
<rect width="63.9932" height="63.9932" fill="white" transform="translate(0.560059 46) rotate(-45)"/>
</clipPath>
<clipPath id="clip1_15_6206">
<rect width="63.9932" height="63.9932" fill="white" transform="translate(0.560059 46) rotate(-45)"/>
</clipPath>
<clipPath id="clip2_15_6206">
<rect width="64" height="64" fill="white" transform="translate(0.557617 45.9976) rotate(-45)"/>
</clipPath>
</defs>
</svg>
