<svg width="70" height="76" viewBox="0 0 70 76" fill="none" xmlns="http://www.w3.org/2000/svg">
<g clip-path="url(#clip0_15_6229)">
<g clip-path="url(#clip1_15_6229)">
<g clip-path="url(#clip2_15_6229)">
<mask id="mask0_15_6229" style="mask-type:luminance" maskUnits="userSpaceOnUse" x="-1" y="13" width="68" height="57">
<path d="M-0.651611 25.9641L56.9417 13.7222L66.2562 57.5432L8.66284 69.7851L-0.651611 25.9641Z" fill="white"/>
</mask>
<g mask="url(#mask0_15_6229)">
<g style="mix-blend-mode:multiply">
<path d="M5.05183 26.9273L11.1417 52.3118L30.3231 49.1507C30.4415 53.2476 29.6056 60.7534 30.2896 64.7871C30.1816 64.0085 34.1096 58.25 34.8 57.4162C36.4121 55.4705 37.5143 53.5763 38.6489 51.56C40.1537 48.8356 46.8747 49.4111 49.8969 48.6542L59.0195 46.3717C62.9839 45.4145 63.0944 44.3029 61.9243 40.4295C61.4061 38.5362 55.6938 15.476 56.1921 15.3701L5.05183 26.9273Z" fill="#33BFA6"/>
<path d="M5.05183 26.9273L11.1417 52.3118L30.3231 49.1507C30.4415 53.2476 29.6056 60.7534 30.2896 64.7871C30.1816 64.0085 34.1096 58.25 34.8 57.4162C36.4121 55.4705 37.5143 53.5763 38.6489 51.56C40.1537 48.8356 46.8747 49.4111 49.8969 48.6542L59.0195 46.3717C62.9839 45.4145 63.0944 44.3029 61.9243 40.4295C61.4061 38.5362 55.6938 15.476 56.1921 15.3701L5.05183 26.9273Z" stroke="#33BFA6" stroke-width="0.512" stroke-miterlimit="10"/>
</g>
<path d="M15.1334 35.1471C15.0887 35.118 15.0297 35.1116 14.9558 35.1273L15.0838 35.7295C15.6581 35.436 16.2587 35.5374 16.8788 35.4625C17.3777 35.3564 17.9311 35.2388 18.4735 35.0666C19.5137 34.7886 20.5316 34.4001 21.6267 34.1098C22.7783 33.8081 23.9414 33.5609 25.1045 33.3136C26.2561 33.0119 27.4302 32.8193 28.6049 32.6265C30.7996 32.3321 32.9918 31.7516 35.1601 31.0617C36.2448 30.7167 37.2733 30.3836 38.4046 30.2576C39.5464 30.187 40.6078 29.7324 41.6361 29.3986C42.0678 29.25 41.873 28.6044 41.4413 28.753C40.3015 29.1098 39.2173 29.4548 37.9758 29.6041C36.9008 29.7181 35.8829 30.1066 34.8545 30.4397C32.5748 31.1533 30.2724 31.7571 27.8996 32.0325C26.8363 32.2016 25.784 32.4253 24.7316 32.649C23.525 32.9624 22.3503 33.1551 21.211 33.5118C20.0712 33.8686 18.9986 34.268 17.8472 34.5703C16.7955 34.7938 15.661 34.6339 14.7227 35.1199C14.4142 35.3 14.4956 35.6831 14.8073 35.789C14.8442 35.7811 14.9032 35.7876 14.9848 35.8082C15.4079 35.8903 15.5564 35.2286 15.1334 35.1471ZM16.8781 40.9018L16.8108 40.8592C16.7602 40.9844 16.6875 41.0948 16.5923 41.1916C16.9241 41.1211 17.2798 41.1599 17.6006 41.0348C18.0438 40.9406 18.4196 40.8032 18.8628 40.709C19.8479 40.4427 20.7661 40.133 21.7076 39.9328C22.6492 39.7327 23.5583 39.654 24.4441 39.4657C25.4413 39.2537 26.3938 39.1082 27.3794 38.8418C29.3059 38.3747 31.1767 37.9201 33.0922 37.3985C34.9629 36.9433 36.9043 36.8172 38.7523 36.2523C39.7374 35.986 40.7455 35.8286 41.6755 35.574C42.2231 35.4191 42.7655 35.2464 43.3019 35.0562C43.7336 34.9076 44.1995 34.9231 44.6427 34.8288C45.0859 34.7346 44.8911 34.089 44.4479 34.1832C44.0597 34.2657 43.7047 34.2267 43.3723 34.2974C42.9075 34.472 42.4579 34.6252 42.0224 34.7557C41.0932 35.0108 40.195 35.1441 39.2652 35.3993C38.3353 35.6539 37.4061 35.909 36.3971 36.0659C35.4997 36.1997 34.6022 36.3329 33.6607 36.533C29.8745 37.5099 26.0557 38.6075 22.1213 39.1579C21.113 39.3147 20.1514 39.6911 19.1541 39.9031C18.6674 40.0635 18.1691 40.1694 17.6825 40.3304C17.2393 40.4246 16.8401 40.4519 16.3968 40.5461C16.231 40.5814 16.1434 40.7145 16.1233 40.8908C16.1582 41.0548 16.1699 41.1099 16.2599 41.2622C16.5189 41.6652 17.1256 41.2503 16.8781 40.9018Z" fill="#272726"/>
<path d="M16.0957 34.7705C16.088 34.7342 16.0613 34.7012 16.0167 34.6728L15.9115 35.2677C16.2439 35.197 16.6547 35.2242 16.9871 35.1535C17.4419 35.1138 17.8619 34.91 18.3044 34.8159C19.1352 34.6394 20.0009 34.6274 20.8193 34.3959C22.5806 33.9646 24.3411 33.5328 26.0894 33.0467C26.9526 32.7487 27.8617 32.67 28.7359 32.4272C29.6224 32.2388 30.5522 31.9836 31.4821 31.729C33.2977 31.2855 35.0669 30.6235 36.871 30.1256C37.7451 29.8822 38.6659 29.8585 39.5639 29.7246C40.5611 29.5126 41.4555 29.0935 42.4203 29.0029C42.8752 28.9638 42.8463 28.283 42.3914 28.3221C41.6048 28.4324 40.9082 28.6949 40.1441 28.9143C39.3134 29.0908 38.5151 29.146 37.6611 29.213C36.7637 29.3469 35.8564 29.7111 35.0496 29.9971L32.2165 30.8283C30.4799 31.3695 28.6519 31.7581 26.824 32.1466C25.9381 32.3349 25.0756 32.6327 24.1898 32.821C23.2599 33.0756 22.3734 33.264 21.4993 33.5074C20.9569 33.6796 20.4592 33.7854 19.9603 33.8915C19.462 33.9974 18.9955 33.9821 18.4971 34.088C18.0424 34.1277 17.5673 34.3432 17.1241 34.4374C16.6258 34.5433 16.1599 34.5278 15.7167 34.622C15.44 34.6809 15.3984 35.0332 15.5447 35.1735C15.5889 35.2028 15.6154 35.2351 15.6231 35.2714C15.9814 35.5963 16.4538 35.0948 16.0957 34.7705ZM16.4459 41.0506C16.8953 41.5276 17.9555 41.0732 18.5096 40.9555C18.9969 40.7949 19.5068 40.7435 20.0051 40.6376C20.5151 40.5867 21.0335 40.3045 21.576 40.1322C22.6723 39.8416 23.759 39.7827 24.8786 39.6017C26.0599 39.3506 27.2186 39.0853 28.3552 38.8058C30.6025 38.2136 32.7015 37.1949 35.0387 36.7551C36.1468 36.5195 37.2659 36.3392 38.4167 36.0371C39.5384 35.6841 40.6776 35.3275 41.8356 34.9668C42.4751 34.7911 43.1099 34.599 43.7395 34.3907C44.0256 34.2917 44.3176 34.2105 44.6136 34.1473C44.8903 34.0885 45.1909 34.1391 45.4126 34.092C45.4676 34.0803 45.9226 34.0412 45.2785 34.006C45.1561 33.9751 44.8903 34.0885 44.7244 34.1238C44.4477 34.1826 44.1588 34.1871 43.8704 34.1908C43.2931 34.199 42.6289 34.3402 42.0755 34.4578C41.6323 34.552 41.8271 35.1976 42.2703 35.1034C42.8912 35.0291 43.5003 34.8996 44.1327 34.8797C44.5324 34.8516 45.1091 34.8436 45.4733 34.6516C46.004 34.4243 46.5726 33.5595 45.7271 33.3957C44.8266 33.2436 43.6989 33.6548 42.8915 33.9409L39.1952 35.0701C38.0003 35.4385 36.7938 35.7526 35.5638 35.9564C34.334 36.1609 33.1391 36.5294 31.9435 36.898C29.4429 37.6586 27.0321 38.5714 24.45 38.9488C23.1644 39.1645 21.8011 39.2829 20.5737 39.7728C19.9879 40.0118 19.2998 40.0436 18.6907 40.173L17.6941 40.3849C17.5833 40.4084 16.9974 40.6474 16.9184 40.5497C16.6159 40.213 16.1434 40.7145 16.4465 41.0505L16.4459 41.0506Z" fill="#272726"/>
<path d="M42.7789 28.2397C42.5696 28.3418 42.3039 28.4552 42.094 28.5574C41.7738 28.6824 41.3856 28.7649 41.0539 28.8354C40.3572 29.098 39.57 29.2084 38.8617 29.4159C38.4308 29.565 38.6256 30.2106 39.0688 30.1164C39.777 29.9083 40.552 29.7436 41.2604 29.5361C41.5805 29.4105 41.8578 29.3515 42.1902 29.2809C42.4553 29.1676 42.7093 28.9991 42.986 28.9403C43.4176 28.791 43.2228 28.1454 42.7789 28.2397Z" fill="#272726"/>
<path d="M16.3579 35.4594C16.3125 35.4304 16.2536 35.424 16.1797 35.4397L16.3077 36.0419C16.882 35.7484 17.4826 35.8498 18.1026 35.7749C18.6016 35.6688 19.1556 35.5511 19.6974 35.379C20.7382 35.1008 21.7555 34.7125 22.8512 34.422C24.0028 34.1203 25.1653 33.8732 26.3284 33.626C27.48 33.3243 28.6541 33.1317 29.8288 32.9389C32.0235 32.6445 34.2157 32.064 36.384 31.3741C37.4687 31.0291 38.4971 30.696 39.6285 30.57C40.7709 30.4992 41.8317 30.0447 42.8606 29.7109C43.2917 29.5623 43.0968 28.9167 42.6652 29.0654C41.5254 29.4222 40.4412 29.7671 39.1997 29.9165C38.1247 30.0305 37.1074 30.4188 36.0783 30.7521C33.7986 31.4656 31.4963 32.0695 29.1241 32.3448C28.0602 32.514 27.0078 32.7377 25.9555 32.9613C24.7489 33.2747 23.5748 33.4674 22.4349 33.8242C21.2951 34.1809 20.2225 34.5803 19.0711 34.8827C18.0194 35.1062 16.8855 34.9461 15.9465 35.4323C15.638 35.6124 15.7195 35.9955 16.0312 36.1013C16.0681 36.0935 16.127 36.0999 16.2086 36.1205C16.6318 36.2027 16.7803 35.541 16.3573 35.4595L16.3579 35.4594ZM18.102 41.2142L18.0347 41.1716C17.9841 41.2968 17.9114 41.4072 17.8162 41.504C18.1479 41.4334 18.5036 41.4723 18.8245 41.3472C19.2677 41.253 19.6435 41.1155 20.0867 41.0213C21.0717 40.755 21.99 40.4454 22.9315 40.2452C23.873 40.0451 24.7828 39.9662 25.6679 39.7781C26.6652 39.5661 27.6183 39.4204 28.6033 39.1541C30.5298 38.6871 32.4012 38.2324 34.3161 37.7109C36.1874 37.2555 38.1281 37.1296 39.9762 36.5647C40.9612 36.2984 41.97 36.1409 42.8994 35.8864C43.447 35.7316 43.9895 35.5589 44.5258 35.3686C44.9575 35.22 45.424 35.2353 45.8666 35.1412C46.3098 35.047 46.115 34.4014 45.6717 34.4956C45.2836 34.5781 44.9285 34.5391 44.5968 34.6096C44.132 34.7843 43.6818 34.9376 43.2469 35.068C42.3171 35.3232 41.4189 35.4565 40.4891 35.7117C39.5598 35.9662 38.63 36.2214 37.621 36.3783C36.7236 36.5121 35.8261 36.6453 34.8846 36.8454C31.0984 37.8223 27.2802 38.9198 23.3452 39.4703C22.3369 39.627 21.3752 40.0035 20.3786 40.2153C19.8913 40.3759 19.393 40.4818 18.9064 40.6428C18.4632 40.737 18.0639 40.7643 17.6207 40.8585C17.4548 40.8937 17.3673 41.0268 17.3472 41.2032C17.3821 41.3672 17.3938 41.4223 17.4837 41.5746C17.7428 41.9776 18.3495 41.5627 18.102 41.2142Z" fill="#272726"/>
<path d="M17.3196 35.0829C17.3118 35.0466 17.2852 35.0136 17.2406 34.9852L17.1354 35.58C17.4678 35.5094 17.8786 35.5366 18.211 35.4659C18.6658 35.4262 19.0857 35.2224 19.5283 35.1283C20.359 34.9517 21.2248 34.9398 22.0438 34.7081C23.8038 34.2771 25.565 33.8452 27.3139 33.3589C28.1765 33.0611 29.0856 32.9824 29.9604 32.7395C30.8462 32.5512 31.776 32.296 32.706 32.0414C34.5216 31.5979 36.2908 30.9359 38.0949 30.4379C38.9696 30.1944 39.8904 30.1708 40.7878 30.037C41.785 29.825 42.68 29.4058 43.6442 29.3153C44.0991 29.2762 44.0702 28.5953 43.6152 28.6345C42.8287 28.7447 42.132 29.0073 41.3686 29.2265C40.5379 29.4031 39.739 29.4584 38.885 29.5254C37.9876 29.6592 37.0809 30.0234 36.2735 30.3095L33.4404 31.1407C31.7038 31.6819 29.8758 32.0705 28.0478 32.459C27.1626 32.6472 26.2995 32.9451 25.4137 33.1334C24.4837 33.388 23.5973 33.5764 22.7232 33.8198C22.1808 33.992 21.6831 34.0978 21.1841 34.2039C20.6858 34.3098 20.2193 34.2944 19.721 34.4004C19.2669 34.44 18.7912 34.6556 18.3486 34.7496C17.8503 34.8556 17.3838 34.8402 16.9406 34.9344C16.6639 34.9932 16.6223 35.3456 16.7686 35.4859C16.8134 35.515 16.8393 35.5475 16.847 35.5838C17.2052 35.9087 17.6777 35.4072 17.3196 35.0829ZM17.6704 41.3629C18.1186 41.8401 19.18 41.3855 19.7341 41.2677C20.2208 41.1073 20.7307 41.0559 21.229 40.95C21.739 40.8991 22.2574 40.6169 22.8005 40.4445C23.8962 40.154 24.9835 40.095 26.1025 39.9141C27.2838 39.663 28.4431 39.3976 29.5797 39.118C31.827 38.5258 33.9254 37.5073 36.2626 37.0674C37.3707 36.8319 38.4898 36.6516 39.6412 36.3493C40.7803 35.9909 41.92 35.6341 43.0601 35.2791C43.6994 35.1034 44.334 34.9114 44.9634 34.7031C45.2495 34.6041 45.5414 34.5228 45.8375 34.4597C46.1148 34.4008 46.4148 34.4515 46.6364 34.4044C46.6915 34.3927 47.1464 34.3536 46.5023 34.3184C46.38 34.2875 46.1142 34.4009 45.9483 34.4362C45.6716 34.495 45.3833 34.4993 45.0943 34.5032C44.5176 34.5113 43.8528 34.6526 43.2994 34.7702C42.8562 34.8644 43.051 35.51 43.4942 35.4158C44.115 35.3414 44.7241 35.212 45.3572 35.1919C45.7562 35.164 46.3329 35.1559 46.6971 34.964C47.2279 34.7367 47.7965 33.8719 46.9516 33.708C46.0504 33.556 44.9228 33.9671 44.1154 34.2533L40.4191 35.3824C39.2242 35.7509 38.0177 36.065 36.7877 36.2688C35.5579 36.4733 34.363 36.8418 33.168 37.2103C30.6667 37.971 28.2566 38.8837 25.6739 39.2612C24.3889 39.4768 23.025 39.5953 21.7976 40.0851C21.2118 40.3242 20.5243 40.3558 19.9146 40.4854L18.9179 40.6972C18.8071 40.7208 18.2213 40.9598 18.1429 40.862C17.8398 40.5253 17.3673 41.0268 17.6704 41.3629Z" fill="#272726"/>
<path d="M44.0034 28.552C43.7935 28.6542 43.5284 28.7675 43.3185 28.8696C42.9976 28.9948 42.6101 29.0771 42.2777 29.1478C41.5811 29.4104 40.7945 29.5206 40.0862 29.7281C39.6546 29.8774 39.8494 30.523 40.2927 30.4288C41.0009 30.2207 41.7759 30.056 42.4842 29.8485C42.8049 29.7227 43.0816 29.6639 43.414 29.5933C43.6798 29.4799 43.9332 29.3115 44.2099 29.2527C44.6414 29.1034 44.4466 28.4578 44.0034 28.552Z" fill="#272726"/>
<path d="M0.516354 28.4638C1.21494 31.7504 1.81443 35.1156 2.63539 38.4331C3.08391 39.9983 3.5323 41.563 3.96848 43.0733C4.38583 44.7597 4.67864 46.4143 5.03965 48.1127C5.20265 48.8796 5.36565 49.6465 5.585 50.4014C5.86989 51.1999 6.14369 51.9432 6.31827 52.7645C6.56028 53.6291 6.73499 54.4511 7.76584 54.4034C8.41058 54.4384 9.11878 54.2303 9.72789 54.1008C10.569 53.884 11.4146 53.6853 12.2642 53.5048C13.8699 53.1635 15.4524 52.7126 17.1047 52.5904C17.9036 52.5351 18.7019 52.4799 19.4775 52.3151C20.3633 52.1268 21.2258 51.829 22.0681 51.7068C22.8995 51.5301 23.6777 51.6513 24.5194 51.5293C24.9539 51.4943 25.3821 51.4033 25.7933 51.2585C26.5132 51.1055 26.2804 50.01 25.5604 50.163C24.8405 50.316 25.0734 51.4116 25.7933 51.2585L25.5604 50.163C25.2186 50.2738 24.8661 50.3487 24.5087 50.3866C23.899 50.5162 23.2984 50.4148 22.6777 50.4898C21.2029 50.6312 19.8653 51.1445 18.4573 51.3293C17.7258 51.4279 16.9826 51.4714 16.251 51.5693C15.5195 51.6678 14.7445 51.8326 13.9689 51.9974L9.48346 52.9509C9.10479 53.0703 8.72047 53.1709 8.3319 53.2525C8.22109 53.2761 7.7785 53.3702 7.64441 53.2842C7.49874 53.1437 7.42569 52.5291 7.37912 52.31C7.02131 50.8976 6.49698 49.5205 6.19426 48.0963C5.85668 46.5081 5.5631 44.853 5.16967 43.276C4.80029 41.8091 4.36348 40.2989 3.93824 38.8432C2.95977 35.3295 2.36893 31.7341 1.62377 28.2284C1.47248 27.5166 0.365061 27.752 0.516354 28.4638Z" fill="black"/>
<path d="M26.7056 51.4658L26.659 51.2467L25.551 51.4822C25.7721 52.5226 26.0931 53.4849 26.0811 54.518C26.0691 55.5511 25.9346 56.5532 25.9783 57.5745C26.0654 58.5289 26.1526 59.484 26.1956 60.5053C26.1609 61.4287 26.1489 62.4618 26.5127 63.3574C26.5825 63.6861 27.1189 64.0301 27.4482 63.6741C29.0286 61.8497 30.1392 59.724 31.2506 57.5988C32.548 55.262 34.0235 52.9443 35.5106 50.6816C35.8925 50.0279 34.9539 49.4259 34.5046 50.0364C33.0731 52.2872 31.6967 54.5263 30.3994 56.8631C29.2654 58.8792 28.2215 61.0477 26.6853 62.8058C26.9819 62.9331 27.2942 63.0388 27.6207 63.1219C27.2446 62.1713 27.2799 61.2478 27.3037 60.2698C27.3157 59.2367 27.1612 58.239 27.1175 57.2178C27.0861 56.2509 27.2206 55.2494 27.1885 54.2826C27.2005 53.2495 26.8803 52.2877 26.659 51.2467C26.5077 50.5349 25.3997 50.7704 25.551 51.4822L25.5974 51.7007C25.7488 52.4131 26.857 52.1782 26.7056 51.4658Z" fill="black"/>
<path d="M35.0883 50.5999C37.1366 50.1646 39.1273 49.4548 41.1536 48.9096C43.1677 48.3101 45.26 47.8078 47.2856 47.2627C49.2562 46.7294 51.1589 46.1535 53.0829 45.4011C55.0742 44.6912 57.1899 44.2991 59.2946 43.8517C60.0145 43.6987 59.7816 42.6032 59.0617 42.7562C57.0127 43.1917 54.9515 43.5723 52.9608 44.282C50.97 44.9911 49.0234 45.6338 47.0528 46.1672C45.0271 46.7123 42.9342 47.2147 40.9201 47.8142C38.8944 48.3593 36.9038 49.069 34.8548 49.5045C34.1349 49.6576 34.3684 50.753 35.0883 50.5999Z" fill="black"/>
<path d="M58.4261 42.4902L58.4726 42.7093L59.5807 42.4738C59.115 40.2828 58.9926 38.0757 58.582 35.8729C58.172 33.67 57.639 31.4363 57.1181 29.257C56.1083 24.777 55.2087 20.2737 54.2655 15.8365C54.1142 15.1247 53.0062 15.3602 53.1575 16.072L53.3322 16.894C53.4835 17.6057 54.5915 17.3702 54.4402 16.6584L54.2655 15.8365C54.1142 15.1247 53.0062 15.3602 53.1575 16.072C54.1006 20.5092 55.0003 25.0126 56.0101 29.4925C56.5322 31.6716 57.0645 33.9054 57.4752 36.1081C57.8846 38.3112 58.0069 40.5183 58.4726 42.7093C58.6239 43.4211 59.732 43.1856 59.5807 42.4738L59.5341 42.2547C59.3827 41.5423 58.2746 41.7778 58.4261 42.4902Z" fill="black"/>
<path d="M0.988813 27.9623C4.42507 27.5185 7.75647 26.5814 11.0879 25.6443C14.4633 24.6402 17.7942 23.7039 21.1844 23.0402L47.7105 17.4019C48.5969 17.2135 49.4821 17.0253 50.357 16.7824C51.0769 16.6294 51.8175 16.2999 52.5283 16.3778C52.3847 16.0849 52.245 15.79 52.1093 15.4933C52.0654 15.6054 52.0107 15.7131 51.946 15.8146C51.6192 16.4566 52.5572 17.0587 52.884 16.4167L53.059 16.1505C53.2541 15.708 53.0502 15.2933 52.6394 15.2661C51.9837 15.1765 51.3306 15.3729 50.7332 15.5574C50.0249 15.7649 49.2383 15.8752 48.5184 16.0282L43.3118 17.1349C39.8418 17.8725 36.375 18.6283 32.9128 19.4022C25.9903 20.8736 18.9662 22.1377 12.1601 24.1568C8.39722 25.2433 4.64588 26.3841 0.755459 26.8676C0.0238328 26.9655 0.256694 28.061 0.98832 27.9631L0.988813 27.9623ZM7.44564 54.5284C10.5525 54.4405 13.5197 53.6953 16.5543 52.9934C19.6874 52.2129 22.8554 51.5965 26.0117 50.9256C26.7316 50.7726 26.4988 49.677 25.7789 49.8301C22.6776 50.4893 19.5654 51.0939 16.4874 51.8626C13.5636 52.541 10.6081 53.3413 7.54519 53.3622C6.80199 53.4057 6.74595 54.5057 7.44564 54.5284Z" fill="black"/>
<path d="M26.9099 50.7922L26.8749 50.6276L25.7668 50.8631C26.1977 52.8901 26.1742 54.9562 25.9726 57.0025C25.8614 58.1142 25.8494 59.1473 25.7939 60.2465C25.7935 61.3347 25.5482 62.3598 25.5479 63.448C25.5334 64.1956 26.699 64.2338 26.67 63.5529C26.6588 62.4103 26.8924 61.3301 26.9363 60.1758L27.1034 56.8773C27.3485 54.7642 27.3738 52.6977 26.8749 50.6276C26.7236 49.9158 25.6155 50.1513 25.7668 50.8631L25.8018 51.0278C25.9531 51.7395 27.0611 51.504 26.9099 50.7922ZM52.342 15.5014C52.875 17.7351 53.6848 19.9105 54.273 22.1325C54.9279 24.3978 55.472 26.6867 55.9176 29.0541L58.4791 41.1049C58.5722 41.5431 58.7321 42.0247 58.7144 42.4859C58.9944 42.3504 59.2931 42.2104 59.6093 42.0666C59.507 42.0028 59.3988 41.9491 59.286 41.9063C58.6389 41.5859 58.0269 42.5175 58.6734 42.8381C58.7628 42.8956 58.8711 42.9492 58.9973 42.9982C59.3206 43.1585 59.8073 42.9981 59.825 42.5364C59.9069 41.832 59.6448 41.1437 59.4933 40.4313C59.2404 39.5122 59.0975 38.5689 58.8996 37.638L57.7353 32.1604C57.0102 28.4784 56.2975 24.8513 55.2408 21.2404C54.6434 19.2488 53.9358 17.2806 53.5051 15.2542C53.2986 14.5535 52.1906 14.789 52.342 15.5014ZM0.0993135 27.8654C1.85735 36.1364 3.66015 44.3408 5.35027 52.5692C5.47841 53.1721 5.37642 54.0529 5.9685 54.385C6.73742 54.7365 7.34091 54.0357 7.92674 53.7967C8.61166 53.479 8.1021 52.4423 7.41718 52.76C7.20714 52.8616 7.00895 53.0188 6.81063 53.1755C6.75554 53.1872 6.65631 53.2652 6.60122 53.2769L6.55722 53.3439C6.43856 53.3305 6.42427 53.3525 6.51371 53.41C6.7114 53.2535 6.54857 53.5741 6.62451 53.3865L6.56623 53.1123C6.44792 52.3747 6.311 51.6402 6.1556 50.9095L1.20736 27.6299C1.05607 26.9181 -0.0519799 27.1537 0.0993135 27.8654ZM34.3535 50.412L47.2562 47.6694C49.3609 47.222 51.4882 46.8844 53.5813 46.3826C54.5111 46.1273 55.3277 45.6103 56.2686 45.4103C56.7235 45.3711 57.1226 45.3432 57.5536 45.1947C57.9736 44.9909 58.3151 44.6893 58.8134 44.5834C59.5333 44.4304 59.3005 43.3349 58.5806 43.4879C58.0823 43.5938 57.7847 43.8285 57.3648 44.0322C56.9448 44.236 56.4907 44.2756 56.0357 44.3147C55.0826 44.4604 54.334 45.02 53.4593 45.2635C52.4185 45.5416 51.2878 45.6675 50.2355 45.8911L34.1206 49.3165C33.4007 49.4695 33.6335 50.565 34.3535 50.412Z" fill="black"/>
<path d="M28.3051 62.8049C29.4514 60.8438 30.0171 58.6049 31.0961 56.6011C31.697 55.6143 32.3647 54.6708 33.0203 53.6731C33.6096 52.6318 34.4665 51.7626 34.9333 50.6898C35.2485 49.9934 34.1349 49.6576 33.8638 50.2877C33.6367 50.8509 33.2627 51.2739 32.9017 51.7517C32.5481 52.2173 32.2267 52.7065 31.9396 53.2157C31.3386 54.2019 30.6158 55.1571 30.0706 56.1321C29.0351 58.0697 28.4577 60.2535 27.3671 62.2028C27.0286 62.7897 27.9783 63.4469 28.3058 62.8048L28.3051 62.8049ZM1.37887 28.166C3.05202 27.8679 4.62032 27.0766 6.24676 26.5588C7.88969 25.9811 9.56803 25.5097 11.2714 25.1472C14.8043 24.3394 18.3047 23.6523 21.8492 22.8989C25.3485 22.1169 28.8558 21.3714 32.3706 20.6625C34.0878 20.2975 35.781 19.823 37.5208 19.5677C38.2524 19.4698 38.9957 19.4263 39.7389 19.3829C40.6369 19.2489 41.5111 19.0062 42.3969 18.8179C44.28 18.4176 46.1746 18.0718 48.1012 17.6054C49.4742 17.256 51.1093 16.508 52.5339 16.9491C52.5671 16.5606 52.5861 16.1941 52.5901 15.8497L52.0918 15.9557C51.3718 16.1087 51.6047 17.2042 52.3246 17.0512L52.8229 16.9453C53.3879 16.8821 53.4349 16.0137 52.8783 15.8454C51.5321 15.5021 50.1039 15.8626 48.7975 16.2548C47.2708 16.6938 45.6535 16.9807 44.1022 17.3104C42.4414 17.6634 40.8032 18.1261 39.1068 18.3146C38.3079 18.3699 37.5096 18.4251 36.6673 18.5472C35.7257 18.7474 34.7958 19.0019 33.8549 19.2019C26.7586 20.6722 19.6662 22.1608 12.5776 23.6676C10.6395 24.0796 8.71291 24.546 6.82134 25.1771C4.91819 25.7537 3.09648 26.7134 1.14601 27.0704C0.42609 27.2235 0.658951 28.319 1.37887 28.166Z" fill="black"/>
</g>
</g>
</g>
</g>
<defs>
<clipPath id="clip0_15_6229">
<rect width="64" height="64" fill="white" transform="translate(-5.95001 13.35) rotate(-12)"/>
</clipPath>
<clipPath id="clip1_15_6229">
<rect width="64" height="64" fill="white" transform="translate(-5.95001 13.35) rotate(-12)"/>
</clipPath>
<clipPath id="clip2_15_6229">
<rect width="64" height="64" fill="white" transform="translate(-5.95001 13.35) rotate(-12)"/>
</clipPath>
</defs>
</svg>
