<svg width="54" height="92" viewBox="0 0 54 92" fill="none" xmlns="http://www.w3.org/2000/svg">
<g clip-path="url(#clip0_15_6161)">
<g clip-path="url(#clip1_15_6161)">
<g clip-path="url(#clip2_15_6161)">
<mask id="mask0_15_6161" style="mask-type:luminance" maskUnits="userSpaceOnUse" x="-22" y="16" width="60" height="60">
<path d="M14.7882 16.5892L37.8682 39.6691L1.66431 75.873L-21.4157 52.793L14.7882 16.5892Z" fill="white"/>
</mask>
<g mask="url(#mask0_15_6161)">
<g style="mix-blend-mode:multiply">
<path d="M-6.69924 66.0441C-6.57207 64.0162 -6.18651 61.73 -5.7059 59.7107C-4.81574 56.3768 -3.83733 53.0451 -2.63717 49.7632C-0.490731 43.6344 2.27615 37.6091 6.34727 32.5424C10.5451 27.2584 17.6479 27.0344 23.8414 29.3488C27.2292 30.6675 30.3364 33.1719 31.7416 36.4732C34.8814 43.9231 26.8798 50.748 21.4882 54.1484C13.7903 58.9499 2.40785 64.7208 -6.69924 66.0441Z" fill="#0FA4A4"/>
<path d="M-6.69924 66.0441C-6.57207 64.0162 -6.1865 61.73 -5.7059 59.7107C-4.81574 56.3768 -3.83733 53.0451 -2.63717 49.7632C-0.490731 43.6344 2.27615 37.6091 6.34727 32.5424C10.5451 27.2584 17.6479 27.0344 23.8414 29.3488C27.2292 30.6675 30.3364 33.1719 31.7416 36.4732C34.8814 43.9231 26.8798 50.748 21.4882 54.1484C13.7903 58.9499 2.40785 64.7208 -6.69924 66.0441Z" stroke="#6FCFA1" stroke-width="0.512" stroke-miterlimit="10"/>
</g>
<path d="M13.603 40.4018C11.3402 38.139 11.0818 34.7771 12.9785 32.8804C14.8746 30.9843 18.2362 31.2431 20.4989 33.5059C22.7616 35.7686 23.0205 39.1301 21.1239 41.0268C19.2277 42.9229 15.8657 42.6645 13.603 40.4018Z" fill="#6CCC9E" stroke="#6FCFA1" stroke-width="0.512" stroke-miterlimit="10"/>
<path d="M-7.94918 63.6736C-7.48577 55.5169 -5.91905 47.343 -2.69962 39.9601C-1.15009 36.5099 0.666438 33.1547 3.25049 30.4801C5.79336 27.9372 9.01505 26.0732 12.6228 25.5428C18.7815 24.6336 26.421 28.3079 28.647 34.4992C31.442 42.2939 24.8542 49.1532 18.9367 52.7174C11.5385 57.1289 2.87985 58.7277 -5.12844 61.6675L-8.0157 62.7446C-7.80029 63.1328 -7.58578 63.4913 -7.37173 63.8203C0.565067 59.7754 9.86448 59.0744 17.9841 55.2992C21.9122 53.4528 25.6019 50.8493 27.9402 47.1534C29.7676 44.2398 30.4744 40.6367 30.0798 37.1394C29.6834 33.5534 28.1406 30.0276 25.4729 27.4458C22.9404 25.0002 19.5916 23.4615 16.1481 23.4656C8.68559 23.4158 3.75689 29.5212 0.142839 35.2169C-2.1543 38.7812 -3.9129 42.712 -5.35879 46.7827C-6.05173 48.818 -6.6642 50.8797 -7.19478 52.9632C-7.43418 54.0172 -7.67313 55.0707 -7.78083 56.0835C-7.8564 56.6116 -8.02249 57.0492 -8.27411 57.5724C-8.52889 58.0082 -8.82622 58.4865 -9.0353 58.9671C-9.41 59.8849 -9.34122 60.9022 -9.49418 61.8698C-9.11087 61.9092 -8.71172 61.9625 -8.29809 62.0313C-8.29972 61.8984 -8.2882 61.7656 -8.2637 61.6349C-8.19491 60.842 -9.43173 60.8117 -9.50051 61.6046C-9.52631 61.7508 -9.53808 61.8838 -9.53536 62.0015C-9.60641 62.7061 -8.45377 62.9111 -8.29402 62.2083C-8.14106 61.2407 -8.2551 60.1782 -7.83468 59.3052C-7.41698 58.3444 -6.77255 57.6095 -6.66485 56.5967C-6.40418 54.6163 -5.83487 52.5989 -5.3072 50.7136C-4.12378 46.7243 -2.62811 42.8754 -0.729672 39.2573C1.12578 35.6822 3.38399 32.3378 6.1382 29.4026C8.16154 27.2887 10.6809 25.584 13.6677 24.9504C16.6545 24.3169 19.8482 24.9246 22.5399 26.6678C25.6344 28.6419 27.6537 31.7816 28.5326 35.2473C29.3195 38.5332 29.0091 42.102 27.6256 45.1146C25.8607 48.7803 22.615 51.4829 19.0852 53.3836C11.5448 57.3941 2.73549 58.2385 -5.17778 61.4453C-6.13899 61.8634 -7.08481 62.2961 -8.0157 62.7446C-8.71354 63.0803 -8.06956 64.1561 -7.37173 63.8203C0.933894 60.4022 10.1247 58.9047 18.1004 54.6399C24.5936 51.1335 31.7176 44.5526 30.3215 36.1736C29.1385 29.3012 21.8697 24.5323 15.3267 24.1965C11.5683 23.9725 7.89137 25.2962 4.94166 27.4313C1.81681 29.651 -0.448189 32.7306 -2.21946 36.1311C-6.18876 43.5398 -8.19084 51.968 -8.91084 60.4719C-9.00384 61.5432 -9.08078 62.6158 -9.14164 63.6895C-9.16699 64.4389 -7.92972 64.4688 -7.94918 63.6736Z" fill="black"/>
<path d="M2.15983 31.0277C1.57605 32.4261 0.856493 33.6887 0.00298675 34.9042C-0.469021 35.4667 -0.941029 36.0292 -1.36778 36.637C-1.7968 37.1565 -2.0466 37.7684 -2.43036 38.3332C-2.68877 38.5916 -2.68017 38.945 -2.4539 39.1713C-2.22762 39.3976 -1.78367 39.4967 -1.57052 39.193C-1.09852 38.6305 -0.850972 37.9304 -0.378511 37.3674C0.0482417 36.7597 0.565052 36.2428 0.991805 35.6351C1.84531 34.4195 2.69655 33.1157 3.23509 31.6721C3.36044 31.3657 3.3084 31.0557 2.99388 30.8272C2.76987 30.6892 2.28474 30.7218 2.15983 31.0277ZM22.8069 34.0036C22.0806 33.1913 21.4429 32.3808 20.5464 31.8291C19.6952 31.3227 18.5833 30.9865 17.5641 30.829C15.8788 30.5231 14.1718 31.144 12.825 32.0382C9.95905 33.9991 8.67653 37.5444 10.4804 40.8996C12.191 44.0765 16.2707 44.7937 19.3331 43.6321C20.8655 43.0953 22.2982 42.1151 23.0137 40.6756C23.8564 39.0183 23.8975 37.0764 23.1042 35.3355C21.4705 31.7196 16.9174 29.6655 13.3337 31.1675C11.8466 31.7495 10.6872 33.0899 10.4179 34.7169C10.0622 36.4302 10.5492 38.2965 11.4697 39.8198C13.4477 43.0913 17.5981 44.9146 21.0958 43.4986C24.6366 42.0395 24.837 37.5851 22.9513 34.4928C20.975 31.3101 16.7364 29.4845 13.2364 30.8123C12.3186 31.187 11.5407 31.8744 10.894 32.5211C10.2908 33.1243 9.3015 34.2041 9.85316 35.1006C10.1315 35.6369 10.7085 35.784 11.1959 35.8396C11.9933 35.9473 11.9629 34.7105 11.1655 34.6028C11.0773 34.6006 10.8555 34.5508 10.8985 34.5078C10.7673 34.5485 10.9868 34.51 10.9004 34.5965L10.9438 34.553C11.114 34.2924 11.2389 33.9864 11.4977 33.7276C12.0127 33.1221 12.6612 32.5641 13.3577 32.1391C14.2709 31.5879 15.6824 31.5341 16.7903 31.6934C18.2963 31.907 19.7726 32.6935 20.9039 33.8249C22.9404 35.8613 24.0071 39.7727 21.628 41.7897C19.2901 43.675 15.5575 42.7012 13.5188 40.5764C11.6588 38.5445 10.5107 34.8956 12.7585 32.9193C15.0919 30.8575 18.915 31.9219 20.9125 34.1783C23.1821 36.7058 22.7852 40.361 19.9988 41.9708C17.8655 43.199 14.6049 43.4728 12.5725 41.6132C10.3143 39.527 10.4093 36.1736 12.258 34.1439C13.1178 33.1936 14.2927 32.4713 15.5209 32.1482C16.2667 31.9454 16.9283 31.9174 17.6822 32.0685C18.4819 32.2645 19.415 32.508 20.1328 32.9669C20.8501 33.4262 21.3547 34.1887 21.9448 34.8657C22.4449 35.4518 23.307 34.5897 22.8069 34.0036ZM-7.05722 51.3774C-7.35862 51.6788 -7.43827 52.03 -7.5161 52.4699C-7.5505 52.8663 -7.67314 53.2605 -7.75098 53.7004C-7.99219 54.6656 -8.14288 55.7214 -8.38228 56.7754C-8.53524 57.743 -8.82216 58.6634 -9.06337 59.6287C-9.2204 60.4193 -9.50958 61.2516 -9.35617 62.0938C-9.25525 62.6264 -8.50538 62.6006 -8.24878 62.2535C-7.86502 61.6887 -7.70572 60.9864 -7.50072 60.3288C-7.29616 59.6717 -7.17941 59.0119 -7.10881 58.3077C-6.99432 57.5597 -6.96626 56.8981 -6.80922 56.1075C-6.72731 55.8445 -6.69066 55.5363 -6.61101 55.1852C-6.57435 54.877 -6.58295 54.5235 -6.41279 54.2629C-6.82778 54.1348 -7.22828 54.0221 -7.61295 53.9244C-7.43826 55.6504 -8.14967 57.2669 -8.55244 58.8463C-8.74884 59.8573 -8.94706 60.7796 -9.18827 61.7449C-9.34757 62.4472 -9.64308 63.0143 -9.49239 63.7687C-9.39735 64.0357 -9.03757 64.3094 -8.7312 64.1841C-7.59168 63.8592 -7.75505 62.5744 -7.77904 61.6028C-7.74464 61.2063 -7.70798 60.8981 -7.67314 60.5012C-7.68219 60.1483 -7.73378 59.8378 -7.65413 59.4866C-7.40387 58.8743 -7.06129 58.4412 -7.07849 57.7344C-7.13461 57.2474 -7.76184 56.8791 -8.14967 57.2669C-8.40582 57.6135 -8.48365 58.0534 -8.56149 58.4933C-8.67961 59.064 -8.93168 59.5876 -9.0955 60.1134C-9.25706 60.7275 -9.55257 61.2946 -9.62589 61.9109C-9.6992 62.5273 -9.72907 63.1002 -9.89289 63.6261C-9.4779 63.7542 -9.0774 63.8669 -8.69273 63.9646C-8.66825 63.7587 -8.67328 63.5504 -8.70767 63.346C-8.72713 62.5508 -9.96394 62.5205 -9.85623 63.3179C-9.85352 63.4356 -9.86573 63.5383 -9.89289 63.6261C-10.0051 64.4624 -8.93801 64.7529 -8.69273 63.9646C-8.52665 63.527 -8.49633 62.9536 -8.4212 62.4259C-8.39088 61.8526 -8.1818 61.372 -7.97499 60.8031L-7.48352 59.2255C-7.40206 58.963 -7.417 58.3444 -7.24458 58.172C-7.57177 58.0168 -7.92883 57.8606 -8.3153 57.704C-8.25964 58.1914 -8.64748 58.5793 -8.81311 59.0164C-8.97693 59.5423 -8.91901 60.1179 -8.94887 60.6909C-8.93847 61.133 -9.01585 61.5724 -9.00499 62.0141C-9.00046 62.1906 -8.93846 62.9432 -9.0697 62.9839C-8.80467 63.1352 -8.54979 63.3036 -8.30671 63.4881C-8.35875 63.1781 -8.23566 62.7835 -8.11075 62.4775C-8.00647 62.1442 -7.9117 61.808 -7.82655 61.4692C-7.62789 60.5465 -7.42967 59.6242 -7.1862 58.7472C-6.78343 57.1678 -6.2467 55.6354 -6.37613 53.9547C-6.39107 53.3361 -7.19253 53.0514 -7.48805 53.6184C-7.78311 54.185 -7.81117 54.8467 -7.92973 55.4178C-8.04423 56.1658 -8.20352 56.8682 -8.27458 57.5728C-8.30037 58.3227 -8.41668 58.982 -8.62168 59.6396C-8.82623 60.2967 -8.94028 61.0443 -9.32404 61.6091C-8.94073 61.6485 -8.55606 61.7163 -8.17094 61.8136C-8.26824 61.4584 -8.09989 61.109 -8.02024 60.7578C-7.9406 60.4067 -7.86094 60.0555 -7.73785 59.6609C-7.53737 58.8268 -7.33734 57.9932 -7.18212 57.1139C-6.99793 56.2057 -6.79972 55.2834 -6.58702 54.3466C-6.55263 53.9502 -6.38473 53.6012 -6.35034 53.2048C-6.26843 52.9419 -6.36753 52.4979 -6.15167 52.2821C-5.68011 51.72 -6.58566 50.8154 -7.05722 51.3774Z" fill="black"/>
<path d="M11.3294 34.077C11.1461 33.8077 10.9198 33.5814 10.6099 33.5294C10.2089 33.3873 9.86405 33.7321 9.87265 34.0856C9.85002 34.3499 9.85636 34.6151 9.89211 34.8807C9.92334 34.9699 9.94099 35.0735 9.9437 35.1912L9.94823 35.3677C9.97674 35.3391 9.97674 35.3391 9.94823 35.3677C9.97945 35.4568 9.9962 35.5306 9.99801 35.5894C10.0537 36.0768 9.97628 36.5162 10.0319 37.0036C10.0336 37.1711 10.1009 37.3313 10.2194 37.4498C10.3378 37.5682 10.498 37.6355 10.6655 37.6372C11.019 37.6458 11.1896 37.3847 11.2692 37.0335C11.2602 36.6805 11.252 36.3266 11.1547 35.9714L11.1461 35.6179C11.1751 35.589 11.1746 35.5595 11.1443 35.5292C11.1421 35.441 11.1461 35.6179 11.1896 35.5745L11.185 35.398C11.3013 34.7386 11.3751 34.1218 10.9633 33.538C10.7823 33.357 10.3836 33.3031 10.1659 33.4303C9.73055 33.6846 9.38752 34.1182 9.3124 34.6458C9.18749 34.9518 9.24135 35.3505 9.24995 35.7039C9.1789 36.4085 9.15717 37.3353 9.78667 37.792C9.96543 37.8847 10.2302 37.8915 10.4048 37.8073C11.2756 37.2987 11.5104 36.0682 10.8705 35.1694C10.6442 34.9432 10.332 34.8029 10.0256 34.9282C9.41603 35.2663 9.39431 36.1931 9.36399 36.7665C9.38118 37.4734 9.4459 38.3137 9.85727 38.898C10.1311 39.2578 10.5795 39.5334 11.0624 39.4125C11.4136 39.3329 11.5815 38.984 11.5299 38.6735C11.3896 38.3613 11.0751 38.1327 10.7239 38.2124C10.5927 38.2531 10.9004 38.2169 10.8121 38.2146C10.6356 38.2101 10.9461 38.2617 10.8121 38.2146C10.7239 38.2124 10.9914 38.307 10.8574 38.2599C10.8121 38.2146 10.9008 38.2164 10.9027 38.3051C10.9461 38.2617 10.8574 38.2599 10.8574 38.2599L10.9027 38.3051C10.8743 38.2209 10.8272 38.1442 10.7651 38.0807C10.7176 37.9472 10.8121 38.2146 10.8103 38.1259C10.78 38.0956 10.7642 38.0517 10.7628 37.9924L10.6678 37.7254L10.6614 37.4602C10.6185 37.5032 10.6225 37.6802 10.6614 37.4602C10.6311 37.4299 10.6157 37.3856 10.6139 37.3267L10.6013 36.7963C10.5966 36.6925 10.6088 36.5886 10.6375 36.4886C10.6071 36.4583 10.6067 36.4289 10.6356 36.3999L10.6375 36.4886C10.5922 36.4434 10.6356 36.3999 10.5904 36.3547L10.6719 36.0922L10.7153 36.0487C10.685 36.0184 10.6845 35.989 10.713 35.9605C10.742 35.9315 10.7425 35.9609 10.7153 36.0487L10.756 35.9175C10.7153 36.0487 10.6271 36.0465 10.713 35.9605L10.67 36.0035C10.3741 35.9374 10.0926 35.8569 9.82514 35.7623C9.85372 35.8464 9.9009 35.9229 9.96316 35.9863L9.96543 36.0745C9.99575 36.1049 10.0111 36.1492 10.0129 36.208C10.0107 36.1198 9.96769 36.1628 10.0129 36.208C9.98398 36.237 9.98443 36.2664 10.0148 36.2967C9.97176 36.3397 9.97402 36.428 10.0148 36.2967C9.9876 36.3845 9.97448 36.4574 9.97629 36.5162C10.017 36.385 9.93284 36.5597 9.97629 36.5162L9.80386 36.6886C9.98036 36.6932 10.1718 36.7126 10.3791 36.747C10.4383 36.7484 10.4822 36.7642 10.5126 36.7945C10.4822 36.7642 10.4822 36.7642 10.5126 36.7945C10.5148 36.8828 10.5601 36.928 10.5126 36.7945C10.4673 36.7493 10.5148 36.8828 10.5148 36.8828L10.5126 36.7945C10.4822 36.7642 10.4668 36.7199 10.4655 36.6606C10.4632 36.5723 10.5126 36.7945 10.4655 36.6606C10.494 36.6321 10.4935 36.6027 10.4632 36.5723C10.4276 36.2934 10.4356 36.0107 10.4868 35.7342L10.4782 35.3808C10.4478 35.3505 10.4325 35.3061 10.4306 35.2473C10.4596 35.2183 10.4592 35.1889 10.4288 35.1586C10.4288 35.1586 10.4696 35.0273 10.4266 35.0703L10.4243 34.9821L10.5537 34.8527C10.5519 34.7938 10.566 34.7499 10.5945 34.7214C10.6379 34.678 10.5515 34.7644 10.5945 34.7214L10.8103 34.5055C10.5706 34.4992 10.3324 34.4638 10.1012 34.4001L10.0559 34.3549C10.0243 34.2662 10.0089 34.2508 10.0107 34.3096L10.0559 34.3549C10.0573 34.4141 10.0419 34.3987 10.0107 34.3096C10.0559 34.3548 10.0193 34.663 10.0193 34.663C10.0496 34.6934 10.0501 34.7228 10.0215 34.7513C10.0197 34.6925 10.0197 34.6925 10.0215 34.7513C10.0229 34.8106 10.0093 34.854 9.98081 34.8825L9.98896 35.2364C9.9075 35.4989 9.91383 35.7641 9.96316 35.9863C9.97221 36.3393 10.0234 36.6502 10.0324 37.0032L11.2692 37.0335C11.2131 36.5465 11.2905 36.1071 11.2348 35.6197L11.1353 35.1762C11.1805 35.2215 11.1335 35.0875 11.1335 35.0875C11.1282 35.0115 11.1115 34.9367 11.0837 34.8658C11.0778 34.63 11.0868 34.3802 11.1095 34.1159L10.3297 34.7146C10.1958 34.6676 10.3297 34.7146 10.2845 34.6694C10.2392 34.6241 10.375 34.7599 10.2845 34.6694C10.4673 34.9391 10.8253 35.1242 11.1289 34.911C11.39 34.7404 11.5579 34.3915 11.3294 34.077Z" fill="black"/>
</g>
</g>
</g>
</g>
<defs>
<clipPath id="clip0_15_6161">
<rect width="64" height="64" fill="white" transform="translate(8 0.75) rotate(45)"/>
</clipPath>
<clipPath id="clip1_15_6161">
<rect width="64" height="64" fill="white" transform="translate(8 0.75) rotate(45)"/>
</clipPath>
<clipPath id="clip2_15_6161">
<rect width="64" height="64" fill="white" transform="translate(8 0.75) rotate(45)"/>
</clipPath>
</defs>
</svg>
