<svg width="65" height="64" viewBox="0 0 65 64" fill="none" xmlns="http://www.w3.org/2000/svg">
<g clip-path="url(#clip0_15_6175)">
<g clip-path="url(#clip1_15_6175)">
<mask id="mask0_15_6175" style="mask-type:luminance" maskUnits="userSpaceOnUse" x="6" y="7" width="52" height="50">
<path d="M6.59 7.67999H57.79V56.5786H6.59V7.67999Z" fill="white"/>
</mask>
<g mask="url(#mask0_15_6175)">
<path d="M23.9058 11.7069C22.2764 12.5636 20.7515 13.6061 19.3618 14.8135C11.7676 21.1994 6.1868 32.4173 12.2847 41.9092C17.4047 49.8484 27.5871 55.0259 36.4466 55.8311C49.5052 56.9242 57.3868 43.0599 57.2716 30.6343C57.0988 12.2247 38.9209 3.53795 23.9058 11.7069Z" fill="#0FA6A6"/>
<path fill-rule="evenodd" clip-rule="evenodd" d="M54.2809 27.6992C54.6265 30.6912 54.4537 33.8554 53.8777 36.7315C53.1878 39.9533 51.9794 42.7718 50.3686 44.9581V45.0157C49.2761 46.6842 48.0678 48.1798 46.6297 49.5027C46.1689 49.9251 45.6902 50.3277 45.1916 50.711L45.134 50.7686H45.0764L44.6732 51.2288C43.8105 52.1491 43.1775 52.6669 42.1426 53.127L41.5666 53.3574C41.4514 53.3958 41.3561 53.4342 41.2793 53.4726L41.3945 53.3574L39.8988 54.0474H39.7836L39.6684 54.1626C39.6684 54.201 39.6492 54.2202 39.6108 54.2202L39.4956 54.3354H39.3234C38.6905 54.7386 37.8854 54.9107 37.1372 55.0829C36.7538 55.1597 36.3897 55.2557 36.0447 55.3709C34.0882 55.9462 32.3628 56.3488 30.5791 56.3488C30.1574 56.3488 29.7356 56.3296 29.3138 56.2912C27.3574 56.1184 25.1718 55.6582 22.4678 54.8531C20.2239 54.2202 18.6706 53.1846 16.7148 51.8618L16.4844 51.7466C16.0332 51.4449 15.5728 51.1572 15.1039 50.8838C13.781 50.0205 12.5151 49.2154 11.4796 47.8349C11.0194 47.2013 10.6169 46.6842 10.2719 46.1664V46.1088H10.2143C9.46617 45.3037 8.94841 44.4979 8.60345 43.6352C7.51033 40.8736 7.10777 37.8246 6.82041 35.4662C6.76281 34.6029 6.76281 33.7978 6.82041 32.7622V32.7046C6.59001 30.4038 6.82041 28.3898 7.45273 26.7219V26.6067C7.49113 26.2611 7.52953 25.897 7.56793 25.5136C7.68313 24.8806 7.74073 24.3053 7.85593 23.7306C8.37369 21.9469 9.35161 19.7606 10.6745 17.7472C12.8031 14.583 15.4489 12.2822 19.0162 10.4986C21.7196 9.11808 24.4818 8.37056 27.3004 8.19776C28.1055 8.08256 28.9106 8.02496 29.7164 8.02496C30.3302 8.02496 30.9247 8.06336 31.4994 8.14016H31.6146C34.5484 8.48576 37.5404 8.77312 40.1862 9.98144V10.039H40.2438C40.7456 10.1814 41.2443 10.3346 41.7394 10.4986C44.0409 11.4195 46.2271 12.8 47.55 14.1229C51.4617 18.1504 53.7055 22.5792 54.2809 27.6992ZM35.2966 10.7872C35.0086 12.5702 34.5484 14.4115 34.1458 15.9072L33.973 16.425L34.4914 16.5402H34.7788L35.3542 16.6554C35.5846 16.7322 35.8143 16.7898 36.0441 16.8282C38.0582 17.1725 39.9564 17.5181 41.6825 18.6112L42.3724 19.0714L42.5452 19.1866L43.6383 19.8765L43.1775 18.6112C42.775 17.3453 42.1996 16.1946 41.4521 14.7565C41.2217 14.2387 40.8191 13.721 40.4742 13.2608C40.071 12.743 39.6684 12.1677 39.381 11.6499L39.3234 11.4771L39.1506 11.4195C38.7848 11.3101 38.4206 11.1951 38.0582 11.0746H38.0006C37.9238 11.0362 37.8086 10.9978 37.655 10.9594V10.9018H37.5974C37.0802 10.7296 36.4473 10.5568 35.8719 10.3846L35.3535 10.2694L35.2966 10.7872ZM27.3574 38.112C27.0124 39.3197 26.725 40.3552 26.3794 41.4483C25.9769 42.6566 25.8617 43.8643 25.8047 45.015C25.7663 45.5142 25.7087 45.993 25.6319 46.4531L25.5743 46.8563L25.9199 46.9715C27.5302 47.4886 29.3138 47.8912 31.1545 48.064H31.9596C33.9161 48.064 35.8719 47.8336 37.8278 47.3734H38.0006L38.1158 47.2006L38.6905 46.281C39.9564 44.3245 41.2217 42.2534 42.3148 40.1824L42.3724 40.1248V40.0672C42.718 39.0899 43.0054 37.9968 43.2351 36.8461C43.3119 36.5773 43.3887 36.2899 43.4655 35.9834C43.4655 35.9066 43.4847 35.8298 43.5231 35.753L43.5807 35.3498L43.2351 35.2352V35.1776H43.1775C41.1799 34.1244 39.1251 33.1834 37.0226 32.359V32.3014H36.965C35.2733 31.8379 33.5655 31.4348 31.845 31.0931L31.4418 30.9779C31.1591 30.8982 30.8707 30.8405 30.5791 30.8051L30.119 30.6906L29.7734 30.633L29.6012 30.9786C29.3132 31.7261 29.0834 32.5312 28.7385 33.5091V33.5667C28.2777 35.0624 27.8182 36.6733 27.3574 38.112ZM29.0258 29.0221L29.141 28.6195C29.9462 25.9155 30.8671 23.1539 31.845 20.393C32.1113 19.5401 32.3414 18.6764 32.535 17.8042L32.7078 17.2864L32.19 17.2288C29.7164 16.8838 27.4156 16.7686 25.2294 16.7686H24.021C23.2729 16.7686 22.4678 16.8262 21.4322 16.999H21.0866L20.9145 17.0566L20.7993 17.2294C20.7609 17.2294 20.7417 17.2486 20.7417 17.287C20.7033 17.3638 20.6649 17.4208 20.6265 17.4592C20.5113 17.6512 20.3775 17.8624 20.2239 18.0922C20.1087 18.265 19.9935 18.5523 19.8214 18.8397C18.5561 21.3133 17.8655 24.1901 17.4054 26.6637L17.2902 27.1238L17.751 27.1814L18.0953 27.2966C18.5177 27.3734 18.9202 27.4502 19.3036 27.527C21.0297 27.8144 22.8127 28.1018 24.4812 28.3322C25.8617 28.505 27.2428 28.7347 28.6233 28.9645L29.0258 29.0221ZM43.8681 33.8541L43.9257 33.2218C44.3865 29.7126 44.3865 26.0307 43.8681 22.1766V21.9462C43.8297 21.9078 43.8105 21.8502 43.8105 21.7734V21.6006L43.6377 21.4861C40.9343 19.5302 38.0582 18.3219 34.8364 17.689C34.7652 17.6519 34.6863 17.6322 34.606 17.6314C34.5676 17.593 34.5292 17.5738 34.4908 17.5738C34.3756 17.5738 34.261 17.5546 34.1458 17.5162L33.7433 17.4586L33.6281 17.8618C33.4553 18.4947 33.2255 19.1846 33.0527 19.9328C32.9375 20.3168 32.8415 20.7187 32.7647 21.1411C32.0748 23.6723 31.4418 26.2611 30.5215 28.7347L30.2911 29.2525L30.8095 29.3677C31.3849 29.4829 31.9212 29.5981 32.4204 29.7126C33.973 30.1158 35.4694 30.633 37.022 31.2083L37.0796 31.2659C39.0361 31.7837 40.647 32.359 42.0844 32.992C42.43 33.1648 42.8332 33.337 43.2927 33.6243L43.8687 33.8547L43.8681 33.8541ZM28.9113 10.5555C28.5273 10.7091 28.1241 10.8819 27.703 11.0739C26.7826 11.4189 26.1497 11.7638 25.5167 12.1088V12.1664C24.5388 12.9146 23.5609 13.8349 22.583 14.928L21.8348 15.7907L22.9855 15.6755H23.2735C23.4271 15.6371 23.5609 15.6179 23.6761 15.6179C24.5964 15.5027 25.5167 15.4451 26.4946 15.4451C28.3359 15.4451 30.2342 15.6179 32.5926 16.0787L32.9958 16.1363L33.0534 15.7331L33.3983 14.3526C33.4751 14.007 33.5519 13.6429 33.6287 13.2595C33.8009 12.3392 33.973 11.4189 34.3186 10.6131L34.549 10.0378L33.9154 9.92256C33.4559 9.86496 32.9382 9.86496 32.4774 9.86496C32.1708 9.82656 31.8642 9.80736 31.557 9.80736C31.4418 9.80736 31.269 9.74976 31.0969 9.74976H31.0393L30.9241 9.6928L30.8089 9.7504C30.1766 10.0384 29.5442 10.3258 28.9113 10.5555ZM12.5145 17.4598L14.0678 17.1142C14.2982 17.0374 14.5286 16.9798 14.7583 16.9414L15.2191 16.8269C16.7142 16.4813 18.4402 16.1939 20.2239 15.9642H20.3961L20.5113 15.7914C21.0589 14.9854 21.6344 14.1988 22.2367 13.433C23.0425 12.455 24.0204 11.6493 25.3433 11.0163L27.9321 9.63584L25.0559 10.0966C22.9273 10.4986 21.1442 11.017 19.4751 11.8797C17.6345 12.7424 15.7362 14.2381 13.6652 16.3091L12.5145 17.4598ZM8.77561 26.089L9.35097 26.0314H9.86873C10.8466 26.0314 11.8822 26.2042 12.8601 26.3194C13.2434 26.3962 13.6076 26.4538 13.9532 26.4922C14.471 26.5498 14.9887 26.6643 15.621 26.7795L16.0242 26.8371L16.1394 26.3763C16.2546 25.8016 16.3884 25.2454 16.542 24.7085C17.0598 22.4646 17.9225 20.2784 19.0732 18.1504L19.591 17.2294L18.6124 17.4598C16.1964 18.0352 13.7804 18.8403 11.3644 19.8182H11.2492L11.1916 19.9334C11.1148 20.0486 11.0188 20.1062 10.9036 20.1062L10.7308 20.1638L10.6162 20.3366C9.86873 21.8317 9.29337 23.4426 8.89017 25.4566L8.77497 26.089H8.77561ZM9.75353 35.8112C10.8466 38.055 12.6873 40.0685 14.8159 41.5066L15.6786 42.0819L15.5058 40.9888C15.333 40.2406 15.2761 39.4931 15.2185 38.8026C14.9305 35.7536 15.1033 32.3597 15.6793 28.793L15.7938 28.2746H15.333C13.205 27.9872 11.1346 27.815 9.06297 27.6998L8.71737 27.6422L8.60281 28.0454C8.08505 30.6336 8.48761 33.28 9.75353 35.8112ZM18.325 50.9984L17.8649 49.7907C17.1167 48.0646 16.599 46.224 16.254 44.3827V44.2099C16.2171 44.1389 16.1973 44.0602 16.1964 43.9802L16.1388 43.8074L15.966 43.6922C14.471 42.887 13.2626 42.0243 12.1695 40.9888L11.8815 40.7008C11.0188 39.9533 10.1561 39.1482 9.40857 38.2848L8.37305 37.1917L8.60345 38.6874C8.83321 40.2406 9.12057 41.3914 9.52313 42.3693C9.85376 43.2641 10.2579 44.13 10.7314 44.9581L10.789 45.0157C11.0962 45.3997 11.3836 45.7254 11.6518 45.9936C11.8438 46.1472 12.0358 46.32 12.2271 46.512C13.7228 47.8918 15.4489 49.4451 17.2319 50.3661L18.325 50.9984ZM23.9058 47.2595L23.5602 47.1443C22.9533 46.8785 22.3393 46.629 21.719 46.3962C20.5689 45.8784 19.303 45.4182 18.1522 44.8429L17.2319 44.4403L17.5775 45.4182C17.9801 46.7994 18.4978 48.1798 18.958 49.5027C19.1884 50.0787 19.4182 50.711 19.6479 51.2864L19.7055 51.4592L19.8783 51.5744C20.4921 51.8042 21.1058 52.0147 21.719 52.2067C22.0262 52.3219 22.3142 52.4371 22.5823 52.5523L23.1577 52.7245V52.1491C23.3305 50.711 23.5026 49.273 23.8476 47.6621L23.9052 47.2589L23.9058 47.2595ZM24.2502 45.7062C24.4806 44.6707 24.7686 43.6352 25.1135 42.3693C25.3439 41.3914 25.6889 40.4134 25.9186 39.6083H25.9762C26.1298 38.9939 26.3026 38.3808 26.4946 37.767L26.9542 36.3866V36.329C26.9926 36.137 27.0502 35.945 27.127 35.7536C27.4726 34.3155 27.8169 32.8198 28.3922 31.4394V31.3818C28.4306 31.2666 28.469 31.1706 28.5074 31.0938L28.565 30.8634L28.6802 30.3462L28.2194 30.2886C24.711 29.5981 21.0866 28.9651 17.5199 28.5626L17.1167 28.505L17.0015 28.9082C16.4268 32.3597 16.5996 35.9264 16.7718 39.4355C16.8102 39.8195 16.8294 40.2022 16.8294 40.5862C16.8294 41.1616 16.887 41.7363 17.0022 42.4845V42.7725L17.2326 42.8877C18.0953 43.2896 18.958 43.6928 19.7631 44.0954C20.5113 44.441 21.2588 44.8429 22.0646 45.1885L22.1798 45.3037C22.6399 45.5334 23.1193 45.7638 23.6178 45.9936L24.1356 46.224L24.2508 45.7056L24.2502 45.7062ZM33.9154 52.6093C34.2034 52.2067 34.5478 51.7466 34.8934 51.4016C35.2683 50.9889 35.6328 50.5668 35.9865 50.1357L36.2738 49.8477L37.0796 48.985L35.9289 49.1002C35.1239 49.1385 34.3181 49.1578 33.5122 49.1578H32.766C32.4588 49.1962 32.1522 49.2154 31.8457 49.2154C30.5798 49.2154 29.4674 49.1002 28.5087 48.8698C27.6226 48.6827 26.7558 48.4132 25.9199 48.0646L25.4598 47.8918L25.3446 48.4102C25.1142 49.7907 24.8268 51.2864 24.7698 53.0118V53.3574L25.0572 53.4726C27.1105 54.1008 29.2391 54.4489 31.3855 54.5075H31.5007L31.6159 54.4499C31.8457 54.3347 32.0946 54.2202 32.3634 54.105C32.4786 54.0282 32.5938 53.9706 32.7084 53.9322L32.8236 53.8746L32.8812 53.817L33.9167 52.6093H33.9154ZM47.55 47.0291C46.2271 47.6621 44.7884 47.7197 43.4079 48.0646C41.9122 48.4678 40.3014 48.64 38.7487 48.8128H38.5759L38.4607 48.928C38.1919 49.273 37.8847 49.6371 37.5404 50.0205V50.0781C36.8492 51.2288 36.1017 52.3795 35.2966 53.3574L34.4914 54.393L35.7567 54.105C37.0141 53.8772 38.2469 53.5305 39.4386 53.0694H39.4962V53.0118H39.5538C39.9564 52.7245 40.5318 52.5517 41.0495 52.3795L41.1071 52.3219C42.3148 51.7459 43.4655 50.9984 44.501 50.1933H44.5586V50.1357C44.9426 49.7517 45.3254 49.3498 45.7094 48.9274C46.3225 48.3142 46.9362 47.6813 47.55 47.0291ZM51.0591 39.9533L50.8287 39.7229C49.3906 38.2272 47.4348 37.2493 45.5935 36.329L45.134 36.0986L44.9612 36.617V36.7322C44.9612 36.7706 44.942 36.809 44.9036 36.8467C44.501 38.2272 43.8681 39.6653 43.0054 41.2762V41.3338C42.43 42.887 41.7394 44.3251 40.8767 45.7062L40.1862 46.7994L41.3945 46.3962C42.1297 46.1252 42.8586 45.8376 43.5807 45.5334C43.9263 45.3798 44.2898 45.2262 44.6738 45.0726C46.2841 44.4403 48.0678 43.6928 49.333 42.4845C49.8706 41.9475 50.3878 41.2186 50.8863 40.2982L51.0591 39.9533ZM52.9574 34.5453L52.8998 34.3725C52.8614 34.3341 52.8422 34.2963 52.8422 34.2579C52.67 33.2224 52.4396 31.9571 52.037 30.7488V30.6912L51.9794 30.6336L51.9218 30.576C51.5734 29.9286 51.1693 29.3127 50.7142 28.7354C50.2276 28.063 49.7671 27.3721 49.3337 26.6643L49.2761 26.5491L49.2185 26.4915V26.4339C48.2406 25.456 47.205 24.4205 46.1119 23.4426L45.2486 22.5798L45.3638 23.8451C45.767 26.5491 46.1119 30.576 45.479 34.3155L45.4214 34.6611L45.767 34.7763C46.3417 35.1206 46.8594 35.351 47.3772 35.6384C47.8956 35.8688 48.4127 36.272 48.9305 36.6739C49.621 37.1347 50.3116 37.6518 51.0591 37.9398C51.0975 37.9782 51.1551 38.0166 51.2319 38.055L51.6921 38.5152C51.6921 38.4576 52.9004 35.1206 52.9574 34.6605V34.5453ZM53.303 30.7488L53.1302 28.4474C52.9574 26.5491 52.6124 24.7661 52.0946 23.2122C51.5193 21.3715 50.6566 19.8182 49.6786 18.6106L48.9881 17.8048C48.0102 16.6547 47.0322 15.3888 45.8815 14.4685C45.0764 13.7779 44.0409 13.2026 42.7174 12.6272L41.3369 12.0518L42.1426 13.3178C42.2194 13.433 42.2962 13.529 42.373 13.6058C42.6028 13.9507 42.775 14.2381 42.8326 14.4109C43.2881 15.26 43.6729 16.1451 43.9833 17.0573C44.1561 17.632 44.2713 18.265 44.4441 19.0131V19.0707C44.597 19.5309 44.7116 20.0102 44.7884 20.5088L44.846 20.6816L44.9612 20.7968C45.5864 21.2672 46.2193 21.7274 46.8594 22.1773C47.8374 22.9248 48.7007 23.9027 49.621 25.2262L49.6786 25.2838C50.3594 26.0258 51.0118 26.7933 51.6345 27.5846C51.8649 27.8918 52.0953 28.256 52.325 28.6778L53.303 30.7488Z" fill="#272726"/>
</g>
</g>
</g>
<defs>
<clipPath id="clip0_15_6175">
<rect width="64" height="64" fill="white" transform="translate(0.190002)"/>
</clipPath>
<clipPath id="clip1_15_6175">
<rect width="64" height="64" fill="white" transform="translate(0.190002)"/>
</clipPath>
</defs>
</svg>
