<svg width="49" height="49" viewBox="0 0 49 49" fill="none" xmlns="http://www.w3.org/2000/svg">
<g clip-path="url(#clip0_15_6123)">
<g clip-path="url(#clip1_15_6123)">
<g clip-path="url(#clip2_15_6123)">
<mask id="mask0_15_6123" style="mask-type:luminance" maskUnits="userSpaceOnUse" x="0" y="0" width="49" height="49">
<path d="M25.4826 0.987366L48.11 23.6148L22.9033 48.8215L0.275896 26.1941L25.4826 0.987366Z" fill="white"/>
</mask>
<g mask="url(#mask0_15_6123)">
<path fill-rule="evenodd" clip-rule="evenodd" d="M19.1399 20.2969C19.0344 20.1445 18.9406 20.0272 18.8937 19.91C18.5889 18.9252 18.3075 17.9404 17.9792 16.979C17.5765 15.814 17.0164 14.7095 16.3144 13.6963C15.8572 13.028 15.4117 12.348 14.9779 11.7032C15.0248 11.3983 15.3882 11.4804 15.4234 11.2108C15.6813 11.2577 15.7985 11.4218 15.9275 11.5976C16.1268 11.9142 16.3379 12.2425 16.5372 12.559C16.8889 13.0983 17.3109 13.5673 17.7916 13.9776C18.5889 14.6576 19.3861 15.3376 20.2185 15.9824C20.8282 16.4514 21.4847 16.85 22.2351 17.0845C22.5868 17.2017 22.9033 17.3776 23.255 17.4948C23.513 17.5652 23.7826 17.6004 24.0406 17.6707C25.0605 17.9638 26.0923 18.1514 27.1709 18.1514C28.4722 18.1631 29.7384 17.9052 31.0164 17.7293C32.4701 17.5183 33.7246 16.8266 34.9439 16.0762C35.9522 15.4431 36.9956 14.8687 37.9218 14.1066C38.0391 14.0128 38.1798 13.9659 38.3204 13.8956C38.3829 13.9581 38.4494 14.0168 38.5198 14.0714C38.4963 14.1183 38.4846 14.1769 38.4611 14.2004C38.1329 14.4818 37.7929 14.7514 37.488 15.0562C36.8315 15.7128 36.1867 16.3811 35.5301 17.0376C34.7798 17.7879 34.0412 18.55 33.2791 19.3121C32.5522 20.0155 32.0012 20.8245 31.626 21.7624C31.5439 21.9617 31.4384 22.161 31.3095 22.3369C30.9343 22.8527 30.7702 23.4389 30.7467 24.072C30.735 24.5996 30.6764 25.1038 30.6646 25.6313C30.6295 26.2996 30.7819 26.9444 30.9812 27.5658C31.1532 28.0973 31.3016 28.6288 31.4267 29.1603C31.6026 29.8754 31.9426 30.5203 32.3177 31.1534C32.6695 31.7161 33.0329 32.2906 33.3612 32.8768C33.7129 33.4865 34.1584 34.0023 34.5922 34.5299C34.9322 34.9637 35.2722 35.3975 35.6708 35.8899C35.5301 35.8899 35.4363 35.9133 35.4129 35.8899C34.475 34.9989 33.537 34.0844 32.5874 33.2285C32.0481 32.7596 31.4853 32.3375 30.9108 31.9506C30.2309 31.4816 29.5274 31.0361 28.824 30.6375C28.0502 30.192 27.2412 29.8051 26.444 29.4299C25.6702 29.0548 24.8378 28.9492 23.9702 28.8789C23.2316 28.8437 22.5633 29.1368 21.8599 29.2306C20.8985 29.3479 20.0427 29.8051 19.2102 30.2858C17.8034 31.1065 16.3847 31.9389 15.013 32.8182C13.6179 33.7209 12.2696 34.694 11.0151 35.7844C10.8627 35.9133 10.6751 35.9837 10.4875 36.0775C10.4289 36.0892 10.3351 36.0657 10.2765 36.054C10.2531 35.8664 10.2413 35.6906 10.2413 35.5264C10.2179 35.3154 10.3234 35.163 10.4758 35.034C11.3082 34.2485 12.1641 33.4865 12.9965 32.7009C13.6061 32.1147 14.251 31.5403 14.8137 30.9072C15.482 30.1451 16.1034 29.3361 16.6896 28.5155C17.053 28.0113 17.3344 27.4251 17.6275 26.8741C18.0144 26.1824 18.2489 25.432 18.5537 24.7286C18.7413 24.3065 18.7882 23.8376 18.9992 23.4389C19.0227 23.3686 18.9875 23.2865 18.9875 23.2162C18.9875 23.1458 18.964 23.0755 18.9758 23.0169C19.2689 22.3721 19.0578 21.6921 19.1868 21.0238C19.1985 20.9652 19.1399 20.8831 19.1165 20.8128C19.0696 20.6252 18.9758 20.4376 19.1399 20.2969ZM23.595 17.8583C23.6654 17.999 23.7475 18.1045 23.9585 17.9404C23.8061 17.9052 23.7123 17.8817 23.595 17.8583Z" fill="#100F12"/>
</g>
</g>
</g>
</g>
<defs>
<clipPath id="clip0_15_6123">
<rect width="32" height="35.81" fill="white" transform="translate(25.54 0.929993) rotate(45)"/>
</clipPath>
<clipPath id="clip1_15_6123">
<rect width="32" height="35.81" fill="white" transform="translate(25.54 0.929993) rotate(45)"/>
</clipPath>
<clipPath id="clip2_15_6123">
<rect width="32" height="35.8135" fill="white" transform="translate(25.5412 0.928772) rotate(45)"/>
</clipPath>
</defs>
</svg>
