<svg width="20" height="20" viewBox="0 0 20 20" fill="none" xmlns="http://www.w3.org/2000/svg">
<path d="M10 1.24999C9.14065 1.24999 8.29429 1.37695 7.46096 1.63085C6.62762 1.88476 5.85289 2.2526 5.13674 2.73437C4.42059 3.20312 3.78908 3.77278 3.24221 4.44335C2.69533 5.11393 2.25262 5.85286 1.91408 6.66015C1.58856 7.45442 1.38348 8.28125 1.29885 9.14062C1.21421 10 1.25653 10.8529 1.4258 11.6992C1.59507 12.5586 1.88153 13.3691 2.28518 14.1309C2.68882 14.8926 3.19664 15.5794 3.80861 16.1914C4.42059 16.8034 5.10744 17.3112 5.86916 17.7148C6.63088 18.1185 7.44143 18.4049 8.3008 18.5742C9.14716 18.7435 10 18.7858 10.8594 18.7012C11.7188 18.6165 12.5456 18.4115 13.3399 18.0859C14.1472 17.7474 14.8861 17.3047 15.5567 16.7578C16.2272 16.2109 16.7969 15.5794 17.2656 14.8633C17.7474 14.1471 18.1153 13.3724 18.3692 12.5391C18.6231 11.7057 18.75 10.8594 18.75 10C18.75 9.41406 18.6914 8.84114 18.5742 8.28124C18.4701 7.72135 18.3073 7.17773 18.086 6.65038C17.8646 6.12304 17.5977 5.62499 17.2852 5.15624C16.9597 4.67447 16.5951 4.22526 16.1914 3.80859C15.7748 3.40494 15.3255 3.04036 14.8438 2.71484C14.375 2.40234 13.877 2.13541 13.3496 1.91406C12.8223 1.6927 12.2787 1.52994 11.7188 1.42578C11.1589 1.30859 10.586 1.24999 10 1.24999ZM2.51955 10.2539L3.33986 10.5273L4.37502 12.0703V12.8711C4.37502 12.9492 4.3913 13.0273 4.42385 13.1055C4.4564 13.1836 4.49872 13.2487 4.5508 13.3008L6.25002 15V16.4844C5.70315 16.1719 5.20184 15.791 4.74611 15.3418C4.29039 14.8926 3.89976 14.3945 3.57424 13.8477C3.24872 13.3008 2.99481 12.7213 2.81252 12.1094C2.63023 11.4974 2.53257 10.8789 2.51955 10.2539ZM10 17.5C9.72658 17.5 9.4564 17.4837 9.18947 17.4512C8.92255 17.4186 8.65887 17.3763 8.39846 17.3242L8.75002 16.25L9.88283 13.4375C9.89585 13.3854 9.90562 13.3333 9.91213 13.2812C9.91864 13.2292 9.9219 13.1771 9.9219 13.125C9.90887 13.0859 9.89585 13.0404 9.88283 12.9883C9.86981 12.9362 9.85028 12.8906 9.82424 12.8516L8.94533 11.5234C8.90627 11.4844 8.86721 11.4486 8.82815 11.416C8.78908 11.3835 8.75002 11.3542 8.71096 11.3281C8.65887 11.3021 8.61005 11.2825 8.56447 11.2695C8.5189 11.2565 8.47007 11.25 8.41799 11.25H5.33205L4.5508 10.0781L5.87893 8.75H6.87502V10H8.12502V8.28124L10.5469 4.06249L9.45315 3.43749L8.9258 4.37499H7.20705L6.52346 3.35937C6.97919 3.11197 7.45445 2.91992 7.94924 2.7832C8.44403 2.64648 8.95184 2.55859 9.47268 2.51953C9.98049 2.48046 10.4916 2.49674 11.0059 2.56835C11.5202 2.63997 12.0182 2.76041 12.5 2.92968V4.99999C12.5 5.07812 12.5163 5.15624 12.5488 5.23437C12.5814 5.31249 12.6237 5.38411 12.6758 5.44921C12.7409 5.5013 12.8125 5.54361 12.8906 5.57617C12.9688 5.60872 13.0469 5.62499 13.125 5.62499H14.043C14.0951 5.62499 14.1439 5.61848 14.1895 5.60546C14.235 5.59244 14.2839 5.57291 14.336 5.54687C14.375 5.52083 14.4141 5.49153 14.4531 5.45898C14.4922 5.42643 14.5313 5.39062 14.5703 5.35156L15.1172 4.53124C15.4688 4.85677 15.7878 5.21809 16.0742 5.61523C16.3607 6.01236 16.6081 6.43229 16.8164 6.87499H14.2578C14.1927 6.87499 14.1244 6.88802 14.0528 6.91406C13.9811 6.9401 13.9193 6.97265 13.8672 7.01171C13.8151 7.0638 13.7696 7.11913 13.7305 7.17773C13.6914 7.23632 13.6654 7.30468 13.6524 7.38281L13.2031 10.1758C13.1901 10.2409 13.1901 10.306 13.2031 10.3711C13.2162 10.4362 13.2357 10.4948 13.2617 10.5469C13.2878 10.612 13.3236 10.6673 13.3692 10.7129C13.4147 10.7585 13.4701 10.8008 13.5352 10.8398L15.625 11.875L16.0547 14.4141C15.7031 14.8828 15.3028 15.3092 14.8535 15.6934C14.4043 16.0775 13.9193 16.4062 13.3985 16.6797C12.8776 16.9531 12.3275 17.1582 11.7481 17.2949C11.1686 17.4316 10.586 17.5 10 17.5Z" fill="#0E0E0F"/>
</svg>
