<svg width="140" height="40" viewBox="0 0 140 40" fill="none" xmlns="http://www.w3.org/2000/svg">
<g clip-path="url(#clip0_15_7501)">
<g clip-path="url(#clip1_15_7501)">
<g clip-path="url(#clip2_15_7501)">
<g filter="url(#filter0_dd_15_7501)">
<mask id="mask0_15_7501" style="mask-type:luminance" maskUnits="userSpaceOnUse" x="4" y="3" width="32" height="32">
<path d="M28 3H12C9.87827 3 7.84344 3.84285 6.34315 5.34315C4.84285 6.84344 4 8.87827 4 11V27C4 29.1217 4.84285 31.1566 6.34315 32.6569C7.84344 34.1571 9.87827 35 12 35H28C30.1217 35 32.1566 34.1571 33.6569 32.6569C35.1571 31.1566 36 29.1217 36 27V11C36 8.87827 35.1571 6.84344 33.6569 5.34315C32.1566 3.84285 30.1217 3 28 3Z" fill="white"/>
</mask>
<g mask="url(#mask0_15_7501)">
<path d="M28 3H12C9.87827 3 7.84344 3.84285 6.34315 5.34315C4.84285 6.84344 4 8.87827 4 11V27C4 29.1217 4.84285 31.1566 6.34315 32.6569C7.84344 34.1571 9.87827 35 12 35H28C30.1217 35 32.1566 34.1571 33.6569 32.6569C35.1571 31.1566 36 29.1217 36 27V11C36 8.87827 35.1571 6.84344 33.6569 5.34315C32.1566 3.84285 30.1217 3 28 3Z" fill="#178D72"/>
<path d="M4 3H36V35H4V3Z" fill="url(#paint0_linear_15_7501)"/>
<path d="M17.625 9.5C17.625 11.3897 16.8743 13.2019 15.5381 14.5381C14.2019 15.8743 12.3897 16.625 10.5 16.625V21.375H17.625V28.5H22.375C22.375 26.6103 23.1257 24.7981 24.4619 23.4619C25.7981 22.1257 27.6103 21.375 29.5 21.375V16.625H22.375V9.5H17.625Z" fill="url(#paint1_linear_15_7501)"/>
</g>
<path d="M28 3.66701H12C10.0552 3.66701 8.18998 4.43959 6.81478 5.81479C5.43957 7.19 4.66699 9.05518 4.66699 11V27C4.66699 28.9448 5.43957 30.81 6.81478 32.1852C8.18998 33.5604 10.0552 34.333 12 34.333H28C29.9448 34.333 31.81 33.5604 33.1852 32.1852C34.5604 30.81 35.333 28.9448 35.333 27V11C35.333 9.05518 34.5604 7.19 33.1852 5.81479C31.81 4.43959 29.9448 3.66701 28 3.66701Z" stroke="url(#paint2_linear_15_7501)" stroke-width="2"/>
</g>
<path d="M113.052 16.46V11.296C113.052 10.8419 113.232 10.4065 113.553 10.0854C113.874 9.76437 114.31 9.584 114.764 9.584C115.218 9.584 115.653 9.76437 115.975 10.0854C116.296 10.4065 116.476 10.8419 116.476 11.296V25.57C116.476 26.1004 116.265 26.6091 115.89 26.9842C115.515 27.3593 115.006 27.57 114.476 27.57H113.052V25.925C111.974 27.408 110.787 28.001 108.873 28.001C105.179 28.001 102.698 25.359 102.698 21.449C102.698 19.346 103.399 17.593 104.693 16.379C105.88 15.274 107.39 14.654 108.927 14.654C110.625 14.654 111.839 15.194 113.052 16.461V16.46ZM109.736 17.538C107.767 17.538 106.338 19.183 106.338 21.475C106.338 23.632 107.767 25.25 109.709 25.25C111.596 25.25 113.052 23.605 113.052 21.448C113.052 19.183 111.65 17.538 109.736 17.538ZM90.234 17.084C90.234 16.5536 90.4447 16.0449 90.8198 15.6698C91.1949 15.2947 91.7036 15.084 92.234 15.084H93.659V16.621C94.575 15.192 95.492 14.653 97.056 14.653C98.243 14.653 99.375 15.084 100.13 15.813C100.939 16.621 101.235 17.619 101.235 19.668V27.568H97.811V19.83C97.811 19.129 97.731 18.725 97.514 18.374C97.191 17.862 96.544 17.538 95.87 17.538C94.548 17.538 93.659 18.536 93.659 19.992V27.568H90.234V17.084ZM88.841 22.149H79.081C79.377 23.875 80.644 24.953 82.343 24.953C83.61 24.953 84.689 24.333 85.228 23.335L88.383 24.198C87.143 26.625 84.959 28 82.316 28C78.353 28 75.521 25.196 75.521 21.313C75.521 17.403 78.245 14.653 82.101 14.653C86.091 14.653 88.868 17.457 88.868 21.475L88.841 22.149ZM79.081 20.181H85.336C85.04 18.536 83.853 17.538 82.154 17.538C80.51 17.538 79.404 18.482 79.081 20.181Z" fill="#0C111D"/>
<path d="M69.677 24.171L67.385 27.569H63.34L67.681 21.367L63.071 15.084H67.385L69.676 18.401L71.888 15.085H76.067L71.617 21.367L75.986 27.568H71.834L69.677 24.171Z" fill="#0C111D"/>
<path d="M63.85 22.149H54.09C54.387 23.875 55.654 24.953 57.352 24.953C58.62 24.953 59.698 24.333 60.238 23.335L63.392 24.198C62.152 26.625 59.968 28 57.326 28C53.362 28 50.531 25.196 50.531 21.313C50.531 17.403 53.254 14.653 57.11 14.653C61.1 14.653 63.878 17.457 63.878 21.475L63.851 22.149H63.85ZM54.09 20.181H60.345C60.049 18.536 58.862 17.538 57.164 17.538C55.519 17.538 54.414 18.482 54.09 20.181ZM49.023 25.856C49.023 26.3101 48.8426 26.7455 48.5216 27.0666C48.2005 27.3876 47.7651 27.568 47.311 27.568C46.857 27.568 46.4215 27.3876 46.1004 27.0666C45.7794 26.7455 45.599 26.3101 45.599 25.856V11.296C45.599 10.8419 45.7794 10.4065 46.1004 10.0854C46.4215 9.76437 46.857 9.584 47.311 9.584C47.7651 9.584 48.2005 9.76437 48.5216 10.0854C48.8426 10.4065 49.023 10.8419 49.023 11.296V25.856Z" fill="#0C111D"/>
</g>
</g>
</g>
<defs>
<filter id="filter0_dd_15_7501" x="0.666992" y="0.667007" width="38.666" height="38.666" filterUnits="userSpaceOnUse" color-interpolation-filters="sRGB">
<feFlood flood-opacity="0" result="BackgroundImageFix"/>
<feColorMatrix in="SourceAlpha" type="matrix" values="0 0 0 0 0 0 0 0 0 0 0 0 0 0 0 0 0 0 127 0" result="hardAlpha"/>
<feOffset dy="1"/>
<feGaussianBlur stdDeviation="1"/>
<feColorMatrix type="matrix" values="0 0 0 0 0.0627451 0 0 0 0 0.0941176 0 0 0 0 0.156863 0 0 0 0.06 0"/>
<feBlend mode="normal" in2="BackgroundImageFix" result="effect1_dropShadow_15_7501"/>
<feColorMatrix in="SourceAlpha" type="matrix" values="0 0 0 0 0 0 0 0 0 0 0 0 0 0 0 0 0 0 127 0" result="hardAlpha"/>
<feOffset dy="1"/>
<feGaussianBlur stdDeviation="1.5"/>
<feColorMatrix type="matrix" values="0 0 0 0 0.0627451 0 0 0 0 0.0941176 0 0 0 0 0.156863 0 0 0 0.1 0"/>
<feBlend mode="normal" in2="effect1_dropShadow_15_7501" result="effect2_dropShadow_15_7501"/>
<feBlend mode="normal" in="SourceGraphic" in2="effect2_dropShadow_15_7501" result="shape"/>
</filter>
<linearGradient id="paint0_linear_15_7501" x1="20" y1="3" x2="21.333" y2="35" gradientUnits="userSpaceOnUse">
<stop stop-color="white" stop-opacity="0"/>
<stop offset="1" stop-color="white" stop-opacity="0.12"/>
</linearGradient>
<linearGradient id="paint1_linear_15_7501" x1="20" y1="9.5" x2="20" y2="28.5" gradientUnits="userSpaceOnUse">
<stop stop-color="white" stop-opacity="0.8"/>
<stop offset="1" stop-color="white" stop-opacity="0.5"/>
</linearGradient>
<linearGradient id="paint2_linear_15_7501" x1="20" y1="3.00001" x2="20" y2="35" gradientUnits="userSpaceOnUse">
<stop stop-color="white" stop-opacity="0.12"/>
<stop offset="1" stop-color="white" stop-opacity="0"/>
</linearGradient>
<clipPath id="clip0_15_7501">
<rect width="117" height="40" fill="white"/>
</clipPath>
<clipPath id="clip1_15_7501">
<rect width="117" height="40" fill="white"/>
</clipPath>
<clipPath id="clip2_15_7501">
<rect width="117" height="40" fill="white"/>
</clipPath>
</defs>
</svg>
